{"glyphs":{"0":{"ha":833,"x_min":0,"x_max":0,"o":"m 417 -22 b 64 492 199 -22 64 178 b 417 1008 64 807 199 1008 b 769 492 635 1008 769 807 b 417 -22 769 178 635 -22 m 210 492 b 238 279 210 408 219 338 l 535 822 b 417 876 503 857 463 876 b 210 492 289 876 210 731 m 297 165 b 417 110 329 129 369 110 b 624 492 544 110 624 256 b 594 713 624 578 614 653 l 297 165 "},"1":{"ha":833,"x_min":0,"x_max":0,"o":"m 374 132 l 374 710 l 126 710 l 126 825 l 239 825 b 400 986 351 825 400 874 l 513 986 l 513 132 l 778 132 l 778 0 l 81 0 l 81 132 "},"2":{"ha":833,"x_min":0,"x_max":0,"o":"m 86 688 b 440 1008 108 872 240 1008 b 763 722 626 1008 763 886 b 508 394 763 579 651 481 b 240 132 435 353 249 228 l 769 132 l 769 0 l 68 0 b 440 515 68 296 261 403 b 617 724 540 579 617 647 b 440 876 617 813 544 876 b 231 678 328 876 253 803 l 86 688 "},"3":{"ha":833,"x_min":0,"x_max":0,"o":"m 407 589 b 590 746 494 588 590 628 b 410 876 590 826 524 876 b 236 757 315 876 247 829 l 90 765 b 410 1008 108 908 240 1008 b 735 750 603 1008 735 903 b 560 533 735 640 675 567 b 768 272 697 494 768 396 b 410 -22 768 100 624 -22 b 58 260 214 -22 67 90 l 203 268 b 410 110 213 156 318 110 b 625 282 542 110 625 176 b 407 460 625 394 540 463 l 336 458 l 336 590 l 407 589 "},"4":{"ha":833,"x_min":0,"x_max":0,"o":"m 682 325 l 790 325 l 790 193 l 682 193 l 682 0 l 543 0 l 543 193 l 39 193 l 39 329 l 528 986 l 682 986 m 543 325 l 543 778 l 206 325 "},"5":{"ha":833,"x_min":0,"x_max":0,"o":"m 711 854 l 290 854 l 253 579 b 449 657 297 629 376 657 b 764 318 628 657 764 515 b 419 -22 764 118 622 -22 b 78 258 240 -22 92 100 l 222 267 b 432 110 238 169 318 110 b 619 318 540 110 619 196 b 415 526 619 443 533 526 b 240 425 340 526 265 485 l 93 425 l 171 986 l 711 986 "},"6":{"ha":833,"x_min":0,"x_max":0,"o":"m 629 760 b 451 876 603 833 538 876 b 213 553 317 876 233 763 b 446 672 267 629 349 672 b 776 328 643 672 776 531 b 424 -22 776 114 631 -22 b 169 90 331 -22 240 13 b 68 435 101 164 68 286 b 451 1008 68 733 164 1008 b 772 769 604 1008 729 922 l 629 760 m 219 328 b 426 110 217 200 303 110 b 631 328 546 110 631 200 b 436 540 631 453 550 540 b 219 328 311 540 221 453 "},"7":{"ha":833,"x_min":0,"x_max":0,"o":"m 786 986 l 786 858 b 458 0 592 619 458 326 l 313 0 b 635 854 314 319 442 611 l 81 854 l 81 986 "},"8":{"ha":833,"x_min":0,"x_max":0,"o":"m 417 -22 b 61 271 213 -22 61 90 b 253 535 61 394 133 490 b 107 738 160 572 107 638 b 417 1008 107 894 240 1008 b 726 738 594 1008 726 894 b 581 535 726 638 672 572 b 772 271 700 489 772 393 b 417 -22 772 90 621 -22 m 206 283 b 417 110 206 181 293 110 b 628 283 540 110 628 181 b 417 458 628 388 540 458 b 206 283 293 458 206 388 m 251 733 b 417 592 251 650 319 592 b 582 733 514 592 582 650 b 417 876 582 818 514 876 b 251 733 319 876 251 818 "},"9":{"ha":833,"x_min":0,"x_max":0,"o":"m 204 226 b 382 110 231 153 296 110 b 621 433 517 110 600 224 b 388 314 567 357 485 314 b 57 658 190 314 57 456 b 410 1008 57 872 203 1008 b 664 896 503 1008 593 974 b 765 551 732 822 765 700 b 382 -22 765 253 669 -22 b 61 217 229 -22 104 64 l 204 226 m 203 658 b 397 446 203 533 283 446 b 614 658 522 446 613 533 b 407 876 617 786 531 876 b 203 658 288 876 203 786 "}," ":{"ha":833,"x_min":0,"x_max":0,"o":""},"A":{"ha":833,"x_min":0,"x_max":0,"o":"m 331 986 l 503 986 l 801 0 l 658 0 l 583 258 l 250 258 l 175 0 l 32 0 m 549 381 l 417 833 l 285 381 "},"Á":{"ha":833,"x_min":0,"x_max":0,"o":"m 331 986 l 503 986 l 801 0 l 658 0 l 583 258 l 250 258 l 175 0 l 32 0 m 549 381 l 417 833 l 285 381 m 453 1276 l 594 1276 l 468 1096 l 365 1096 "},"Ă":{"ha":833,"x_min":0,"x_max":0,"o":"m 331 986 l 503 986 l 801 0 l 658 0 l 583 258 l 250 258 l 175 0 l 32 0 m 315 1276 b 417 1188 315 1226 360 1188 b 519 1276 474 1188 518 1226 l 619 1276 b 417 1096 618 1175 531 1096 b 214 1276 303 1096 215 1175 m 549 381 l 417 833 l 285 381 "},"Ǎ":{"ha":833,"x_min":0,"x_max":0,"o":"m 331 986 l 503 986 l 801 0 l 658 0 l 583 258 l 250 258 l 175 0 l 32 0 m 342 1263 l 417 1157 l 492 1263 l 621 1263 l 500 1096 l 333 1096 l 214 1263 m 549 381 l 417 833 l 285 381 "},"Â":{"ha":833,"x_min":0,"x_max":0,"o":"m 331 986 l 503 986 l 801 0 l 658 0 l 583 258 l 250 258 l 175 0 l 32 0 m 332 1263 l 499 1263 l 619 1096 l 490 1096 l 415 1201 l 340 1096 l 213 1096 m 549 381 l 417 833 l 285 381 "},"Ä":{"ha":833,"x_min":0,"x_max":0,"o":"m 331 986 l 503 986 l 801 0 l 658 0 l 583 258 l 250 258 l 175 0 l 32 0 m 235 1236 l 382 1236 l 382 1090 l 235 1090 m 549 381 l 417 833 l 285 381 m 449 1236 l 596 1236 l 596 1090 l 449 1090 "},"À":{"ha":833,"x_min":0,"x_max":0,"o":"m 331 986 l 503 986 l 801 0 l 658 0 l 583 258 l 250 258 l 175 0 l 32 0 m 365 1276 l 471 1082 l 360 1082 l 215 1276 m 549 381 l 417 833 l 285 381 "},"Ā":{"ha":833,"x_min":0,"x_max":0,"o":"m 331 986 l 503 986 l 801 0 l 658 0 l 583 258 l 250 258 l 175 0 l 32 0 m 235 1215 l 599 1215 l 599 1115 l 235 1115 m 549 381 l 417 833 l 285 381 "},"Ą":{"ha":833,"x_min":0,"x_max":0,"o":"m 331 986 l 503 986 l 801 0 l 788 0 l 747 -57 b 704 -147 726 -85 704 -119 b 750 -193 704 -174 722 -193 b 836 -164 775 -193 806 -178 l 836 -261 b 725 -300 801 -290 763 -301 b 599 -181 656 -300 599 -249 b 653 -54 599 -136 615 -93 l 701 0 l 658 0 l 583 258 l 250 258 l 175 0 l 32 0 m 549 381 l 417 833 l 285 381 "},"Å":{"ha":833,"x_min":0,"x_max":0,"o":"m 331 986 l 503 986 l 801 0 l 658 0 l 583 258 l 250 258 l 175 0 l 32 0 m 271 1206 b 417 1351 271 1286 335 1351 b 561 1206 497 1351 561 1286 b 417 1061 561 1125 497 1061 b 271 1206 335 1061 271 1125 m 549 381 l 417 833 l 285 381 m 360 1206 b 417 1150 360 1175 383 1150 b 472 1206 449 1150 472 1175 b 417 1263 472 1238 449 1263 b 360 1206 383 1263 360 1238 "},"Ã":{"ha":833,"x_min":0,"x_max":0,"o":"m 331 986 l 503 986 l 801 0 l 658 0 l 583 258 l 250 258 l 175 0 l 32 0 m 181 1094 b 322 1281 182 1210 236 1281 b 422 1242 371 1281 399 1265 b 503 1189 451 1217 467 1189 b 556 1279 538 1189 556 1218 l 651 1279 b 510 1093 650 1167 596 1093 b 401 1139 454 1093 425 1114 b 331 1183 378 1163 361 1183 b 276 1094 294 1183 276 1157 l 181 1094 m 549 381 l 417 833 l 285 381 "},"Æ":{"ha":833,"x_min":0,"x_max":0,"o":"m 804 986 l 804 854 l 582 854 l 582 558 l 794 558 l 794 431 l 582 431 l 582 132 l 811 132 l 811 0 l 446 0 l 446 274 l 238 274 l 153 0 l 13 0 l 336 986 m 446 404 l 446 858 l 421 858 l 278 404 "},"B":{"ha":833,"x_min":0,"x_max":0,"o":"m 103 986 l 379 986 b 735 713 608 986 735 889 b 549 510 735 606 660 526 b 776 279 690 494 776 410 b 435 0 776 106 647 0 l 103 0 m 432 132 b 632 283 556 132 632 189 b 432 436 632 381 560 436 l 242 436 l 242 132 m 381 567 b 590 710 515 567 590 618 b 381 854 590 803 515 854 l 242 854 l 242 567 "},"C":{"ha":833,"x_min":0,"x_max":0,"o":"m 790 319 b 436 -22 753 108 624 -22 b 50 492 190 -22 50 176 b 436 1008 50 810 190 1008 b 783 688 613 1008 739 886 l 636 678 b 435 876 603 806 532 876 b 194 492 281 876 194 739 b 435 110 194 246 281 110 b 644 328 542 110 615 186 l 790 319 "},"Ć":{"ha":833,"x_min":0,"x_max":0,"o":"m 790 319 b 436 -22 753 108 624 -22 b 50 492 190 -22 50 176 b 436 1008 50 810 190 1008 b 783 688 613 1008 739 886 l 636 678 b 435 876 603 806 532 876 b 194 492 281 876 194 739 b 435 110 194 246 281 110 b 644 328 542 110 615 186 l 790 319 m 472 1276 l 614 1276 l 488 1096 l 385 1096 "},"Č":{"ha":833,"x_min":0,"x_max":0,"o":"m 790 319 b 436 -22 753 108 624 -22 b 50 492 190 -22 50 176 b 436 1008 50 810 190 1008 b 783 688 613 1008 739 886 l 636 678 b 435 876 603 806 532 876 b 194 492 281 876 194 739 b 435 110 194 246 281 110 b 644 328 542 110 615 186 l 790 319 m 363 1263 l 438 1157 l 513 1263 l 642 1263 l 521 1096 l 354 1096 l 235 1263 "},"Ç":{"ha":833,"x_min":0,"x_max":0,"o":"m 790 319 b 461 -21 754 118 635 -10 l 436 -49 b 571 -178 514 -49 571 -103 b 429 -312 571 -254 507 -312 b 257 -215 360 -312 313 -281 l 324 -154 b 422 -225 343 -179 375 -225 b 483 -168 458 -225 483 -203 b 382 -119 483 -125 436 -106 l 340 -65 l 382 -19 b 50 492 169 8 50 200 b 436 1008 50 810 190 1008 b 783 688 613 1008 739 886 l 636 678 b 435 876 603 806 532 876 b 194 492 281 876 194 739 b 435 110 194 246 281 110 b 644 328 542 110 615 186 l 790 319 "},"Ĉ":{"ha":833,"x_min":0,"x_max":0,"o":"m 790 319 b 436 -22 753 108 624 -22 b 50 492 190 -22 50 176 b 436 1008 50 810 190 1008 b 783 688 613 1008 739 886 l 636 678 b 435 876 603 806 532 876 b 194 492 281 876 194 739 b 435 110 194 246 281 110 b 644 328 542 110 615 186 l 790 319 m 353 1263 l 519 1263 l 640 1096 l 511 1096 l 436 1201 l 361 1096 l 233 1096 "},"Ċ":{"ha":833,"x_min":0,"x_max":0,"o":"m 790 319 b 436 -22 753 108 624 -22 b 50 492 190 -22 50 176 b 436 1008 50 810 190 1008 b 783 688 613 1008 739 886 l 636 678 b 435 876 603 806 532 876 b 194 492 281 876 194 739 b 435 110 194 246 281 110 b 644 328 542 110 615 186 l 790 319 m 361 1236 l 508 1236 l 508 1090 l 361 1090 "},"D":{"ha":833,"x_min":0,"x_max":0,"o":"m 349 986 b 796 492 625 986 796 807 b 357 0 796 178 629 0 l 99 0 l 99 986 l 349 986 m 349 132 b 650 492 542 132 650 251 b 349 854 650 735 542 854 l 236 854 l 236 132 "},"Ð":{"ha":833,"x_min":0,"x_max":0,"o":"m 153 547 l 153 986 l 403 986 b 850 492 679 986 850 807 b 411 0 850 178 683 0 l 153 0 l 153 438 l -12 438 l -12 547 m 403 132 b 704 492 596 132 704 251 b 403 854 704 735 596 854 l 290 854 l 290 547 l 436 547 l 436 438 l 290 438 l 290 132 "},"Ď":{"ha":833,"x_min":0,"x_max":0,"o":"m 349 986 b 796 492 625 986 796 807 b 357 0 796 178 629 0 l 99 0 l 99 986 l 349 986 m 346 1263 l 421 1157 l 496 1263 l 625 1263 l 504 1096 l 338 1096 l 218 1263 m 349 132 b 650 492 542 132 650 251 b 349 854 650 735 542 854 l 236 854 l 236 132 "},"Đ":{"ha":833,"x_min":0,"x_max":0,"o":"m 153 547 l 153 986 l 403 986 b 850 492 679 986 850 807 b 411 0 850 178 683 0 l 153 0 l 153 438 l -12 438 l -12 547 m 403 132 b 704 492 596 132 704 251 b 403 854 704 735 596 854 l 290 854 l 290 547 l 436 547 l 436 438 l 290 438 l 290 132 "},"E":{"ha":833,"x_min":0,"x_max":0,"o":"m 747 986 l 747 854 l 257 854 l 257 560 l 731 560 l 731 429 l 257 429 l 257 132 l 758 132 l 758 0 l 118 0 l 118 986 "},"É":{"ha":833,"x_min":0,"x_max":0,"o":"m 747 986 l 747 854 l 257 854 l 257 560 l 731 560 l 731 429 l 257 429 l 257 132 l 758 132 l 758 0 l 118 0 l 118 986 m 475 1278 l 617 1278 l 490 1097 l 388 1097 "},"Ě":{"ha":833,"x_min":0,"x_max":0,"o":"m 747 986 l 747 854 l 257 854 l 257 560 l 731 560 l 731 429 l 257 429 l 257 132 l 758 132 l 758 0 l 118 0 l 118 986 m 364 1264 l 439 1158 l 514 1264 l 643 1264 l 522 1097 l 356 1097 l 236 1264 "},"Ê":{"ha":833,"x_min":0,"x_max":0,"o":"m 747 986 l 747 854 l 257 854 l 257 560 l 731 560 l 731 429 l 257 429 l 257 132 l 758 132 l 758 0 l 118 0 l 118 986 m 356 1264 l 522 1264 l 643 1097 l 514 1097 l 439 1203 l 364 1097 l 236 1097 "},"Ë":{"ha":833,"x_min":0,"x_max":0,"o":"m 747 986 l 747 854 l 257 854 l 257 560 l 731 560 l 731 429 l 257 429 l 257 132 l 758 132 l 758 0 l 118 0 l 118 986 m 257 1238 l 404 1238 l 404 1092 l 257 1092 m 472 1238 l 619 1238 l 619 1092 l 472 1092 "},"Ė":{"ha":833,"x_min":0,"x_max":0,"o":"m 747 986 l 747 854 l 257 854 l 257 560 l 731 560 l 731 429 l 257 429 l 257 132 l 758 132 l 758 0 l 118 0 l 118 986 m 364 1238 l 511 1238 l 511 1092 l 364 1092 "},"È":{"ha":833,"x_min":0,"x_max":0,"o":"m 747 986 l 747 854 l 257 854 l 257 560 l 731 560 l 731 429 l 257 429 l 257 132 l 758 132 l 758 0 l 118 0 l 118 986 m 389 1278 l 494 1083 l 383 1083 l 239 1278 "},"Ē":{"ha":833,"x_min":0,"x_max":0,"o":"m 747 986 l 747 854 l 257 854 l 257 560 l 731 560 l 731 429 l 257 429 l 257 132 l 758 132 l 758 0 l 118 0 l 118 986 m 257 1217 l 621 1217 l 621 1117 l 257 1117 "},"Ę":{"ha":833,"x_min":0,"x_max":0,"o":"m 747 986 l 747 854 l 257 854 l 257 560 l 731 560 l 731 429 l 257 429 l 257 132 l 758 132 l 758 0 l 744 0 l 704 -57 b 661 -147 683 -85 661 -119 b 707 -193 661 -174 679 -193 b 793 -164 732 -193 763 -178 l 793 -261 b 682 -300 758 -290 719 -301 b 556 -181 613 -300 556 -249 b 610 -54 556 -136 572 -93 l 658 0 l 118 0 l 118 986 "},"Ẽ":{"ha":833,"x_min":0,"x_max":0,"o":"m 747 986 l 747 854 l 257 854 l 257 560 l 731 560 l 731 429 l 257 429 l 257 132 l 758 132 l 758 0 l 118 0 l 118 986 m 204 1096 b 346 1282 206 1211 260 1282 b 446 1243 394 1282 422 1267 b 526 1190 475 1218 490 1190 b 579 1281 561 1190 579 1219 l 675 1281 b 533 1094 674 1168 619 1094 b 425 1140 478 1094 449 1115 b 354 1185 401 1164 385 1185 b 300 1096 318 1185 300 1158 l 204 1096 "},"Ə":{"ha":833,"x_min":0,"x_max":0,"o":"m 647 549 b 407 876 635 742 542 876 b 210 692 313 876 238 800 l 64 708 b 407 1008 118 890 247 1008 b 794 493 642 1008 794 797 b 407 -22 794 200 632 -22 b 40 476 192 -22 46 182 l 39 549 l 647 549 m 190 417 b 407 110 213 221 288 110 b 646 417 536 110 618 221 l 190 417 "},"Ʒ":{"ha":833,"x_min":0,"x_max":0,"o":"m 58 276 b 392 110 160 175 289 110 b 621 282 528 110 621 181 b 394 457 621 388 529 460 l 319 456 l 319 585 l 581 854 l 60 854 l 60 986 l 751 986 l 751 833 l 496 574 b 767 282 657 553 767 433 b 392 -22 767 103 615 -22 b 58 115 268 -22 140 31 l 58 276 "},"Ǯ":{"ha":833,"x_min":0,"x_max":0,"o":"m 58 276 b 392 110 160 175 289 110 b 621 282 528 110 621 181 b 394 457 621 388 529 460 l 319 456 l 319 585 l 581 854 l 60 854 l 60 986 l 751 986 l 751 833 l 496 574 b 767 282 657 553 767 433 b 392 -22 767 103 615 -22 b 58 115 268 -22 140 31 l 58 276 m 329 1263 l 404 1157 l 479 1263 l 608 1263 l 488 1096 l 321 1096 l 201 1263 "},"F":{"ha":833,"x_min":0,"x_max":0,"o":"m 742 986 l 742 854 l 267 854 l 267 547 l 717 547 l 717 418 l 267 418 l 267 0 l 126 0 l 126 986 "},"G":{"ha":833,"x_min":0,"x_max":0,"o":"m 685 0 l 668 135 b 425 -22 624 39 531 -22 b 47 492 194 -22 47 178 b 425 1008 47 807 194 1008 b 778 690 597 1008 733 882 l 633 681 b 426 876 603 799 524 876 b 192 492 275 876 192 736 b 426 110 192 249 275 110 b 642 375 549 110 632 225 l 424 375 l 424 503 l 775 503 l 775 0 "},"Ğ":{"ha":833,"x_min":0,"x_max":0,"o":"m 685 0 l 668 135 b 425 -22 624 39 531 -22 b 47 492 194 -22 47 178 b 425 1008 47 807 194 1008 b 778 690 597 1008 733 882 l 633 681 b 426 876 603 799 524 876 b 192 492 275 876 192 736 b 426 110 192 249 275 110 b 642 375 549 110 632 225 l 424 375 l 424 503 l 775 503 l 775 0 m 315 1276 b 417 1188 315 1226 360 1188 b 519 1276 474 1188 518 1226 l 619 1276 b 417 1096 618 1175 531 1096 b 214 1276 303 1096 215 1175 "},"Ǧ":{"ha":833,"x_min":0,"x_max":0,"o":"m 685 0 l 668 135 b 425 -22 624 39 531 -22 b 47 492 194 -22 47 178 b 425 1008 47 807 194 1008 b 778 690 597 1008 733 882 l 633 681 b 426 876 603 799 524 876 b 192 492 275 876 192 736 b 426 110 192 249 275 110 b 642 375 549 110 632 225 l 424 375 l 424 503 l 775 503 l 775 0 m 343 1263 l 418 1157 l 493 1263 l 622 1263 l 501 1096 l 335 1096 l 215 1263 "},"Ĝ":{"ha":833,"x_min":0,"x_max":0,"o":"m 685 0 l 668 135 b 425 -22 624 39 531 -22 b 47 492 194 -22 47 178 b 425 1008 47 807 194 1008 b 778 690 597 1008 733 882 l 633 681 b 426 876 603 799 524 876 b 192 492 275 876 192 736 b 426 110 192 249 275 110 b 642 375 549 110 632 225 l 424 375 l 424 503 l 775 503 l 775 0 m 333 1263 l 500 1263 l 621 1096 l 492 1096 l 417 1201 l 342 1096 l 214 1096 "},"Ģ":{"ha":833,"x_min":0,"x_max":0,"o":"m 685 0 l 668 135 b 425 -22 624 39 531 -22 b 47 492 194 -22 47 178 b 425 1008 47 807 194 1008 b 778 690 597 1008 733 882 l 633 681 b 426 876 603 799 524 876 b 192 492 275 876 192 736 b 426 110 192 249 275 110 b 642 375 549 110 632 225 l 424 375 l 424 503 l 775 503 l 775 0 m 350 -83 l 492 -83 l 365 -264 l 263 -264 "},"Ġ":{"ha":833,"x_min":0,"x_max":0,"o":"m 685 0 l 668 135 b 425 -22 624 39 531 -22 b 47 492 194 -22 47 178 b 425 1008 47 807 194 1008 b 778 690 597 1008 733 882 l 633 681 b 426 876 603 799 524 876 b 192 492 275 876 192 736 b 426 110 192 249 275 110 b 642 375 549 110 632 225 l 424 375 l 424 503 l 775 503 l 775 0 m 343 1236 l 490 1236 l 490 1090 l 343 1090 "},"Ḡ":{"ha":833,"x_min":0,"x_max":0,"o":"m 685 0 l 668 135 b 425 -22 624 39 531 -22 b 47 492 194 -22 47 178 b 425 1008 47 807 194 1008 b 778 690 597 1008 733 882 l 633 681 b 426 876 603 799 524 876 b 192 492 275 876 192 736 b 426 110 192 249 275 110 b 642 375 549 110 632 225 l 424 375 l 424 503 l 775 503 l 775 0 m 236 1215 l 600 1215 l 600 1115 l 236 1115 "},"Ǥ":{"ha":833,"x_min":0,"x_max":0,"o":"m 789 503 l 789 443 b 778 311 789 396 785 351 l 821 311 l 821 208 l 750 208 b 418 -22 693 61 576 -22 b 26 492 188 -22 26 203 b 418 1008 26 782 186 1008 b 783 690 603 1008 739 879 l 638 681 b 418 876 607 799 525 876 b 172 492 260 876 172 700 b 418 110 172 285 261 110 b 600 208 499 110 563 146 l 417 208 l 417 311 l 638 311 b 643 381 642 333 643 356 l 417 381 l 417 503 "},"H":{"ha":833,"x_min":0,"x_max":0,"o":"m 90 986 l 228 986 l 228 561 l 606 561 l 606 986 l 743 986 l 743 0 l 606 0 l 606 429 l 228 429 l 228 0 l 90 0 "},"Ħ":{"ha":833,"x_min":0,"x_max":0,"o":"m 260 986 l 260 849 l 574 849 l 574 986 l 711 986 l 711 849 l 801 849 l 801 717 l 711 717 l 711 0 l 574 0 l 574 415 l 260 415 l 260 0 l 122 0 l 122 717 l 32 717 l 32 849 l 122 849 l 122 986 m 574 547 l 574 717 l 260 717 l 260 547 "},"Ĥ":{"ha":833,"x_min":0,"x_max":0,"o":"m 90 986 l 228 986 l 228 561 l 606 561 l 606 986 l 743 986 l 743 0 l 606 0 l 606 429 l 228 429 l 228 0 l 90 0 m 332 1263 l 499 1263 l 619 1096 l 490 1096 l 415 1201 l 340 1096 l 213 1096 "},"I":{"ha":833,"x_min":0,"x_max":0,"o":"m 708 854 l 486 854 l 486 132 l 715 132 l 715 0 l 118 0 l 118 132 l 347 132 l 347 854 l 125 854 l 125 986 l 708 986 "},"Í":{"ha":833,"x_min":0,"x_max":0,"o":"m 708 854 l 486 854 l 486 132 l 715 132 l 715 0 l 118 0 l 118 132 l 347 132 l 347 854 l 125 854 l 125 986 l 708 986 m 453 1276 l 594 1276 l 468 1096 l 365 1096 "},"Î":{"ha":833,"x_min":0,"x_max":0,"o":"m 708 854 l 486 854 l 486 132 l 715 132 l 715 0 l 118 0 l 118 132 l 347 132 l 347 854 l 125 854 l 125 986 l 708 986 m 332 1263 l 499 1263 l 619 1096 l 490 1096 l 415 1201 l 340 1096 l 213 1096 "},"Ï":{"ha":833,"x_min":0,"x_max":0,"o":"m 708 854 l 486 854 l 486 132 l 715 132 l 715 0 l 118 0 l 118 132 l 347 132 l 347 854 l 125 854 l 125 986 l 708 986 m 235 1236 l 382 1236 l 382 1090 l 235 1090 m 449 1236 l 596 1236 l 596 1090 l 449 1090 "},"İ":{"ha":833,"x_min":0,"x_max":0,"o":"m 708 854 l 486 854 l 486 132 l 715 132 l 715 0 l 118 0 l 118 132 l 347 132 l 347 854 l 125 854 l 125 986 l 708 986 m 342 1236 l 489 1236 l 489 1090 l 342 1090 "},"Ì":{"ha":833,"x_min":0,"x_max":0,"o":"m 708 854 l 486 854 l 486 132 l 715 132 l 715 0 l 118 0 l 118 132 l 347 132 l 347 854 l 125 854 l 125 986 l 708 986 m 365 1276 l 471 1082 l 360 1082 l 215 1276 "},"Ī":{"ha":833,"x_min":0,"x_max":0,"o":"m 708 854 l 486 854 l 486 132 l 715 132 l 715 0 l 118 0 l 118 132 l 347 132 l 347 854 l 125 854 l 125 986 l 708 986 m 235 1215 l 599 1215 l 599 1115 l 235 1115 "},"Į":{"ha":833,"x_min":0,"x_max":0,"o":"m 708 854 l 486 854 l 486 132 l 715 132 l 715 0 l 675 -57 b 632 -147 654 -85 632 -119 b 678 -193 632 -174 650 -193 b 764 -164 703 -193 733 -178 l 764 -261 b 653 -300 729 -290 690 -301 b 526 -181 583 -300 526 -249 b 581 -54 526 -136 543 -93 l 629 0 l 118 0 l 118 132 l 347 132 l 347 854 l 125 854 l 125 986 l 708 986 "},"Ĩ":{"ha":833,"x_min":0,"x_max":0,"o":"m 708 854 l 486 854 l 486 132 l 715 132 l 715 0 l 118 0 l 118 132 l 347 132 l 347 854 l 125 854 l 125 986 l 708 986 m 181 1094 b 322 1281 182 1210 236 1281 b 422 1242 371 1281 399 1265 b 503 1189 451 1217 467 1189 b 556 1279 538 1189 556 1218 l 651 1279 b 510 1093 650 1167 596 1093 b 401 1139 454 1093 425 1114 b 331 1183 378 1163 361 1183 b 276 1094 294 1183 276 1157 l 181 1094 "},"J":{"ha":833,"x_min":0,"x_max":0,"o":"m 189 340 b 378 110 190 192 256 110 b 571 346 508 110 571 193 l 571 986 l 710 986 l 710 346 b 378 -22 710 118 588 -22 b 47 329 178 -22 49 121 l 189 340 "},"Ĵ":{"ha":833,"x_min":0,"x_max":0,"o":"m 189 340 b 378 110 190 192 256 110 b 571 346 508 110 571 193 l 571 986 l 710 986 l 710 346 b 378 -22 710 118 588 -22 b 47 329 178 -22 49 121 l 189 340 m 556 1263 l 722 1263 l 843 1096 l 714 1096 l 639 1201 l 564 1096 l 436 1096 "},"K":{"ha":833,"x_min":0,"x_max":0,"o":"m 210 986 l 210 574 l 596 986 l 771 986 l 388 564 l 796 0 l 628 0 l 292 464 l 210 379 l 210 0 l 71 0 l 71 986 "},"Ǩ":{"ha":833,"x_min":0,"x_max":0,"o":"m 210 986 l 210 574 l 596 986 l 771 986 l 388 564 l 796 0 l 628 0 l 292 464 l 210 379 l 210 0 l 71 0 l 71 986 m 324 1263 l 399 1157 l 474 1263 l 603 1263 l 482 1096 l 315 1096 l 196 1263 "},"Ķ":{"ha":833,"x_min":0,"x_max":0,"o":"m 210 986 l 210 574 l 596 986 l 771 986 l 388 564 l 796 0 l 628 0 l 292 464 l 210 379 l 210 0 l 71 0 l 71 986 m 332 -83 l 474 -83 l 347 -264 l 244 -264 "},"L":{"ha":833,"x_min":0,"x_max":0,"o":"m 124 986 l 261 986 l 261 132 l 768 132 l 768 0 l 124 0 "},"Ĺ":{"ha":833,"x_min":0,"x_max":0,"o":"m 124 986 l 261 986 l 261 132 l 768 132 l 768 0 l 124 0 m 228 1276 l 369 1276 l 243 1096 l 140 1096 "},"Ľ":{"ha":833,"x_min":0,"x_max":0,"o":"m 124 986 l 261 986 l 261 132 l 768 132 l 768 0 l 124 0 m 417 1026 l 567 1026 l 422 832 l 311 832 "},"Ļ":{"ha":833,"x_min":0,"x_max":0,"o":"m 124 986 l 261 986 l 261 132 l 768 132 l 768 0 l 124 0 m 379 -83 l 521 -83 l 394 -264 l 292 -264 "},"Ł":{"ha":833,"x_min":0,"x_max":0,"o":"m 147 600 l 147 986 l 285 986 l 285 664 l 413 724 l 465 610 l 285 526 l 285 132 l 792 132 l 792 0 l 147 0 l 147 463 l 11 399 l -42 513 "},"M":{"ha":833,"x_min":0,"x_max":0,"o":"m 290 986 l 417 313 l 543 986 l 753 986 l 753 0 l 614 0 l 614 808 l 472 69 l 361 69 l 219 808 l 219 0 l 81 0 l 81 986 "},"N":{"ha":833,"x_min":0,"x_max":0,"o":"m 283 986 l 593 201 l 593 986 l 732 986 l 732 0 l 538 0 l 240 756 l 240 0 l 101 0 l 101 986 "},"Ń":{"ha":833,"x_min":0,"x_max":0,"o":"m 283 986 l 593 201 l 593 986 l 732 986 l 732 0 l 538 0 l 240 756 l 240 0 l 101 0 l 101 986 m 467 1276 l 608 1276 l 482 1096 l 379 1096 "},"Ň":{"ha":833,"x_min":0,"x_max":0,"o":"m 283 986 l 593 201 l 593 986 l 732 986 l 732 0 l 538 0 l 240 756 l 240 0 l 101 0 l 101 986 m 357 1263 l 432 1157 l 507 1263 l 636 1263 l 515 1096 l 349 1096 l 229 1263 "},"Ņ":{"ha":833,"x_min":0,"x_max":0,"o":"m 283 986 l 593 201 l 593 986 l 732 986 l 732 0 l 538 0 l 240 756 l 240 0 l 101 0 l 101 986 m 378 -83 l 519 -83 l 393 -264 l 290 -264 "},"Ñ":{"ha":833,"x_min":0,"x_max":0,"o":"m 283 986 l 593 201 l 593 986 l 732 986 l 732 0 l 538 0 l 240 756 l 240 0 l 101 0 l 101 986 m 196 1094 b 338 1281 197 1210 251 1281 b 438 1242 386 1281 414 1265 b 518 1189 467 1217 482 1189 b 571 1279 553 1189 571 1218 l 667 1279 b 525 1093 665 1167 611 1093 b 417 1139 469 1093 440 1114 b 346 1183 393 1163 376 1183 b 292 1094 310 1183 292 1157 l 196 1094 "},"Ŋ":{"ha":833,"x_min":0,"x_max":0,"o":"m 283 986 l 593 201 l 593 986 l 732 986 l 732 -8 b 522 -208 732 -131 650 -208 l 376 -208 l 376 -85 l 507 -85 b 593 -8 564 -85 593 -60 l 593 0 l 538 0 l 240 756 l 240 0 l 101 0 l 101 986 "},"O":{"ha":833,"x_min":0,"x_max":0,"o":"m 417 -22 b 50 492 182 -22 50 167 b 417 1008 50 819 182 1008 b 783 492 651 1008 783 819 b 417 -22 783 167 651 -22 m 196 492 b 417 110 196 246 274 110 b 638 492 560 110 638 246 b 417 876 638 739 560 876 b 196 492 274 876 196 739 "},"Ó":{"ha":833,"x_min":0,"x_max":0,"o":"m 417 -22 b 50 492 182 -22 50 167 b 417 1008 50 819 182 1008 b 783 492 651 1008 783 819 b 417 -22 783 167 651 -22 m 196 492 b 417 110 196 246 274 110 b 638 492 560 110 638 246 b 417 876 638 739 560 876 b 196 492 274 876 196 739 m 453 1276 l 594 1276 l 468 1096 l 365 1096 "},"Ô":{"ha":833,"x_min":0,"x_max":0,"o":"m 417 -22 b 50 492 182 -22 50 167 b 417 1008 50 819 182 1008 b 783 492 651 1008 783 819 b 417 -22 783 167 651 -22 m 196 492 b 417 110 196 246 274 110 b 638 492 560 110 638 246 b 417 876 638 739 560 876 b 196 492 274 876 196 739 m 332 1263 l 499 1263 l 619 1096 l 490 1096 l 415 1201 l 340 1096 l 213 1096 "},"Ö":{"ha":833,"x_min":0,"x_max":0,"o":"m 417 -22 b 50 492 182 -22 50 167 b 417 1008 50 819 182 1008 b 783 492 651 1008 783 819 b 417 -22 783 167 651 -22 m 196 492 b 417 110 196 246 274 110 b 638 492 560 110 638 246 b 417 876 638 739 560 876 b 196 492 274 876 196 739 m 235 1236 l 382 1236 l 382 1090 l 235 1090 m 449 1236 l 596 1236 l 596 1090 l 449 1090 "},"Ò":{"ha":833,"x_min":0,"x_max":0,"o":"m 417 -22 b 50 492 182 -22 50 167 b 417 1008 50 819 182 1008 b 783 492 651 1008 783 819 b 417 -22 783 167 651 -22 m 196 492 b 417 110 196 246 274 110 b 638 492 560 110 638 246 b 417 876 638 739 560 876 b 196 492 274 876 196 739 m 365 1276 l 471 1082 l 360 1082 l 215 1276 "},"Ő":{"ha":833,"x_min":0,"x_max":0,"o":"m 417 -22 b 50 492 182 -22 50 167 b 417 1008 50 819 182 1008 b 783 492 651 1008 783 819 b 417 -22 783 167 651 -22 m 196 492 b 417 110 196 246 274 110 b 638 492 560 110 638 246 b 417 876 638 739 560 876 b 196 492 274 876 196 739 m 344 1276 l 486 1276 l 360 1096 l 257 1096 m 526 1276 l 668 1276 l 542 1096 l 439 1096 "},"Ō":{"ha":833,"x_min":0,"x_max":0,"o":"m 417 -22 b 50 492 182 -22 50 167 b 417 1008 50 819 182 1008 b 783 492 651 1008 783 819 b 417 -22 783 167 651 -22 m 196 492 b 417 110 196 246 274 110 b 638 492 560 110 638 246 b 417 876 638 739 560 876 b 196 492 274 876 196 739 m 235 1215 l 599 1215 l 599 1115 l 235 1115 "},"Ø":{"ha":833,"x_min":0,"x_max":0,"o":"m 417 -22 b 217 39 338 -22 271 -1 l 181 -22 l 50 -22 l 136 126 b 50 492 79 214 50 338 b 417 1008 50 819 182 1008 b 615 949 494 1008 561 988 l 650 1008 l 781 1008 l 696 863 b 783 492 753 774 783 649 b 417 -22 783 167 651 -22 m 196 492 b 224 276 196 406 206 333 l 543 826 b 417 876 510 860 468 876 b 196 492 274 876 196 739 m 288 163 b 417 110 322 128 365 110 b 638 492 560 110 638 246 b 608 713 638 579 628 654 l 288 163 "},"Õ":{"ha":833,"x_min":0,"x_max":0,"o":"m 417 -22 b 50 492 182 -22 50 167 b 417 1008 50 819 182 1008 b 783 492 651 1008 783 819 b 417 -22 783 167 651 -22 m 181 1094 b 322 1281 182 1210 236 1281 b 422 1242 371 1281 399 1265 b 503 1189 451 1217 467 1189 b 556 1279 538 1189 556 1218 l 651 1279 b 510 1093 650 1167 596 1093 b 401 1139 454 1093 425 1114 b 331 1183 378 1163 361 1183 b 276 1094 294 1183 276 1157 l 181 1094 m 196 492 b 417 110 196 246 274 110 b 638 492 560 110 638 246 b 417 876 638 739 560 876 b 196 492 274 876 196 739 "},"Œ":{"ha":833,"x_min":0,"x_max":0,"o":"m 815 854 l 594 854 l 594 558 l 806 558 l 806 431 l 594 431 l 594 132 l 822 132 l 822 0 l 458 0 l 458 44 b 299 -22 415 1 361 -22 b 10 492 117 -22 10 175 b 299 1008 10 811 117 1008 b 458 942 361 1008 415 985 l 458 986 l 815 986 m 151 492 b 299 110 151 251 190 110 b 446 492 407 110 446 251 b 299 876 446 735 407 876 b 151 492 190 876 151 735 "},"P":{"ha":833,"x_min":0,"x_max":0,"o":"m 428 986 b 776 682 644 986 776 869 b 428 372 776 490 644 372 l 257 372 l 257 0 l 119 0 l 119 986 l 428 986 m 421 504 b 631 682 560 504 631 565 b 421 854 631 794 560 854 l 257 854 l 257 504 "},"Þ":{"ha":833,"x_min":0,"x_max":0,"o":"m 118 0 l 118 986 l 257 986 l 257 810 l 440 810 b 790 511 660 810 790 697 b 440 206 790 319 660 206 l 257 206 l 257 0 m 439 338 b 644 511 575 338 644 396 b 439 678 644 621 575 678 l 257 678 l 257 338 "},"Q":{"ha":833,"x_min":0,"x_max":0,"o":"m 417 -22 b 50 492 182 -22 50 167 b 417 1008 50 819 182 1008 b 783 492 651 1008 783 819 b 650 67 783 299 736 153 l 758 -96 l 617 -96 l 551 3 b 417 -22 511 -14 467 -22 m 196 492 b 417 110 196 246 274 110 b 474 118 438 110 456 113 l 360 289 l 501 289 l 568 189 b 638 492 614 253 638 356 b 417 876 638 739 560 876 b 196 492 274 876 196 739 "},"R":{"ha":833,"x_min":0,"x_max":0,"o":"m 413 986 b 751 688 621 986 751 871 b 592 457 751 574 678 485 b 736 286 685 439 726 388 l 763 0 l 622 0 l 597 272 b 403 388 590 358 535 388 l 235 388 l 235 0 l 97 0 l 97 986 l 413 986 m 411 519 b 606 686 535 519 606 579 b 411 854 606 792 535 854 l 235 854 l 235 519 "},"Ŕ":{"ha":833,"x_min":0,"x_max":0,"o":"m 413 986 b 751 688 621 986 751 871 b 592 457 751 574 678 485 b 736 286 685 439 726 388 l 763 0 l 622 0 l 597 272 b 403 388 590 358 535 388 l 235 388 l 235 0 l 97 0 l 97 986 l 413 986 m 411 519 b 606 686 535 519 606 579 b 411 854 606 792 535 854 l 235 854 l 235 519 m 436 1276 l 578 1276 l 451 1096 l 349 1096 "},"Ř":{"ha":833,"x_min":0,"x_max":0,"o":"m 413 986 b 751 688 621 986 751 871 b 592 457 751 574 678 485 b 736 286 685 439 726 388 l 763 0 l 622 0 l 597 272 b 403 388 590 358 535 388 l 235 388 l 235 0 l 97 0 l 97 986 l 413 986 m 325 1263 l 400 1157 l 475 1263 l 604 1263 l 483 1096 l 317 1096 l 197 1263 m 411 519 b 606 686 535 519 606 579 b 411 854 606 792 535 854 l 235 854 l 235 519 "},"Ŗ":{"ha":833,"x_min":0,"x_max":0,"o":"m 413 986 b 751 688 621 986 751 871 b 592 457 751 574 678 485 b 736 286 685 439 726 388 l 763 0 l 622 0 l 597 272 b 403 388 590 358 535 388 l 235 388 l 235 0 l 97 0 l 97 986 l 413 986 m 411 519 b 606 686 535 519 606 579 b 411 854 606 792 535 854 l 235 854 l 235 519 m 375 -83 l 517 -83 l 390 -264 l 288 -264 "},"S":{"ha":833,"x_min":0,"x_max":0,"o":"m 206 328 b 450 115 229 200 315 115 b 631 256 556 115 632 164 b 381 450 631 349 551 404 b 83 731 224 490 83 572 b 399 1008 83 901 217 1008 b 757 692 596 1008 735 876 l 613 683 b 396 876 596 800 510 876 b 226 729 300 876 225 819 b 463 558 228 619 346 589 b 774 267 633 511 774 418 b 442 -17 774 82 613 -17 b 63 318 235 -17 78 115 l 206 328 "},"Ś":{"ha":833,"x_min":0,"x_max":0,"o":"m 206 328 b 450 115 229 200 315 115 b 631 256 556 115 632 164 b 381 450 631 349 551 404 b 83 731 224 490 83 572 b 399 1008 83 901 217 1008 b 757 692 596 1008 735 876 l 613 683 b 396 876 596 800 510 876 b 226 729 300 876 225 819 b 463 558 228 619 346 589 b 774 267 633 511 774 418 b 442 -17 774 82 613 -17 b 63 318 235 -17 78 115 l 206 328 m 453 1276 l 594 1276 l 468 1096 l 365 1096 "},"Ꞌ":{"ha":833,"x_min":0,"x_max":0,"o":"m 483 986 l 483 793 l 464 518 l 369 518 l 350 793 l 350 986 "},"Š":{"ha":833,"x_min":0,"x_max":0,"o":"m 206 328 b 450 115 229 200 315 115 b 631 256 556 115 632 164 b 381 450 631 349 551 404 b 83 731 224 490 83 572 b 399 1008 83 901 217 1008 b 757 692 596 1008 735 876 l 613 683 b 396 876 596 800 510 876 b 226 729 300 876 225 819 b 463 558 228 619 346 589 b 774 267 633 511 774 418 b 442 -17 774 82 613 -17 b 63 318 235 -17 78 115 l 206 328 m 343 1263 l 418 1157 l 493 1263 l 622 1263 l 501 1096 l 335 1096 l 215 1263 "},"Ş":{"ha":833,"x_min":0,"x_max":0,"o":"m 206 328 b 450 115 229 200 315 115 b 631 256 556 115 632 164 b 381 450 631 349 551 404 b 83 731 224 490 83 572 b 399 1008 83 901 217 1008 b 757 692 596 1008 735 876 l 613 683 b 396 876 596 800 510 876 b 226 729 300 876 225 819 b 463 558 228 619 346 589 b 774 267 633 511 774 418 b 447 -17 774 85 617 -14 l 418 -49 b 553 -178 496 -49 553 -103 b 411 -312 553 -254 489 -312 b 239 -215 342 -312 294 -281 l 306 -154 b 404 -225 325 -179 357 -225 b 465 -168 440 -225 465 -203 b 364 -119 465 -125 418 -106 l 322 -65 l 371 -11 b 63 318 200 15 76 139 l 206 328 "},"Ŝ":{"ha":833,"x_min":0,"x_max":0,"o":"m 206 328 b 450 115 229 200 315 115 b 631 256 556 115 632 164 b 381 450 631 349 551 404 b 83 731 224 490 83 572 b 399 1008 83 901 217 1008 b 757 692 596 1008 735 876 l 613 683 b 396 876 596 800 510 876 b 226 729 300 876 225 819 b 463 558 228 619 346 589 b 774 267 633 511 774 418 b 442 -17 774 82 613 -17 b 63 318 235 -17 78 115 l 206 328 m 333 1263 l 500 1263 l 621 1096 l 492 1096 l 417 1201 l 342 1096 l 214 1096 "},"Ș":{"ha":833,"x_min":0,"x_max":0,"o":"m 206 328 b 450 115 229 200 315 115 b 631 256 556 115 632 164 b 381 450 631 349 551 404 b 83 731 224 490 83 572 b 399 1008 83 901 217 1008 b 757 692 596 1008 735 876 l 613 683 b 396 876 596 800 510 876 b 226 729 300 876 225 819 b 463 558 228 619 346 589 b 774 267 633 511 774 418 b 442 -17 774 82 613 -17 b 63 318 235 -17 78 115 l 206 328 m 351 -83 l 493 -83 l 367 -264 l 264 -264 "},"ẞ":{"ha":833,"x_min":0,"x_max":0,"o":"m 446 132 b 660 301 578 132 660 199 b 422 476 660 413 568 478 l 286 475 l 286 606 l 565 854 l 333 854 b 182 688 236 854 182 796 l 182 0 l 43 0 l 43 688 b 333 986 43 874 153 986 l 742 986 l 742 839 l 456 588 b 801 306 663 585 801 472 b 446 0 801 124 665 0 l 272 0 l 272 132 l 446 132 "},"T":{"ha":833,"x_min":0,"x_max":0,"o":"m 778 854 l 486 854 l 486 0 l 347 0 l 347 854 l 56 854 l 56 986 l 778 986 "},"Ŧ":{"ha":833,"x_min":0,"x_max":0,"o":"m 778 854 l 486 854 l 486 528 l 668 528 l 668 418 l 486 418 l 486 0 l 347 0 l 347 418 l 164 418 l 164 528 l 347 528 l 347 854 l 56 854 l 56 986 l 778 986 "},"Ť":{"ha":833,"x_min":0,"x_max":0,"o":"m 778 854 l 486 854 l 486 0 l 347 0 l 347 854 l 56 854 l 56 986 l 778 986 m 342 1263 l 417 1157 l 492 1263 l 621 1263 l 500 1096 l 333 1096 l 214 1263 "},"Ţ":{"ha":833,"x_min":0,"x_max":0,"o":"m 778 854 l 486 854 l 486 0 l 461 0 l 415 -49 b 550 -178 493 -49 550 -103 b 408 -312 550 -254 486 -312 b 236 -215 339 -312 292 -281 l 303 -154 b 401 -225 322 -179 354 -225 b 463 -168 438 -225 463 -203 b 361 -119 463 -125 415 -106 l 319 -65 l 379 0 l 347 0 l 347 854 l 56 854 l 56 986 l 778 986 "},"Ț":{"ha":833,"x_min":0,"x_max":0,"o":"m 778 854 l 486 854 l 486 0 l 347 0 l 347 854 l 56 854 l 56 986 l 778 986 m 350 -83 l 492 -83 l 365 -264 l 263 -264 "},"U":{"ha":833,"x_min":0,"x_max":0,"o":"m 751 346 b 417 -22 751 118 629 -22 b 82 346 204 -22 82 118 l 82 988 l 221 988 l 221 342 b 417 110 221 193 286 110 b 613 342 547 110 613 193 l 613 988 l 751 988 l 751 346 "},"Ú":{"ha":833,"x_min":0,"x_max":0,"o":"m 751 346 b 417 -22 751 118 629 -22 b 82 346 204 -22 82 118 l 82 988 l 221 988 l 221 342 b 417 110 221 193 286 110 b 613 342 547 110 613 193 l 613 988 l 751 988 l 751 346 m 453 1276 l 594 1276 l 468 1096 l 365 1096 "},"Ŭ":{"ha":833,"x_min":0,"x_max":0,"o":"m 751 346 b 417 -22 751 118 629 -22 b 82 346 204 -22 82 118 l 82 988 l 221 988 l 221 342 b 417 110 221 193 286 110 b 613 342 547 110 613 193 l 613 988 l 751 988 l 751 346 m 315 1276 b 417 1188 315 1226 360 1188 b 519 1276 474 1188 518 1226 l 619 1276 b 417 1096 618 1175 531 1096 b 214 1276 303 1096 215 1175 "},"Û":{"ha":833,"x_min":0,"x_max":0,"o":"m 751 346 b 417 -22 751 118 629 -22 b 82 346 204 -22 82 118 l 82 988 l 221 988 l 221 342 b 417 110 221 193 286 110 b 613 342 547 110 613 193 l 613 988 l 751 988 l 751 346 m 332 1263 l 499 1263 l 619 1096 l 490 1096 l 415 1201 l 340 1096 l 213 1096 "},"Ü":{"ha":833,"x_min":0,"x_max":0,"o":"m 751 346 b 417 -22 751 118 629 -22 b 82 346 204 -22 82 118 l 82 988 l 221 988 l 221 342 b 417 110 221 193 286 110 b 613 342 547 110 613 193 l 613 988 l 751 988 l 751 346 m 235 1236 l 382 1236 l 382 1090 l 235 1090 m 449 1236 l 596 1236 l 596 1090 l 449 1090 "},"Ù":{"ha":833,"x_min":0,"x_max":0,"o":"m 751 346 b 417 -22 751 118 629 -22 b 82 346 204 -22 82 118 l 82 988 l 221 988 l 221 342 b 417 110 221 193 286 110 b 613 342 547 110 613 193 l 613 988 l 751 988 l 751 346 m 365 1276 l 471 1082 l 360 1082 l 215 1276 "},"Ű":{"ha":833,"x_min":0,"x_max":0,"o":"m 751 346 b 417 -22 751 118 629 -22 b 82 346 204 -22 82 118 l 82 988 l 221 988 l 221 342 b 417 110 221 193 286 110 b 613 342 547 110 613 193 l 613 988 l 751 988 l 751 346 m 344 1276 l 486 1276 l 360 1096 l 257 1096 m 526 1276 l 668 1276 l 542 1096 l 439 1096 "},"Ū":{"ha":833,"x_min":0,"x_max":0,"o":"m 751 346 b 417 -22 751 118 629 -22 b 82 346 204 -22 82 118 l 82 988 l 221 988 l 221 342 b 417 110 221 193 286 110 b 613 342 547 110 613 193 l 613 988 l 751 988 l 751 346 m 235 1215 l 599 1215 l 599 1115 l 235 1115 "},"Ų":{"ha":833,"x_min":0,"x_max":0,"o":"m 751 346 b 546 -1 751 169 678 46 l 507 -57 b 464 -147 486 -85 464 -119 b 510 -193 464 -174 482 -193 b 596 -164 535 -193 565 -178 l 596 -261 b 485 -300 561 -290 522 -301 b 358 -181 415 -300 358 -249 b 413 -54 358 -136 375 -93 l 442 -22 l 417 -22 b 82 346 204 -22 82 118 l 82 988 l 221 988 l 221 342 b 417 110 221 193 286 110 b 613 342 547 110 613 193 l 613 988 l 751 988 l 751 346 "},"Ů":{"ha":833,"x_min":0,"x_max":0,"o":"m 751 346 b 417 -22 751 118 629 -22 b 82 346 204 -22 82 118 l 82 988 l 221 988 l 221 342 b 417 110 221 193 286 110 b 613 342 547 110 613 193 l 613 988 l 751 988 l 751 346 m 271 1206 b 417 1351 271 1286 335 1351 b 561 1206 497 1351 561 1286 b 417 1061 561 1125 497 1061 b 271 1206 335 1061 271 1125 m 360 1206 b 417 1150 360 1175 383 1150 b 472 1206 449 1150 472 1175 b 417 1263 472 1238 449 1263 b 360 1206 383 1263 360 1238 "},"Ũ":{"ha":833,"x_min":0,"x_max":0,"o":"m 751 346 b 417 -22 751 118 629 -22 b 82 346 204 -22 82 118 l 82 988 l 221 988 l 221 342 b 417 110 221 193 286 110 b 613 342 547 110 613 193 l 613 988 l 751 988 l 751 346 m 181 1094 b 322 1281 182 1210 236 1281 b 422 1242 371 1281 399 1265 b 503 1189 451 1217 467 1189 b 556 1279 538 1189 556 1218 l 651 1279 b 510 1093 650 1167 596 1093 b 401 1139 454 1093 425 1114 b 331 1183 378 1163 361 1183 b 276 1094 294 1183 276 1157 l 181 1094 "},"V":{"ha":833,"x_min":0,"x_max":0,"o":"m 179 986 l 417 172 l 654 986 l 803 986 l 501 0 l 332 0 l 31 986 "},"W":{"ha":833,"x_min":0,"x_max":0,"o":"m 40 986 l 182 986 l 261 182 l 354 903 l 478 903 l 572 181 l 651 986 l 793 986 l 692 0 l 497 0 l 417 661 l 336 0 l 142 0 "},"Ẃ":{"ha":833,"x_min":0,"x_max":0,"o":"m 40 986 l 182 986 l 261 182 l 354 903 l 478 903 l 572 181 l 651 986 l 793 986 l 692 0 l 497 0 l 417 661 l 336 0 l 142 0 m 453 1276 l 594 1276 l 468 1096 l 365 1096 "},"Ŵ":{"ha":833,"x_min":0,"x_max":0,"o":"m 40 986 l 182 986 l 261 182 l 354 903 l 478 903 l 572 181 l 651 986 l 793 986 l 692 0 l 497 0 l 417 661 l 336 0 l 142 0 m 332 1263 l 499 1263 l 619 1096 l 490 1096 l 415 1201 l 340 1096 l 213 1096 "},"Ẅ":{"ha":833,"x_min":0,"x_max":0,"o":"m 40 986 l 182 986 l 261 182 l 354 903 l 478 903 l 572 181 l 651 986 l 793 986 l 692 0 l 497 0 l 417 661 l 336 0 l 142 0 m 235 1236 l 382 1236 l 382 1090 l 235 1090 m 449 1236 l 596 1236 l 596 1090 l 449 1090 "},"Ẁ":{"ha":833,"x_min":0,"x_max":0,"o":"m 40 986 l 182 986 l 261 182 l 354 903 l 478 903 l 572 181 l 651 986 l 793 986 l 692 0 l 497 0 l 417 661 l 336 0 l 142 0 m 365 1276 l 471 1082 l 360 1082 l 215 1276 "},"X":{"ha":833,"x_min":0,"x_max":0,"o":"m 764 986 l 504 494 l 767 0 l 604 0 l 415 388 l 226 0 l 67 0 l 329 496 l 69 986 l 231 986 l 418 603 l 604 986 "},"Y":{"ha":833,"x_min":0,"x_max":0,"o":"m 217 986 l 418 560 l 618 986 l 775 986 l 488 401 l 488 0 l 349 0 l 349 401 l 60 986 "},"Ý":{"ha":833,"x_min":0,"x_max":0,"o":"m 217 986 l 418 560 l 618 986 l 775 986 l 488 401 l 488 0 l 349 0 l 349 401 l 60 986 m 454 1276 l 596 1276 l 469 1096 l 367 1096 "},"Ŷ":{"ha":833,"x_min":0,"x_max":0,"o":"m 217 986 l 418 560 l 618 986 l 775 986 l 488 401 l 488 0 l 349 0 l 349 401 l 60 986 m 333 1263 l 500 1263 l 621 1096 l 492 1096 l 417 1201 l 342 1096 l 214 1096 "},"Ÿ":{"ha":833,"x_min":0,"x_max":0,"o":"m 217 986 l 418 560 l 618 986 l 775 986 l 488 401 l 488 0 l 349 0 l 349 401 l 60 986 m 236 1236 l 383 1236 l 383 1090 l 236 1090 m 450 1236 l 597 1236 l 597 1090 l 450 1090 "},"Ỳ":{"ha":833,"x_min":0,"x_max":0,"o":"m 217 986 l 418 560 l 618 986 l 775 986 l 488 401 l 488 0 l 349 0 l 349 401 l 60 986 m 367 1276 l 472 1082 l 361 1082 l 217 1276 "},"Ỹ":{"ha":833,"x_min":0,"x_max":0,"o":"m 217 986 l 418 560 l 618 986 l 775 986 l 488 401 l 488 0 l 349 0 l 349 401 l 60 986 m 182 1094 b 324 1281 183 1210 238 1281 b 424 1242 372 1281 400 1265 b 504 1189 453 1217 468 1189 b 557 1279 539 1189 557 1218 l 653 1279 b 511 1093 651 1167 597 1093 b 403 1139 456 1093 426 1114 b 332 1183 379 1163 363 1183 b 278 1094 296 1183 278 1157 l 182 1094 "},"Z":{"ha":833,"x_min":0,"x_max":0,"o":"m 231 132 l 767 132 l 767 0 l 65 0 l 65 139 l 590 854 l 90 854 l 90 986 l 756 986 l 756 844 "},"Ź":{"ha":833,"x_min":0,"x_max":0,"o":"m 231 132 l 767 132 l 767 0 l 65 0 l 65 139 l 590 854 l 90 854 l 90 986 l 756 986 l 756 844 m 453 1276 l 594 1276 l 468 1096 l 365 1096 "},"Ž":{"ha":833,"x_min":0,"x_max":0,"o":"m 231 132 l 767 132 l 767 0 l 65 0 l 65 139 l 590 854 l 90 854 l 90 986 l 756 986 l 756 844 m 342 1263 l 417 1157 l 492 1263 l 621 1263 l 500 1096 l 333 1096 l 214 1263 "},"Ż":{"ha":833,"x_min":0,"x_max":0,"o":"m 231 132 l 767 132 l 767 0 l 65 0 l 65 139 l 590 854 l 90 854 l 90 986 l 756 986 l 756 844 m 342 1236 l 489 1236 l 489 1090 l 342 1090 "},"a":{"ha":833,"x_min":0,"x_max":0,"o":"m 100 517 b 406 753 128 660 250 753 b 703 444 585 753 703 649 l 703 165 b 747 119 703 133 717 119 l 779 119 l 779 0 l 740 0 b 585 113 651 0 599 47 b 356 -17 557 44 471 -17 b 88 193 207 -17 88 61 b 369 421 88 346 200 389 l 568 460 b 404 628 567 572 503 628 b 243 507 321 628 260 578 l 100 517 m 229 196 b 372 101 231 144 275 101 b 571 311 483 101 571 179 l 571 343 l 413 315 b 229 196 310 297 229 289 "},"á":{"ha":833,"x_min":0,"x_max":0,"o":"m 100 517 b 406 753 128 660 250 753 b 703 444 585 753 703 649 l 703 165 b 747 119 703 133 717 119 l 779 119 l 779 0 l 740 0 b 585 113 651 0 599 47 b 356 -17 557 44 471 -17 b 88 193 207 -17 88 61 b 369 421 88 346 200 389 l 568 460 b 404 628 567 572 503 628 b 243 507 321 628 260 578 l 100 517 m 229 196 b 372 101 231 144 275 101 b 571 311 483 101 571 179 l 571 343 l 413 315 b 229 196 310 297 229 289 m 442 1026 l 583 1026 l 457 846 l 354 846 "},"ă":{"ha":833,"x_min":0,"x_max":0,"o":"m 100 517 b 406 753 128 660 250 753 b 703 444 585 753 703 649 l 703 165 b 747 119 703 133 717 119 l 779 119 l 779 0 l 740 0 b 585 113 651 0 599 47 b 356 -17 557 44 471 -17 b 88 193 207 -17 88 61 b 369 421 88 346 200 389 l 568 460 b 404 628 567 572 503 628 b 243 507 321 628 260 578 l 100 517 m 304 1026 b 406 938 304 976 349 938 b 508 1026 463 938 507 976 l 608 1026 b 406 846 607 925 519 846 b 203 1026 292 846 204 925 m 229 196 b 372 101 231 144 275 101 b 571 311 483 101 571 179 l 571 343 l 413 315 b 229 196 310 297 229 289 "},"ǎ":{"ha":833,"x_min":0,"x_max":0,"o":"m 100 517 b 406 753 128 660 250 753 b 703 444 585 753 703 649 l 703 165 b 747 119 703 133 717 119 l 779 119 l 779 0 l 740 0 b 585 113 651 0 599 47 b 356 -17 557 44 471 -17 b 88 193 207 -17 88 61 b 369 421 88 346 200 389 l 568 460 b 404 628 567 572 503 628 b 243 507 321 628 260 578 l 100 517 m 331 1013 l 406 907 l 481 1013 l 610 1013 l 489 846 l 322 846 l 203 1013 m 229 196 b 372 101 231 144 275 101 b 571 311 483 101 571 179 l 571 343 l 413 315 b 229 196 310 297 229 289 "},"â":{"ha":833,"x_min":0,"x_max":0,"o":"m 100 517 b 406 753 128 660 250 753 b 703 444 585 753 703 649 l 703 165 b 747 119 703 133 717 119 l 779 119 l 779 0 l 740 0 b 585 113 651 0 599 47 b 356 -17 557 44 471 -17 b 88 193 207 -17 88 61 b 369 421 88 346 200 389 l 568 460 b 404 628 567 572 503 628 b 243 507 321 628 260 578 l 100 517 m 321 1013 l 488 1013 l 608 846 l 479 846 l 404 951 l 329 846 l 201 846 m 229 196 b 372 101 231 144 275 101 b 571 311 483 101 571 179 l 571 343 l 413 315 b 229 196 310 297 229 289 "},"ä":{"ha":833,"x_min":0,"x_max":0,"o":"m 100 517 b 406 753 128 660 250 753 b 703 444 585 753 703 649 l 703 165 b 747 119 703 133 717 119 l 779 119 l 779 0 l 740 0 b 585 113 651 0 599 47 b 356 -17 557 44 471 -17 b 88 193 207 -17 88 61 b 369 421 88 346 200 389 l 568 460 b 404 628 567 572 503 628 b 243 507 321 628 260 578 l 100 517 m 224 986 l 371 986 l 371 840 l 224 840 m 229 196 b 372 101 231 144 275 101 b 571 311 483 101 571 179 l 571 343 l 413 315 b 229 196 310 297 229 289 m 438 986 l 585 986 l 585 840 l 438 840 "},"à":{"ha":833,"x_min":0,"x_max":0,"o":"m 100 517 b 406 753 128 660 250 753 b 703 444 585 753 703 649 l 703 165 b 747 119 703 133 717 119 l 779 119 l 779 0 l 740 0 b 585 113 651 0 599 47 b 356 -17 557 44 471 -17 b 88 193 207 -17 88 61 b 369 421 88 346 200 389 l 568 460 b 404 628 567 572 503 628 b 243 507 321 628 260 578 l 100 517 m 354 1026 l 460 832 l 349 832 l 204 1026 m 229 196 b 372 101 231 144 275 101 b 571 311 483 101 571 179 l 571 343 l 413 315 b 229 196 310 297 229 289 "},"ā":{"ha":833,"x_min":0,"x_max":0,"o":"m 100 517 b 406 753 128 660 250 753 b 703 444 585 753 703 649 l 703 165 b 747 119 703 133 717 119 l 779 119 l 779 0 l 740 0 b 585 113 651 0 599 47 b 356 -17 557 44 471 -17 b 88 193 207 -17 88 61 b 369 421 88 346 200 389 l 568 460 b 404 628 567 572 503 628 b 243 507 321 628 260 578 l 100 517 m 224 965 l 588 965 l 588 865 l 224 865 m 229 196 b 372 101 231 144 275 101 b 571 311 483 101 571 179 l 571 343 l 413 315 b 229 196 310 297 229 289 "},"ą":{"ha":833,"x_min":0,"x_max":0,"o":"m 100 517 b 406 753 128 660 250 753 b 703 444 585 753 703 649 l 703 165 b 747 119 703 133 717 119 l 779 119 l 779 0 l 775 0 l 738 -53 b 694 -143 717 -81 694 -115 b 740 -189 694 -169 713 -189 b 826 -160 765 -189 796 -174 l 826 -257 b 715 -296 792 -286 753 -297 b 589 -176 646 -296 589 -244 b 643 -50 589 -132 606 -89 l 692 4 l 697 4 b 585 113 635 17 596 58 b 356 -17 557 44 471 -17 b 88 193 207 -17 88 61 b 369 421 88 346 200 389 l 568 460 b 404 628 567 572 503 628 b 243 507 321 628 260 578 l 100 517 m 229 196 b 372 101 231 144 275 101 b 571 311 483 101 571 179 l 571 343 l 413 315 b 229 196 310 297 229 289 "},"å":{"ha":833,"x_min":0,"x_max":0,"o":"m 100 517 b 406 753 128 660 250 753 b 703 444 585 753 703 649 l 703 165 b 747 119 703 133 717 119 l 779 119 l 779 0 l 740 0 b 585 113 651 0 599 47 b 356 -17 557 44 471 -17 b 88 193 207 -17 88 61 b 369 421 88 346 200 389 l 568 460 b 404 628 567 572 503 628 b 243 507 321 628 260 578 l 100 517 m 229 196 b 372 101 231 144 275 101 b 571 311 483 101 571 179 l 571 343 l 413 315 b 229 196 310 297 229 289 m 260 956 b 406 1101 260 1036 324 1101 b 550 956 486 1101 550 1036 b 406 811 550 875 486 811 b 260 956 324 811 260 875 m 349 956 b 406 900 349 925 372 900 b 461 956 438 900 461 925 b 406 1013 461 988 438 1013 b 349 956 372 1013 349 988 "},"ã":{"ha":833,"x_min":0,"x_max":0,"o":"m 100 517 b 406 753 128 660 250 753 b 703 444 585 753 703 649 l 703 165 b 747 119 703 133 717 119 l 779 119 l 779 0 l 740 0 b 585 113 651 0 599 47 b 356 -17 557 44 471 -17 b 88 193 207 -17 88 61 b 369 421 88 346 200 389 l 568 460 b 404 628 567 572 503 628 b 243 507 321 628 260 578 l 100 517 m 169 844 b 311 1031 171 960 225 1031 b 411 992 360 1031 388 1015 b 492 939 440 967 456 939 b 544 1029 526 939 544 968 l 640 1029 b 499 843 639 917 585 843 b 390 889 443 843 414 864 b 319 933 367 913 350 933 b 265 844 283 933 265 907 l 169 844 m 229 196 b 372 101 231 144 275 101 b 571 311 483 101 571 179 l 571 343 l 413 315 b 229 196 310 297 229 289 "},"æ":{"ha":833,"x_min":0,"x_max":0,"o":"m 26 517 b 240 753 50 674 122 753 b 410 654 319 753 375 719 b 588 753 451 718 511 753 b 817 381 729 753 810 631 l 818 329 l 475 329 b 588 108 482 188 524 108 b 679 225 636 108 664 140 l 810 213 b 588 -17 776 51 711 -17 b 382 140 490 -17 421 39 b 204 -17 356 42 293 -14 b 17 196 101 -14 17 64 b 214 424 17 308 92 393 l 322 451 b 239 628 322 578 300 628 b 153 507 182 628 165 578 l 26 517 m 144 199 b 219 108 144 142 176 106 b 326 301 293 114 326 172 l 326 332 l 247 313 b 144 199 179 296 144 250 m 685 438 b 588 628 672 574 644 628 b 478 438 524 628 492 574 "},"b":{"ha":833,"x_min":0,"x_max":0,"o":"m 242 986 l 242 639 b 463 753 285 713 357 753 b 768 368 669 753 768 575 b 463 -17 768 161 669 -17 b 236 104 351 -17 276 28 l 232 0 l 107 0 l 107 986 m 231 368 b 428 108 231 235 289 108 b 626 368 569 108 626 233 b 428 632 626 507 569 632 b 231 368 289 632 231 506 "},"c":{"ha":833,"x_min":0,"x_max":0,"o":"m 607 479 b 435 628 593 571 518 628 b 235 368 308 628 235 531 b 435 108 235 206 308 108 b 613 268 522 108 597 168 l 756 260 b 435 -17 733 90 596 -17 b 93 368 228 -17 93 133 b 435 753 93 603 228 753 b 749 488 590 753 731 650 l 607 479 "},"ć":{"ha":833,"x_min":0,"x_max":0,"o":"m 607 479 b 435 628 593 571 518 628 b 235 368 308 628 235 531 b 435 108 235 206 308 108 b 613 268 522 108 597 168 l 756 260 b 435 -17 733 90 596 -17 b 93 368 228 -17 93 133 b 435 753 93 603 228 753 b 749 488 590 753 731 650 l 607 479 m 469 1026 l 611 1026 l 485 846 l 382 846 "},"č":{"ha":833,"x_min":0,"x_max":0,"o":"m 607 479 b 435 628 593 571 518 628 b 235 368 308 628 235 531 b 435 108 235 206 308 108 b 613 268 522 108 597 168 l 756 260 b 435 -17 733 90 596 -17 b 93 368 228 -17 93 133 b 435 753 93 603 228 753 b 749 488 590 753 731 650 l 607 479 m 360 1013 l 435 907 l 510 1013 l 639 1013 l 518 846 l 351 846 l 232 1013 "},"ç":{"ha":833,"x_min":0,"x_max":0,"o":"m 607 479 b 435 628 593 571 518 628 b 235 368 308 628 235 531 b 435 108 235 206 308 108 b 613 268 522 108 597 168 l 756 260 b 464 -15 735 101 613 -3 l 433 -49 b 568 -178 511 -49 568 -103 b 426 -312 568 -254 504 -312 b 254 -215 357 -312 310 -281 l 321 -154 b 419 -225 340 -179 372 -225 b 481 -168 456 -225 481 -203 b 379 -119 481 -125 433 -106 l 338 -65 l 385 -14 b 93 368 207 8 93 153 b 435 753 93 603 228 753 b 749 488 590 753 731 650 l 607 479 "},"ĉ":{"ha":833,"x_min":0,"x_max":0,"o":"m 607 479 b 435 628 593 571 518 628 b 235 368 308 628 235 531 b 435 108 235 206 308 108 b 613 268 522 108 597 168 l 756 260 b 435 -17 733 90 596 -17 b 93 368 228 -17 93 133 b 435 753 93 603 228 753 b 749 488 590 753 731 650 l 607 479 m 350 1013 l 517 1013 l 638 846 l 508 846 l 433 951 l 358 846 l 231 846 "},"ċ":{"ha":833,"x_min":0,"x_max":0,"o":"m 607 479 b 435 628 593 571 518 628 b 235 368 308 628 235 531 b 435 108 235 206 308 108 b 613 268 522 108 597 168 l 756 260 b 435 -17 733 90 596 -17 b 93 368 228 -17 93 133 b 435 753 93 603 228 753 b 749 488 590 753 731 650 l 607 479 m 360 986 l 507 986 l 507 840 l 360 840 "},"d":{"ha":833,"x_min":0,"x_max":0,"o":"m 726 0 l 601 0 l 597 104 b 371 -17 557 28 482 -17 b 65 368 164 -17 65 161 b 371 753 65 575 164 753 b 592 639 476 753 549 713 l 592 986 l 726 986 m 207 368 b 406 108 207 233 264 108 b 603 368 544 108 603 235 b 406 632 603 506 544 632 b 207 368 264 632 207 507 "},"ð":{"ha":833,"x_min":0,"x_max":0,"o":"m 419 658 b 619 525 511 650 581 603 b 521 792 617 633 582 725 l 331 719 l 296 811 l 432 863 b 240 919 378 893 314 914 l 275 1046 b 583 919 408 1031 510 985 l 719 971 l 753 881 l 653 842 b 606 65 829 594 751 196 b 368 -17 531 0 453 -25 b 54 346 167 0 36 149 b 419 658 71 556 215 676 m 196 336 b 369 107 183 206 256 119 b 601 368 494 96 589 206 b 410 531 585 467 507 524 b 196 336 294 542 206 461 "},"ď":{"ha":833,"x_min":0,"x_max":0,"o":"m 729 0 l 604 0 l 600 104 b 374 -17 560 28 485 -17 b 68 368 167 -17 68 161 b 374 753 68 575 167 753 b 594 639 479 753 551 713 l 594 986 l 729 986 m 210 368 b 408 108 210 233 267 108 b 606 368 547 108 606 235 b 408 632 606 506 547 632 b 210 368 267 632 210 507 m 851 1026 l 993 1026 l 867 846 l 764 846 "},"đ":{"ha":833,"x_min":0,"x_max":0,"o":"m 729 915 l 825 915 l 825 806 l 729 806 l 729 0 l 604 0 l 600 104 b 374 -17 560 28 485 -17 b 68 368 167 -17 68 161 b 374 753 68 575 167 753 b 594 639 479 753 551 713 l 594 806 l 443 806 l 443 915 l 594 915 l 594 986 l 729 986 m 210 368 b 408 108 210 233 267 108 b 606 368 547 108 606 235 b 408 632 606 506 547 632 b 210 368 267 632 210 507 "},"e":{"ha":833,"x_min":0,"x_max":0,"o":"m 86 368 b 428 753 86 603 221 753 b 754 381 593 753 743 646 l 754 329 l 229 329 b 428 108 240 190 311 108 b 600 225 501 108 568 151 l 743 213 b 428 -17 701 72 575 -17 b 86 368 221 -17 86 133 m 607 438 b 428 628 588 578 511 628 b 233 438 321 628 253 557 "},"é":{"ha":833,"x_min":0,"x_max":0,"o":"m 86 368 b 428 753 86 603 221 753 b 754 381 593 753 743 646 l 754 329 l 229 329 b 428 108 240 190 311 108 b 600 225 501 108 568 151 l 743 213 b 428 -17 701 72 575 -17 b 86 368 221 -17 86 133 m 607 438 b 428 628 588 578 511 628 b 233 438 321 628 253 557 m 464 1024 l 606 1024 l 479 843 l 376 843 "},"ě":{"ha":833,"x_min":0,"x_max":0,"o":"m 86 368 b 428 753 86 603 221 753 b 754 381 593 753 743 646 l 754 329 l 229 329 b 428 108 240 190 311 108 b 600 225 501 108 568 151 l 743 213 b 428 -17 701 72 575 -17 b 86 368 221 -17 86 133 m 353 1011 l 428 906 l 503 1011 l 632 1011 l 511 844 l 344 844 l 225 1011 m 607 438 b 428 628 588 578 511 628 b 233 438 321 628 253 557 "},"ê":{"ha":833,"x_min":0,"x_max":0,"o":"m 86 368 b 428 753 86 603 221 753 b 754 381 593 753 743 646 l 754 329 l 229 329 b 428 108 240 190 311 108 b 600 225 501 108 568 151 l 743 213 b 428 -17 701 72 575 -17 b 86 368 221 -17 86 133 m 344 1010 l 511 1010 l 632 843 l 503 843 l 428 949 l 353 843 l 225 843 m 607 438 b 428 628 588 578 511 628 b 233 438 321 628 253 557 "},"ë":{"ha":833,"x_min":0,"x_max":0,"o":"m 86 368 b 428 753 86 603 221 753 b 754 381 593 753 743 646 l 754 329 l 229 329 b 428 108 240 190 311 108 b 600 225 501 108 568 151 l 743 213 b 428 -17 701 72 575 -17 b 86 368 221 -17 86 133 m 607 438 b 428 628 588 578 511 628 b 233 438 321 628 253 557 m 246 983 l 393 983 l 393 838 l 246 838 m 461 983 l 608 983 l 608 838 l 461 838 "},"ė":{"ha":833,"x_min":0,"x_max":0,"o":"m 86 368 b 428 753 86 603 221 753 b 754 381 593 753 743 646 l 754 329 l 229 329 b 428 108 240 190 311 108 b 600 225 501 108 568 151 l 743 213 b 428 -17 701 72 575 -17 b 86 368 221 -17 86 133 m 607 438 b 428 628 588 578 511 628 b 233 438 321 628 253 557 m 353 983 l 500 983 l 500 838 l 353 838 "},"è":{"ha":833,"x_min":0,"x_max":0,"o":"m 86 368 b 428 753 86 603 221 753 b 754 381 593 753 743 646 l 754 329 l 229 329 b 428 108 240 190 311 108 b 600 225 501 108 568 151 l 743 213 b 428 -17 701 72 575 -17 b 86 368 221 -17 86 133 m 378 1024 l 483 829 l 372 829 l 228 1024 m 607 438 b 428 628 588 578 511 628 b 233 438 321 628 253 557 "},"ē":{"ha":833,"x_min":0,"x_max":0,"o":"m 86 368 b 428 753 86 603 221 753 b 754 381 593 753 743 646 l 754 329 l 229 329 b 428 108 240 190 311 108 b 600 225 501 108 568 151 l 743 213 b 428 -17 701 72 575 -17 b 86 368 221 -17 86 133 m 607 438 b 428 628 588 578 511 628 b 233 438 321 628 253 557 m 246 963 l 610 963 l 610 863 l 246 863 "},"ę":{"ha":833,"x_min":0,"x_max":0,"o":"m 86 368 b 428 753 86 603 221 753 b 754 381 593 753 743 646 l 754 329 l 229 329 b 428 108 240 190 311 108 b 600 225 501 108 568 151 l 743 213 b 533 -1 711 107 633 31 l 493 -57 b 450 -147 472 -85 450 -119 b 496 -193 450 -174 468 -193 b 582 -164 521 -193 551 -178 l 582 -261 b 471 -300 547 -290 508 -301 b 344 -181 401 -300 344 -249 b 399 -54 344 -136 361 -93 l 432 -17 l 428 -17 b 86 368 221 -17 86 133 m 607 438 b 428 628 588 578 511 628 b 233 438 321 628 253 557 "},"ẽ":{"ha":833,"x_min":0,"x_max":0,"o":"m 86 368 b 428 753 86 603 221 753 b 754 381 593 753 743 646 l 754 329 l 229 329 b 428 108 240 190 311 108 b 600 225 501 108 568 151 l 743 213 b 428 -17 701 72 575 -17 b 86 368 221 -17 86 133 m 193 842 b 335 1028 194 957 249 1028 b 435 989 383 1028 411 1013 b 515 936 464 964 479 936 b 568 1026 550 936 568 965 l 664 1026 b 522 840 663 914 608 840 b 414 886 467 840 438 861 b 343 931 390 910 374 931 b 289 842 307 931 289 904 l 193 842 m 607 438 b 428 628 588 578 511 628 b 233 438 321 628 253 557 "},"ə":{"ha":833,"x_min":0,"x_max":0,"o":"m 747 368 b 406 -17 747 133 613 -17 b 79 356 240 -17 90 90 l 79 407 l 604 407 b 406 628 593 546 522 628 b 233 511 332 628 265 585 l 90 524 b 406 753 132 664 258 753 b 747 368 613 753 747 603 m 226 299 b 406 108 246 158 322 108 b 600 299 513 108 581 179 l 226 299 "},"ʒ":{"ha":833,"x_min":0,"x_max":0,"o":"m 58 26 b 392 -140 160 -75 289 -140 b 621 32 528 -140 621 -69 b 394 207 621 138 529 210 l 319 206 l 319 335 l 581 604 l 60 604 l 60 736 l 751 736 l 751 583 l 496 324 b 767 32 657 303 767 183 b 392 -272 767 -147 615 -272 b 58 -135 268 -272 140 -219 l 58 26 "},"ǯ":{"ha":833,"x_min":0,"x_max":0,"o":"m 58 26 b 392 -140 160 -75 289 -140 b 621 32 528 -140 621 -69 b 394 207 621 138 529 210 l 319 206 l 319 335 l 581 604 l 60 604 l 60 736 l 751 736 l 751 583 l 496 324 b 767 32 657 303 767 183 b 392 -272 767 -147 615 -272 b 58 -135 268 -272 140 -219 l 58 26 m 329 1013 l 404 907 l 479 1013 l 608 1013 l 488 846 l 321 846 l 201 1013 "},"f":{"ha":833,"x_min":0,"x_max":0,"o":"m 288 768 b 506 986 288 904 356 986 l 708 986 l 708 867 l 503 867 b 422 771 456 867 422 831 l 422 689 l 699 689 l 699 569 l 422 569 l 422 0 l 288 0 l 288 569 l 94 569 l 94 689 l 288 689 l 288 768 "},"g":{"ha":833,"x_min":0,"x_max":0,"o":"m 393 39 b 82 392 211 39 82 185 b 393 753 82 606 211 753 b 611 624 492 753 578 700 l 613 736 l 742 736 l 742 81 b 415 -225 740 -121 613 -225 b 103 -12 254 -225 138 -140 l 244 -3 b 415 -104 274 -67 331 -104 b 607 51 535 -104 606 -50 l 607 161 b 393 39 569 90 481 39 m 224 393 b 418 157 224 254 297 157 b 610 393 536 157 608 254 b 418 628 613 531 539 628 b 224 393 297 628 224 531 "},"ğ":{"ha":833,"x_min":0,"x_max":0,"o":"m 393 39 b 82 392 211 39 82 185 b 393 753 82 606 211 753 b 611 624 492 753 578 700 l 613 736 l 742 736 l 742 81 b 415 -225 740 -121 613 -225 b 103 -12 254 -225 138 -140 l 244 -3 b 415 -104 274 -67 331 -104 b 607 51 535 -104 606 -50 l 607 161 b 393 39 569 90 481 39 m 315 1026 b 417 938 315 976 360 938 b 519 1026 474 938 518 976 l 619 1026 b 417 846 618 925 531 846 b 214 1026 303 846 215 925 m 224 393 b 418 157 224 254 297 157 b 610 393 536 157 608 254 b 418 628 613 531 539 628 b 224 393 297 628 224 531 "},"ǧ":{"ha":833,"x_min":0,"x_max":0,"o":"m 393 39 b 82 392 211 39 82 185 b 393 753 82 606 211 753 b 611 624 492 753 578 700 l 613 736 l 742 736 l 742 81 b 415 -225 740 -121 613 -225 b 103 -12 254 -225 138 -140 l 244 -3 b 415 -104 274 -67 331 -104 b 607 51 535 -104 606 -50 l 607 161 b 393 39 569 90 481 39 m 343 1013 l 418 907 l 493 1013 l 622 1013 l 501 846 l 335 846 l 215 1013 m 224 393 b 418 157 224 254 297 157 b 610 393 536 157 608 254 b 418 628 613 531 539 628 b 224 393 297 628 224 531 "},"ĝ":{"ha":833,"x_min":0,"x_max":0,"o":"m 393 39 b 82 392 211 39 82 185 b 393 753 82 606 211 753 b 611 624 492 753 578 700 l 613 736 l 742 736 l 742 81 b 415 -225 740 -121 613 -225 b 103 -12 254 -225 138 -140 l 244 -3 b 415 -104 274 -67 331 -104 b 607 51 535 -104 606 -50 l 607 161 b 393 39 569 90 481 39 m 333 1013 l 500 1013 l 621 846 l 492 846 l 417 951 l 342 846 l 214 846 m 224 393 b 418 157 224 254 297 157 b 610 393 536 157 608 254 b 418 628 613 531 539 628 b 224 393 297 628 224 531 "},"ģ":{"ha":833,"x_min":0,"x_max":0,"o":"m 393 39 b 82 392 211 39 82 185 b 393 753 82 606 211 753 b 611 624 492 753 578 700 l 613 736 l 742 736 l 742 81 b 415 -225 740 -121 613 -225 b 103 -12 254 -225 138 -140 l 244 -3 b 415 -104 274 -67 331 -104 b 607 51 535 -104 606 -50 l 607 161 b 393 39 569 90 481 39 m 224 393 b 418 157 224 254 297 157 b 610 393 536 157 608 254 b 418 628 613 531 539 628 b 224 393 297 628 224 531 m 349 1019 l 451 1243 l 528 1243 l 454 1019 l 526 1019 l 526 847 l 349 847 "},"ġ":{"ha":833,"x_min":0,"x_max":0,"o":"m 393 39 b 82 392 211 39 82 185 b 393 753 82 606 211 753 b 611 624 492 753 578 700 l 613 736 l 742 736 l 742 81 b 415 -225 740 -121 613 -225 b 103 -12 254 -225 138 -140 l 244 -3 b 415 -104 274 -67 331 -104 b 607 51 535 -104 606 -50 l 607 161 b 393 39 569 90 481 39 m 224 393 b 418 157 224 254 297 157 b 610 393 536 157 608 254 b 418 628 613 531 539 628 b 224 393 297 628 224 531 m 343 986 l 490 986 l 490 840 l 343 840 "},"ḡ":{"ha":833,"x_min":0,"x_max":0,"o":"m 393 39 b 82 392 211 39 82 185 b 393 753 82 606 211 753 b 611 624 492 753 578 700 l 613 736 l 742 736 l 742 81 b 415 -225 740 -121 613 -225 b 103 -12 254 -225 138 -140 l 244 -3 b 415 -104 274 -67 331 -104 b 607 51 535 -104 606 -50 l 607 161 b 393 39 569 90 481 39 m 224 393 b 418 157 224 254 297 157 b 610 393 536 157 608 254 b 418 628 613 531 539 628 b 224 393 297 628 224 531 m 236 965 l 600 965 l 600 865 l 236 865 "},"ǥ":{"ha":833,"x_min":0,"x_max":0,"o":"m 392 39 b 81 392 210 39 81 185 b 392 753 81 606 210 753 b 610 624 490 753 576 700 l 611 736 l 740 736 l 740 443 l 810 443 l 810 333 l 740 333 l 740 81 b 414 -225 739 -121 611 -225 b 101 -12 253 -225 136 -140 l 243 -3 b 414 -104 272 -67 329 -104 b 606 51 533 -104 604 -50 l 606 161 b 392 39 568 90 479 39 m 222 393 b 417 157 222 254 296 157 b 603 333 517 157 585 228 l 410 333 l 410 443 l 606 443 b 417 628 592 554 522 628 b 222 393 296 628 222 531 "},"h":{"ha":833,"x_min":0,"x_max":0,"o":"m 272 986 l 272 640 b 483 753 315 717 396 753 b 728 474 649 753 728 632 l 728 0 l 593 0 l 593 432 b 449 631 593 563 550 631 b 272 432 342 631 272 563 l 272 0 l 138 0 l 138 986 "},"ħ":{"ha":833,"x_min":0,"x_max":0,"o":"m 276 986 l 276 915 l 414 915 l 414 806 l 276 806 l 276 640 b 488 753 319 717 400 753 b 732 474 653 753 732 632 l 732 0 l 597 0 l 597 432 b 453 631 597 563 554 631 b 276 432 346 631 276 563 l 276 0 l 142 0 l 142 806 l 29 806 l 29 915 l 142 915 l 142 986 "},"ĥ":{"ha":833,"x_min":0,"x_max":0,"o":"m 272 986 l 272 640 b 483 753 315 717 396 753 b 728 474 649 753 728 632 l 728 0 l 593 0 l 593 432 b 449 631 593 563 550 631 b 272 432 342 631 272 563 l 272 0 l 138 0 l 138 986 m 121 1263 l 288 1263 l 408 1096 l 279 1096 l 204 1201 l 129 1096 l 1 1096 "},"i":{"ha":833,"x_min":0,"x_max":0,"o":"m 533 119 l 778 119 l 778 0 l 113 0 l 113 119 l 397 119 l 397 617 l 138 617 l 138 736 l 533 736 m 385 986 l 532 986 l 532 840 l 385 840 "},"ı":{"ha":833,"x_min":0,"x_max":0,"o":"m 533 119 l 778 119 l 778 0 l 113 0 l 113 119 l 397 119 l 397 617 l 138 617 l 138 736 l 533 736 "},"í":{"ha":833,"x_min":0,"x_max":0,"o":"m 533 119 l 778 119 l 778 0 l 113 0 l 113 119 l 397 119 l 397 617 l 138 617 l 138 736 l 533 736 m 494 1026 l 636 1026 l 510 846 l 407 846 "},"î":{"ha":833,"x_min":0,"x_max":0,"o":"m 533 119 l 778 119 l 778 0 l 113 0 l 113 119 l 397 119 l 397 617 l 138 617 l 138 736 l 533 736 m 375 1013 l 542 1013 l 663 846 l 533 846 l 458 951 l 383 846 l 256 846 "},"ï":{"ha":833,"x_min":0,"x_max":0,"o":"m 533 119 l 778 119 l 778 0 l 113 0 l 113 119 l 397 119 l 397 617 l 138 617 l 138 736 l 533 736 m 278 986 l 425 986 l 425 840 l 278 840 m 492 986 l 639 986 l 639 840 l 492 840 "},"ì":{"ha":833,"x_min":0,"x_max":0,"o":"m 533 119 l 778 119 l 778 0 l 113 0 l 113 119 l 397 119 l 397 617 l 138 617 l 138 736 l 533 736 m 408 1026 l 514 832 l 403 832 l 258 1026 "},"ī":{"ha":833,"x_min":0,"x_max":0,"o":"m 533 119 l 778 119 l 778 0 l 113 0 l 113 119 l 397 119 l 397 617 l 138 617 l 138 736 l 533 736 m 278 965 l 642 965 l 642 865 l 278 865 "},"į":{"ha":833,"x_min":0,"x_max":0,"o":"m 533 119 l 778 119 l 778 0 l 738 -57 b 694 -147 717 -85 694 -119 b 740 -193 694 -174 713 -193 b 826 -164 765 -193 796 -178 l 826 -261 b 715 -300 792 -290 753 -301 b 589 -181 646 -300 589 -249 b 643 -54 589 -136 606 -93 l 692 0 l 113 0 l 113 119 l 397 119 l 397 617 l 138 617 l 138 736 l 533 736 m 385 986 l 532 986 l 532 840 l 385 840 "},"ĩ":{"ha":833,"x_min":0,"x_max":0,"o":"m 533 119 l 778 119 l 778 0 l 113 0 l 113 119 l 397 119 l 397 617 l 138 617 l 138 736 l 533 736 m 224 844 b 365 1031 225 960 279 1031 b 465 992 414 1031 442 1015 b 546 939 494 967 510 939 b 599 1029 581 939 599 968 l 694 1029 b 553 843 693 917 639 843 b 444 889 497 843 468 864 b 374 933 421 913 404 933 b 319 844 338 933 319 907 l 224 844 "},"j":{"ha":833,"x_min":0,"x_max":0,"o":"m 619 18 b 418 -208 619 -117 550 -208 l 154 -208 l 154 -89 l 400 -89 b 485 18 451 -89 485 -46 l 485 617 l 156 617 l 156 736 l 619 736 l 619 18 m 472 986 l 619 986 l 619 840 l 472 840 "},"ȷ":{"ha":833,"x_min":0,"x_max":0,"o":"m 619 18 b 418 -208 619 -117 550 -208 l 154 -208 l 154 -89 l 400 -89 b 485 18 451 -89 485 -46 l 485 617 l 156 617 l 156 736 l 619 736 l 619 18 "},"ĵ":{"ha":833,"x_min":0,"x_max":0,"o":"m 619 18 b 418 -208 619 -117 550 -208 l 154 -208 l 154 -89 l 400 -89 b 485 18 451 -89 485 -46 l 485 617 l 156 617 l 156 736 l 619 736 l 619 18 m 464 1013 l 631 1013 l 751 846 l 622 846 l 547 951 l 472 846 l 344 846 "},"k":{"ha":833,"x_min":0,"x_max":0,"o":"m 251 986 l 251 368 l 578 736 l 760 736 l 472 424 l 775 0 l 608 0 l 383 328 l 251 172 l 251 0 l 117 0 l 117 986 "},"ǩ":{"ha":833,"x_min":0,"x_max":0,"o":"m 251 986 l 251 368 l 578 736 l 760 736 l 472 424 l 775 0 l 608 0 l 383 328 l 251 172 l 251 0 l 117 0 l 117 986 m 108 1263 l 183 1157 l 258 1263 l 388 1263 l 267 1096 l 100 1096 l -19 1263 "},"ķ":{"ha":833,"x_min":0,"x_max":0,"o":"m 251 986 l 251 368 l 578 736 l 760 736 l 472 424 l 775 0 l 608 0 l 383 328 l 251 172 l 251 0 l 117 0 l 117 986 m 358 -83 l 500 -83 l 374 -264 l 271 -264 "},"l":{"ha":833,"x_min":0,"x_max":0,"o":"m 390 119 l 390 783 b 311 867 390 840 365 867 l 136 867 l 136 986 l 311 986 b 525 783 449 986 525 915 l 525 119 l 776 119 l 776 0 l 113 0 l 113 119 "},"ĺ":{"ha":833,"x_min":0,"x_max":0,"o":"m 390 119 l 390 783 b 311 867 390 840 365 867 l 136 867 l 136 986 l 311 986 b 525 783 449 986 525 915 l 525 119 l 776 119 l 776 0 l 113 0 l 113 119 m 493 1276 l 635 1276 l 508 1096 l 406 1096 "},"ľ":{"ha":833,"x_min":0,"x_max":0,"o":"m 390 119 l 390 783 b 311 867 390 840 365 867 l 136 867 l 136 986 l 311 986 b 525 783 449 986 525 915 l 525 119 l 776 119 l 776 0 l 113 0 l 113 119 m 674 1025 l 824 1025 l 679 831 l 568 831 "},"ļ":{"ha":833,"x_min":0,"x_max":0,"o":"m 390 119 l 390 783 b 311 867 390 840 365 867 l 136 867 l 136 986 l 311 986 b 525 783 449 986 525 915 l 525 119 l 776 119 l 776 0 l 113 0 l 113 119 m 390 -83 l 532 -83 l 406 -264 l 303 -264 "},"ł":{"ha":833,"x_min":0,"x_max":0,"o":"m 413 119 l 413 453 l 338 421 l 294 521 l 413 569 l 413 783 b 333 867 413 840 388 867 l 158 867 l 158 986 l 333 986 b 547 783 471 986 547 915 l 547 626 l 638 664 l 681 564 l 547 508 l 547 119 l 799 119 l 799 0 l 135 0 l 135 119 "},"m":{"ha":833,"x_min":0,"x_max":0,"o":"m 179 736 l 183 636 b 333 753 211 711 261 753 b 461 619 399 753 438 711 b 618 753 486 701 544 753 b 782 449 731 753 782 657 l 782 0 l 647 0 l 647 449 b 578 639 647 586 629 639 b 488 449 519 639 488 572 l 488 0 l 353 0 l 353 449 b 275 639 353 586 332 639 b 193 449 224 639 193 572 l 193 0 l 58 0 l 58 736 "},"n":{"ha":833,"x_min":0,"x_max":0,"o":"m 254 736 l 258 613 b 478 753 297 707 379 753 b 722 474 642 753 722 632 l 722 0 l 588 0 l 588 439 b 443 638 588 569 544 638 b 265 439 336 638 265 569 l 265 0 l 131 0 l 131 736 "},"ń":{"ha":833,"x_min":0,"x_max":0,"o":"m 254 736 l 258 613 b 478 753 297 707 379 753 b 722 474 642 753 722 632 l 722 0 l 588 0 l 588 439 b 443 638 588 569 544 638 b 265 439 336 638 265 569 l 265 0 l 131 0 l 131 736 m 461 1026 l 603 1026 l 476 846 l 374 846 "},"ň":{"ha":833,"x_min":0,"x_max":0,"o":"m 254 736 l 258 613 b 478 753 297 707 379 753 b 722 474 642 753 722 632 l 722 0 l 588 0 l 588 439 b 443 638 588 569 544 638 b 265 439 336 638 265 569 l 265 0 l 131 0 l 131 736 m 351 1013 l 426 907 l 501 1013 l 631 1013 l 510 846 l 343 846 l 224 1013 "},"ņ":{"ha":833,"x_min":0,"x_max":0,"o":"m 254 736 l 258 613 b 478 753 297 707 379 753 b 722 474 642 753 722 632 l 722 0 l 588 0 l 588 439 b 443 638 588 569 544 638 b 265 439 336 638 265 569 l 265 0 l 131 0 l 131 736 m 358 -83 l 500 -83 l 374 -264 l 271 -264 "},"ñ":{"ha":833,"x_min":0,"x_max":0,"o":"m 254 736 l 258 613 b 478 753 297 707 379 753 b 722 474 642 753 722 632 l 722 0 l 588 0 l 588 439 b 443 638 588 569 544 638 b 265 439 336 638 265 569 l 265 0 l 131 0 l 131 736 m 190 844 b 332 1031 192 960 246 1031 b 432 992 381 1031 408 1015 b 513 939 461 967 476 939 b 565 1029 547 939 565 968 l 661 1029 b 519 843 660 917 606 843 b 411 889 464 843 435 864 b 340 933 388 913 371 933 b 286 844 304 933 286 907 l 190 844 "},"ŋ":{"ha":833,"x_min":0,"x_max":0,"o":"m 254 736 l 258 613 b 478 753 297 707 379 753 b 722 474 642 753 722 632 l 722 -8 b 513 -208 722 -131 640 -208 l 394 -208 l 394 -96 l 501 -96 b 588 -8 556 -96 588 -62 l 588 439 b 443 638 588 569 544 638 b 265 439 336 638 265 569 l 265 0 l 131 0 l 131 736 "},"o":{"ha":833,"x_min":0,"x_max":0,"o":"m 417 -17 b 75 368 213 -17 75 135 b 417 753 75 601 213 753 b 758 368 621 753 758 601 b 417 -17 758 135 621 -17 m 217 368 b 417 108 217 206 290 108 b 617 368 543 108 617 206 b 417 628 617 531 543 628 b 217 368 290 628 217 531 "},"ó":{"ha":833,"x_min":0,"x_max":0,"o":"m 417 -17 b 75 368 213 -17 75 135 b 417 753 75 601 213 753 b 758 368 621 753 758 601 b 417 -17 758 135 621 -17 m 217 368 b 417 108 217 206 290 108 b 617 368 543 108 617 206 b 417 628 617 531 543 628 b 217 368 290 628 217 531 m 453 1026 l 594 1026 l 468 846 l 365 846 "},"ô":{"ha":833,"x_min":0,"x_max":0,"o":"m 417 -17 b 75 368 213 -17 75 135 b 417 753 75 601 213 753 b 758 368 621 753 758 601 b 417 -17 758 135 621 -17 m 332 1013 l 499 1013 l 619 846 l 490 846 l 415 951 l 340 846 l 213 846 m 217 368 b 417 108 217 206 290 108 b 617 368 543 108 617 206 b 417 628 617 531 543 628 b 217 368 290 628 217 531 "},"ö":{"ha":833,"x_min":0,"x_max":0,"o":"m 417 -17 b 75 368 213 -17 75 135 b 417 753 75 601 213 753 b 758 368 621 753 758 601 b 417 -17 758 135 621 -17 m 217 368 b 417 108 217 206 290 108 b 617 368 543 108 617 206 b 417 628 617 531 543 628 b 217 368 290 628 217 531 m 235 986 l 382 986 l 382 840 l 235 840 m 449 986 l 596 986 l 596 840 l 449 840 "},"ò":{"ha":833,"x_min":0,"x_max":0,"o":"m 417 -17 b 75 368 213 -17 75 135 b 417 753 75 601 213 753 b 758 368 621 753 758 601 b 417 -17 758 135 621 -17 m 365 1026 l 471 832 l 360 832 l 215 1026 m 217 368 b 417 108 217 206 290 108 b 617 368 543 108 617 206 b 417 628 617 531 543 628 b 217 368 290 628 217 531 "},"ő":{"ha":833,"x_min":0,"x_max":0,"o":"m 417 -17 b 75 368 213 -17 75 135 b 417 753 75 601 213 753 b 758 368 621 753 758 601 b 417 -17 758 135 621 -17 m 217 368 b 417 108 217 206 290 108 b 617 368 543 108 617 206 b 417 628 617 531 543 628 b 217 368 290 628 217 531 m 344 1026 l 486 1026 l 360 846 l 257 846 m 526 1026 l 668 1026 l 542 846 l 439 846 "},"ō":{"ha":833,"x_min":0,"x_max":0,"o":"m 417 -17 b 75 368 213 -17 75 135 b 417 753 75 601 213 753 b 758 368 621 753 758 601 b 417 -17 758 135 621 -17 m 217 368 b 417 108 217 206 290 108 b 617 368 543 108 617 206 b 417 628 617 531 543 628 b 217 368 290 628 217 531 m 235 965 l 599 965 l 599 865 l 235 865 "},"ø":{"ha":833,"x_min":0,"x_max":0,"o":"m 417 -17 b 211 49 336 -17 267 7 l 157 -17 l 26 -17 l 142 124 b 75 368 99 188 75 271 b 417 753 75 601 213 753 b 614 693 493 753 560 732 l 664 753 l 794 753 l 686 621 b 758 368 732 557 758 469 b 417 -17 758 135 621 -17 m 217 368 b 238 238 217 318 224 274 l 531 592 b 417 628 500 615 461 628 b 217 368 290 628 217 531 m 294 150 b 417 108 326 122 368 108 b 617 368 543 108 617 206 b 593 508 617 422 608 471 l 294 150 "},"õ":{"ha":833,"x_min":0,"x_max":0,"o":"m 417 -17 b 75 368 213 -17 75 135 b 417 753 75 601 213 753 b 758 368 621 753 758 601 b 417 -17 758 135 621 -17 m 181 844 b 322 1031 182 960 236 1031 b 422 992 371 1031 399 1015 b 503 939 451 967 467 939 b 556 1029 538 939 556 968 l 651 1029 b 510 843 650 917 596 843 b 401 889 454 843 425 864 b 331 933 378 913 361 933 b 276 844 294 933 276 907 l 181 844 m 217 368 b 417 108 217 206 290 108 b 617 368 543 108 617 206 b 417 628 617 531 543 628 b 217 368 290 628 217 531 "},"œ":{"ha":833,"x_min":0,"x_max":0,"o":"m 246 -17 b 14 368 103 -17 14 132 b 246 753 14 604 103 753 b 414 653 315 753 374 717 b 590 753 454 718 514 753 b 821 381 732 753 813 631 l 821 329 l 479 329 b 590 108 485 188 526 108 b 683 225 640 108 667 140 l 813 213 b 590 -17 779 51 714 -17 b 414 83 514 -17 454 18 b 246 -17 374 19 315 -17 m 142 368 b 246 108 142 207 182 108 b 350 368 310 108 350 207 b 246 628 350 529 310 628 b 142 368 182 628 142 529 m 689 438 b 585 628 679 565 644 628 b 481 438 526 628 492 565 "},"p":{"ha":833,"x_min":0,"x_max":0,"o":"m 107 736 l 232 736 l 236 629 b 457 753 276 708 351 753 b 768 368 669 753 768 575 b 457 -17 768 161 669 -17 b 242 101 357 -17 283 24 l 242 -208 l 107 -208 m 228 368 b 426 108 228 235 288 108 b 624 368 567 108 624 233 b 426 628 624 503 567 628 b 228 368 288 628 228 501 "},"þ":{"ha":833,"x_min":0,"x_max":0,"o":"m 153 986 l 153 656 b 363 753 192 718 263 753 b 679 368 576 753 679 575 b 363 -17 679 161 576 -17 b 153 78 264 -17 194 18 l 153 -208 l 0 -208 l 0 986 m 139 368 b 331 118 139 240 194 118 b 524 368 469 118 524 239 b 331 624 524 501 469 624 b 139 368 194 624 139 500 "},"q":{"ha":833,"x_min":0,"x_max":0,"o":"m 592 -208 l 592 101 b 376 -17 550 24 476 -17 b 65 368 164 -17 65 161 b 376 753 65 575 164 753 b 597 629 482 753 557 708 l 601 736 l 726 736 l 726 -208 m 210 368 b 407 108 210 233 267 108 b 606 368 546 108 606 235 b 407 628 606 501 546 628 b 210 368 267 628 210 503 "},"r":{"ha":833,"x_min":0,"x_max":0,"o":"m 415 600 b 597 736 440 693 500 736 l 747 736 l 747 617 l 601 617 b 443 435 492 617 443 557 l 443 119 l 678 119 l 678 0 l 118 0 l 118 119 l 307 119 l 307 617 l 118 617 l 118 736 l 406 736 "},"ŕ":{"ha":833,"x_min":0,"x_max":0,"o":"m 415 600 b 597 736 440 693 500 736 l 747 736 l 747 617 l 601 617 b 443 435 492 617 443 557 l 443 119 l 678 119 l 678 0 l 118 0 l 118 119 l 307 119 l 307 617 l 118 617 l 118 736 l 406 736 m 508 1026 l 650 1026 l 524 846 l 421 846 "},"ř":{"ha":833,"x_min":0,"x_max":0,"o":"m 415 600 b 597 736 440 693 500 736 l 747 736 l 747 617 l 601 617 b 443 435 492 617 443 557 l 443 119 l 678 119 l 678 0 l 118 0 l 118 119 l 307 119 l 307 617 l 118 617 l 118 736 l 406 736 m 397 1013 l 472 907 l 547 1013 l 676 1013 l 556 846 l 389 846 l 269 1013 "},"ŗ":{"ha":833,"x_min":0,"x_max":0,"o":"m 415 600 b 597 736 440 693 500 736 l 747 736 l 747 617 l 601 617 b 443 435 492 617 443 557 l 443 119 l 678 119 l 678 0 l 118 0 l 118 119 l 307 119 l 307 617 l 118 617 l 118 736 l 406 736 m 308 -83 l 450 -83 l 324 -264 l 221 -264 "},"s":{"ha":833,"x_min":0,"x_max":0,"o":"m 581 506 b 407 628 565 583 493 628 b 272 525 336 628 271 593 b 443 414 272 451 361 435 b 724 190 583 379 724 328 b 432 -17 724 46 585 -17 b 108 233 260 -17 119 81 l 250 242 b 432 108 264 160 338 108 b 582 197 506 108 582 128 b 407 301 582 269 489 282 b 131 519 268 335 131 386 b 419 753 131 668 264 753 b 719 514 575 753 696 660 l 581 506 "},"ś":{"ha":833,"x_min":0,"x_max":0,"o":"m 581 506 b 407 628 565 583 493 628 b 272 525 336 628 271 593 b 443 414 272 451 361 435 b 724 190 583 379 724 328 b 432 -17 724 46 585 -17 b 108 233 260 -17 119 81 l 250 242 b 432 108 264 160 338 108 b 582 197 506 108 582 128 b 407 301 582 269 489 282 b 131 519 268 335 131 386 b 419 753 131 668 264 753 b 719 514 575 753 696 660 l 581 506 m 456 1026 l 597 1026 l 471 846 l 368 846 "},"ꞌ":{"ha":833,"x_min":0,"x_max":0,"o":"m 483 986 l 483 793 l 464 518 l 369 518 l 350 793 l 350 986 "},"š":{"ha":833,"x_min":0,"x_max":0,"o":"m 581 506 b 407 628 565 583 493 628 b 272 525 336 628 271 593 b 443 414 272 451 361 435 b 724 190 583 379 724 328 b 432 -17 724 46 585 -17 b 108 233 260 -17 119 81 l 250 242 b 432 108 264 160 338 108 b 582 197 506 108 582 128 b 407 301 582 269 489 282 b 131 519 268 335 131 386 b 419 753 131 668 264 753 b 719 514 575 753 696 660 l 581 506 m 344 1013 l 419 907 l 494 1013 l 624 1013 l 503 846 l 336 846 l 217 1013 "},"ş":{"ha":833,"x_min":0,"x_max":0,"o":"m 581 506 b 407 628 565 583 493 628 b 272 525 336 628 271 593 b 443 414 272 451 361 435 b 724 190 583 379 724 328 b 449 -17 724 51 594 -12 l 418 -49 b 553 -178 496 -49 553 -103 b 411 -312 553 -254 489 -312 b 239 -215 342 -312 294 -281 l 306 -154 b 404 -225 325 -179 357 -225 b 465 -168 440 -225 465 -203 b 364 -119 465 -125 418 -106 l 322 -65 l 371 -12 b 108 233 228 8 118 99 l 250 242 b 432 108 264 160 338 108 b 582 197 506 108 582 128 b 407 301 582 269 489 282 b 131 519 268 335 131 386 b 419 753 131 668 264 753 b 719 514 575 753 696 660 l 581 506 "},"ŝ":{"ha":833,"x_min":0,"x_max":0,"o":"m 581 506 b 407 628 565 583 493 628 b 272 525 336 628 271 593 b 443 414 272 451 361 435 b 724 190 583 379 724 328 b 432 -17 724 46 585 -17 b 108 233 260 -17 119 81 l 250 242 b 432 108 264 160 338 108 b 582 197 506 108 582 128 b 407 301 582 269 489 282 b 131 519 268 335 131 386 b 419 753 131 668 264 753 b 719 514 575 753 696 660 l 581 506 m 335 1013 l 501 1013 l 622 846 l 493 846 l 418 951 l 343 846 l 215 846 "},"ș":{"ha":833,"x_min":0,"x_max":0,"o":"m 581 506 b 407 628 565 583 493 628 b 272 525 336 628 271 593 b 443 414 272 451 361 435 b 724 190 583 379 724 328 b 432 -17 724 46 585 -17 b 108 233 260 -17 119 81 l 250 242 b 432 108 264 160 338 108 b 582 197 506 108 582 128 b 407 301 582 269 489 282 b 131 519 268 335 131 386 b 419 753 131 668 264 753 b 719 514 575 753 696 660 l 581 506 m 353 -83 l 494 -83 l 368 -264 l 265 -264 "},"ß":{"ha":833,"x_min":0,"x_max":0,"o":"m 324 128 l 324 0 l 413 0 b 764 275 603 0 764 93 b 554 531 764 407 678 500 b 703 746 650 563 703 647 b 406 1003 703 899 578 1003 b 96 679 225 1003 96 886 l 96 0 l 232 0 l 232 682 b 403 875 232 810 303 875 b 563 733 496 875 563 817 b 397 582 563 643 493 579 l 338 583 l 338 456 l 397 457 b 621 288 518 458 621 406 b 408 128 621 179 521 128 "},"t":{"ha":833,"x_min":0,"x_max":0,"o":"m 428 931 l 428 736 l 717 736 l 717 617 l 428 617 l 428 218 b 522 119 428 157 461 119 l 714 119 l 714 0 l 514 0 b 293 213 358 0 293 82 l 293 617 l 83 617 l 83 736 l 293 736 l 293 931 "},"ŧ":{"ha":833,"x_min":0,"x_max":0,"o":"m 428 931 l 428 736 l 717 736 l 717 617 l 428 617 l 428 443 l 717 443 l 717 333 l 428 333 l 428 218 b 522 119 428 157 461 119 l 714 119 l 714 0 l 514 0 b 293 213 358 0 293 82 l 293 333 l 86 333 l 86 443 l 293 443 l 293 617 l 83 617 l 83 736 l 293 736 l 293 931 "},"ť":{"ha":833,"x_min":0,"x_max":0,"o":"m 428 931 l 428 736 l 717 736 l 717 617 l 428 617 l 428 218 b 522 119 428 157 461 119 l 714 119 l 714 0 l 514 0 b 293 213 358 0 293 82 l 293 617 l 83 617 l 83 736 l 293 736 l 293 931 m 596 1025 l 746 1025 l 601 831 l 490 831 "},"ţ":{"ha":833,"x_min":0,"x_max":0,"o":"m 428 931 l 428 736 l 717 736 l 717 617 l 428 617 l 428 218 b 522 119 428 157 461 119 l 714 119 l 714 0 l 514 0 b 486 1 504 0 496 0 l 440 -49 b 575 -178 518 -49 575 -103 b 433 -312 575 -254 511 -312 b 261 -215 364 -312 317 -281 l 328 -154 b 426 -225 347 -179 379 -225 b 488 -168 463 -225 488 -203 b 386 -119 488 -125 440 -106 l 344 -65 l 417 14 b 293 213 331 43 293 114 l 293 617 l 83 617 l 83 736 l 293 736 l 293 931 "},"ț":{"ha":833,"x_min":0,"x_max":0,"o":"m 428 931 l 428 736 l 717 736 l 717 617 l 428 617 l 428 218 b 522 119 428 157 461 119 l 714 119 l 714 0 l 514 0 b 293 213 358 0 293 82 l 293 617 l 83 617 l 83 736 l 293 736 l 293 931 m 374 -83 l 515 -83 l 389 -264 l 286 -264 "},"u":{"ha":833,"x_min":0,"x_max":0,"o":"m 576 0 l 575 119 b 361 -17 536 28 456 -17 b 121 263 200 -17 121 104 l 121 736 l 256 736 l 256 297 b 396 99 256 167 299 99 b 569 297 500 99 569 167 l 569 736 l 704 736 l 704 0 "},"ú":{"ha":833,"x_min":0,"x_max":0,"o":"m 576 0 l 575 119 b 361 -17 536 28 456 -17 b 121 263 200 -17 121 104 l 121 736 l 256 736 l 256 297 b 396 99 256 167 299 99 b 569 297 500 99 569 167 l 569 736 l 704 736 l 704 0 m 443 1026 l 585 1026 l 458 846 l 356 846 "},"ŭ":{"ha":833,"x_min":0,"x_max":0,"o":"m 576 0 l 575 119 b 361 -17 536 28 456 -17 b 121 263 200 -17 121 104 l 121 736 l 256 736 l 256 297 b 396 99 256 167 299 99 b 569 297 500 99 569 167 l 569 736 l 704 736 l 704 0 m 307 1026 b 408 938 307 976 351 938 b 511 1026 465 938 510 976 l 611 1026 b 408 846 610 925 522 846 b 206 1026 294 846 207 925 "},"û":{"ha":833,"x_min":0,"x_max":0,"o":"m 576 0 l 575 119 b 361 -17 536 28 456 -17 b 121 263 200 -17 121 104 l 121 736 l 256 736 l 256 297 b 396 99 256 167 299 99 b 569 297 500 99 569 167 l 569 736 l 704 736 l 704 0 m 324 1013 l 490 1013 l 611 846 l 482 846 l 407 951 l 332 846 l 204 846 "},"ü":{"ha":833,"x_min":0,"x_max":0,"o":"m 576 0 l 575 119 b 361 -17 536 28 456 -17 b 121 263 200 -17 121 104 l 121 736 l 256 736 l 256 297 b 396 99 256 167 299 99 b 569 297 500 99 569 167 l 569 736 l 704 736 l 704 0 m 226 986 l 374 986 l 374 840 l 226 840 m 440 986 l 588 986 l 588 840 l 440 840 "},"ù":{"ha":833,"x_min":0,"x_max":0,"o":"m 576 0 l 575 119 b 361 -17 536 28 456 -17 b 121 263 200 -17 121 104 l 121 736 l 256 736 l 256 297 b 396 99 256 167 299 99 b 569 297 500 99 569 167 l 569 736 l 704 736 l 704 0 m 357 1026 l 463 832 l 351 832 l 207 1026 "},"ű":{"ha":833,"x_min":0,"x_max":0,"o":"m 576 0 l 575 119 b 361 -17 536 28 456 -17 b 121 263 200 -17 121 104 l 121 736 l 256 736 l 256 297 b 396 99 256 167 299 99 b 569 297 500 99 569 167 l 569 736 l 704 736 l 704 0 m 336 1026 l 478 1026 l 351 846 l 249 846 m 518 1026 l 660 1026 l 533 846 l 431 846 "},"ū":{"ha":833,"x_min":0,"x_max":0,"o":"m 576 0 l 575 119 b 361 -17 536 28 456 -17 b 121 263 200 -17 121 104 l 121 736 l 256 736 l 256 297 b 396 99 256 167 299 99 b 569 297 500 99 569 167 l 569 736 l 704 736 l 704 0 m 226 965 l 590 965 l 590 865 l 226 865 "},"ų":{"ha":833,"x_min":0,"x_max":0,"o":"m 664 -57 b 621 -147 643 -85 621 -119 b 667 -193 621 -174 639 -193 b 753 -164 692 -193 722 -178 l 753 -261 b 642 -300 718 -290 679 -301 b 515 -181 572 -300 515 -249 b 569 -54 515 -136 532 -93 l 618 0 l 576 0 l 575 119 b 361 -17 536 28 456 -17 b 121 263 200 -17 121 104 l 121 736 l 256 736 l 256 297 b 396 99 256 167 299 99 b 569 297 500 99 569 167 l 569 736 l 704 736 l 704 0 "},"ů":{"ha":833,"x_min":0,"x_max":0,"o":"m 576 0 l 575 119 b 361 -17 536 28 456 -17 b 121 263 200 -17 121 104 l 121 736 l 256 736 l 256 297 b 396 99 256 167 299 99 b 569 297 500 99 569 167 l 569 736 l 704 736 l 704 0 m 263 956 b 408 1101 263 1036 326 1101 b 553 956 489 1101 553 1036 b 408 811 553 875 489 811 b 263 956 326 811 263 875 m 351 956 b 408 900 351 925 375 900 b 464 956 440 900 464 925 b 408 1013 464 988 440 1013 b 351 956 375 1013 351 988 "},"ũ":{"ha":833,"x_min":0,"x_max":0,"o":"m 576 0 l 575 119 b 361 -17 536 28 456 -17 b 121 263 200 -17 121 104 l 121 736 l 256 736 l 256 297 b 396 99 256 167 299 99 b 569 297 500 99 569 167 l 569 736 l 704 736 l 704 0 m 172 844 b 314 1031 174 960 228 1031 b 414 992 363 1031 390 1015 b 494 939 443 967 458 939 b 547 1029 529 939 547 968 l 643 1029 b 501 843 642 917 588 843 b 393 889 446 843 417 864 b 322 933 369 913 353 933 b 268 844 286 933 268 907 l 172 844 "},"v":{"ha":833,"x_min":0,"x_max":0,"o":"m 499 0 l 335 0 l 67 736 l 211 736 l 417 144 l 622 736 l 767 736 "},"w":{"ha":833,"x_min":0,"x_max":0,"o":"m 579 194 l 671 736 l 811 736 l 663 0 l 511 0 l 417 431 l 322 0 l 171 0 l 22 736 l 163 736 l 254 194 l 351 639 l 482 639 "},"ẃ":{"ha":833,"x_min":0,"x_max":0,"o":"m 579 194 l 671 736 l 811 736 l 663 0 l 511 0 l 417 431 l 322 0 l 171 0 l 22 736 l 163 736 l 254 194 l 351 639 l 482 639 m 453 1026 l 594 1026 l 468 846 l 365 846 "},"ŵ":{"ha":833,"x_min":0,"x_max":0,"o":"m 579 194 l 671 736 l 811 736 l 663 0 l 511 0 l 417 431 l 322 0 l 171 0 l 22 736 l 163 736 l 254 194 l 351 639 l 482 639 m 332 1013 l 499 1013 l 619 846 l 490 846 l 415 951 l 340 846 l 213 846 "},"ẅ":{"ha":833,"x_min":0,"x_max":0,"o":"m 579 194 l 671 736 l 811 736 l 663 0 l 511 0 l 417 431 l 322 0 l 171 0 l 22 736 l 163 736 l 254 194 l 351 639 l 482 639 m 235 986 l 382 986 l 382 840 l 235 840 m 449 986 l 596 986 l 596 840 l 449 840 "},"ẁ":{"ha":833,"x_min":0,"x_max":0,"o":"m 579 194 l 671 736 l 811 736 l 663 0 l 511 0 l 417 431 l 322 0 l 171 0 l 22 736 l 163 736 l 254 194 l 351 639 l 482 639 m 365 1026 l 471 832 l 360 832 l 215 1026 "},"x":{"ha":833,"x_min":0,"x_max":0,"o":"m 754 736 l 500 376 l 767 0 l 601 0 l 417 271 l 231 0 l 65 0 l 335 378 l 79 736 l 244 736 l 417 483 l 588 736 "},"y":{"ha":833,"x_min":0,"x_max":0,"o":"m 215 736 l 425 153 l 626 736 l 769 736 l 475 -86 b 299 -208 446 -169 389 -208 l 201 -208 l 201 -90 l 282 -90 b 356 -40 319 -90 342 -76 l 379 22 l 338 22 l 71 736 "},"ý":{"ha":833,"x_min":0,"x_max":0,"o":"m 215 736 l 425 153 l 626 736 l 769 736 l 475 -86 b 299 -208 446 -169 389 -208 l 201 -208 l 201 -90 l 282 -90 b 356 -40 319 -90 342 -76 l 379 22 l 338 22 l 71 736 m 457 1026 l 599 1026 l 472 846 l 369 846 "},"ŷ":{"ha":833,"x_min":0,"x_max":0,"o":"m 215 736 l 425 153 l 626 736 l 769 736 l 475 -86 b 299 -208 446 -169 389 -208 l 201 -208 l 201 -90 l 282 -90 b 356 -40 319 -90 342 -76 l 379 22 l 338 22 l 71 736 m 338 1013 l 504 1013 l 625 846 l 496 846 l 421 951 l 346 846 l 218 846 "},"ÿ":{"ha":833,"x_min":0,"x_max":0,"o":"m 215 736 l 425 153 l 626 736 l 769 736 l 475 -86 b 299 -208 446 -169 389 -208 l 201 -208 l 201 -90 l 282 -90 b 356 -40 319 -90 342 -76 l 379 22 l 338 22 l 71 736 m 239 986 l 386 986 l 386 840 l 239 840 m 454 986 l 601 986 l 601 840 l 454 840 "},"ỳ":{"ha":833,"x_min":0,"x_max":0,"o":"m 215 736 l 425 153 l 626 736 l 769 736 l 475 -86 b 299 -208 446 -169 389 -208 l 201 -208 l 201 -90 l 282 -90 b 356 -40 319 -90 342 -76 l 379 22 l 338 22 l 71 736 m 371 1026 l 476 832 l 365 832 l 221 1026 "},"ỹ":{"ha":833,"x_min":0,"x_max":0,"o":"m 215 736 l 425 153 l 626 736 l 769 736 l 475 -86 b 299 -208 446 -169 389 -208 l 201 -208 l 201 -90 l 282 -90 b 356 -40 319 -90 342 -76 l 379 22 l 338 22 l 71 736 m 186 844 b 328 1031 188 960 242 1031 b 428 992 376 1031 404 1015 b 508 939 457 967 472 939 b 561 1029 543 939 561 968 l 657 1029 b 515 843 656 917 601 843 b 407 889 460 843 431 864 b 336 933 383 913 367 933 b 282 844 300 933 282 907 l 186 844 "},"z":{"ha":833,"x_min":0,"x_max":0,"o":"m 265 121 l 726 121 l 726 0 l 107 0 l 107 140 l 558 615 l 121 615 l 121 736 l 715 736 l 715 592 "},"ź":{"ha":833,"x_min":0,"x_max":0,"o":"m 265 121 l 726 121 l 726 0 l 107 0 l 107 140 l 558 615 l 121 615 l 121 736 l 715 736 l 715 592 m 454 1026 l 596 1026 l 469 846 l 367 846 "},"ž":{"ha":833,"x_min":0,"x_max":0,"o":"m 265 121 l 726 121 l 726 0 l 107 0 l 107 140 l 558 615 l 121 615 l 121 736 l 715 736 l 715 592 m 344 1013 l 419 907 l 494 1013 l 624 1013 l 503 846 l 336 846 l 217 1013 "},"ż":{"ha":833,"x_min":0,"x_max":0,"o":"m 265 121 l 726 121 l 726 0 l 107 0 l 107 140 l 558 615 l 121 615 l 121 736 l 715 736 l 715 592 m 343 986 l 490 986 l 490 840 l 343 840 "},"ª":{"ha":833,"x_min":0,"x_max":0,"o":"m 100 517 b 406 753 128 660 250 753 b 703 444 585 753 703 649 l 703 165 b 747 119 703 133 717 119 l 779 119 l 779 0 l 740 0 b 585 113 651 0 599 47 b 356 -17 557 44 471 -17 b 88 193 207 -17 88 61 b 369 421 88 346 200 389 l 568 460 b 404 628 567 572 503 628 b 243 507 321 628 260 578 l 100 517 m 229 196 b 372 101 231 144 275 101 b 571 311 483 101 571 179 l 571 343 l 413 315 b 229 196 310 297 229 289 "},"º":{"ha":833,"x_min":0,"x_max":0,"o":"m 417 -17 b 75 368 213 -17 75 135 b 417 753 75 601 213 753 b 758 368 621 753 758 601 b 417 -17 758 135 621 -17 m 217 368 b 417 108 217 206 290 108 b 617 368 543 108 617 206 b 417 628 617 531 543 628 b 217 368 290 628 217 531 "},"Λ":{"ha":833,"x_min":0,"x_max":0,"o":"m 331 986 l 503 986 l 801 0 l 658 0 l 417 833 l 175 0 l 32 0 "},"Ω":{"ha":833,"x_min":0,"x_max":0,"o":"m 417 876 b 157 508 264 876 157 725 b 364 133 157 301 247 138 l 364 0 l 14 0 l 14 132 l 201 132 b 13 519 88 208 13 365 b 417 1008 13 806 181 1008 b 821 519 653 1008 821 806 b 632 132 821 365 746 208 l 818 132 l 818 0 l 469 0 l 469 133 b 676 508 586 138 676 301 b 417 876 676 725 569 876 "},"λ":{"ha":833,"x_min":0,"x_max":0,"o":"m 717 0 b 499 186 601 0 542 51 l 403 492 l 217 0 l 74 0 l 343 688 l 310 793 b 225 868 294 842 275 868 l 140 868 l 140 986 l 228 986 b 446 800 344 986 404 935 l 635 193 b 719 118 650 144 669 118 l 769 118 l 769 0 l 717 0 "},"π":{"ha":833,"x_min":0,"x_max":0,"o":"m 810 736 l 810 617 l 672 617 l 672 215 b 764 119 672 156 704 119 l 808 119 l 808 0 l 764 0 b 538 218 606 0 538 82 l 538 617 l 300 617 l 300 0 l 165 0 l 165 617 l 21 617 l 21 736 "},"ℇ":{"ha":833,"x_min":0,"x_max":0,"o":"m 785 126 b 425 -22 713 39 567 -22 b 67 272 210 -22 67 100 b 275 532 67 400 139 493 b 100 750 160 565 100 640 b 425 1008 100 903 232 1008 b 756 871 550 1008 681 953 l 665 761 b 428 881 608 831 510 881 b 242 744 314 881 242 828 b 428 583 242 628 340 582 l 499 585 l 499 460 l 428 461 b 208 283 294 464 208 394 b 428 106 208 178 294 106 b 700 239 519 106 632 158 l 785 126 "},"⁄":{"ha":833,"x_min":0,"x_max":0,"o":"m 144 0 l 18 0 l 689 986 l 815 986 "},"½":{"ha":1667,"x_min":0,"x_max":0,"o":"m 561 0 l 435 0 l 1106 986 l 1232 986 m 243 860 l 278 860 b 403 988 358 860 403 906 l 475 988 l 475 449 l 382 449 l 382 794 l 243 794 m 1097 0 b 1258 271 1097 86 1121 181 l 1303 300 b 1369 400 1351 331 1369 361 b 1294 472 1369 442 1336 472 b 1197 376 1242 472 1210 439 l 1107 381 b 1294 557 1119 488 1193 557 b 1461 400 1393 557 1461 493 b 1333 215 1461 335 1415 268 l 1294 190 b 1206 85 1244 157 1208 119 l 1465 85 l 1465 0 l 1097 0 "},"⅓":{"ha":1667,"x_min":0,"x_max":0,"o":"m 561 0 l 435 0 l 1106 986 l 1232 986 m 242 860 l 276 860 b 401 988 357 860 401 906 l 474 988 l 474 449 l 381 449 l 381 794 l 242 794 m 1183 139 b 1289 63 1188 97 1235 63 b 1383 149 1342 63 1383 101 b 1281 242 1383 201 1339 242 l 1246 242 l 1246 328 l 1281 328 b 1365 397 1328 328 1365 364 b 1286 472 1365 438 1329 472 b 1203 417 1240 472 1207 446 l 1111 422 b 1286 557 1122 499 1199 557 b 1457 413 1383 557 1457 493 b 1364 290 1457 360 1425 308 b 1478 142 1429 271 1478 210 b 1288 -22 1478 50 1394 -22 b 1092 135 1181 -22 1097 46 "},"⅔":{"ha":1667,"x_min":0,"x_max":0,"o":"m 558 0 l 432 0 l 1103 986 l 1229 986 m 224 451 b 385 722 224 538 247 632 l 429 751 b 496 851 478 782 496 813 b 421 924 496 893 463 924 b 324 828 368 924 336 890 l 233 832 b 421 1008 246 939 319 1008 b 588 851 519 1008 588 944 b 460 667 588 786 542 719 l 421 642 b 332 536 371 608 335 571 l 592 536 l 592 451 l 224 451 m 1139 139 b 1244 63 1143 97 1190 63 b 1339 149 1297 63 1339 101 b 1236 242 1339 201 1294 242 l 1201 242 l 1201 328 l 1236 328 b 1321 397 1283 328 1321 364 b 1242 472 1321 438 1285 472 b 1158 417 1196 472 1163 446 l 1067 422 b 1242 557 1078 499 1154 557 b 1413 413 1339 557 1413 493 b 1319 290 1413 360 1381 308 b 1433 142 1385 271 1433 210 b 1243 -22 1433 50 1350 -22 b 1047 135 1136 -22 1053 46 "},"¼":{"ha":1667,"x_min":0,"x_max":0,"o":"m 561 0 l 435 0 l 1106 986 l 1232 986 m 243 860 l 278 860 b 403 988 358 860 403 906 l 475 988 l 475 449 l 382 449 l 382 794 l 243 794 m 1032 181 l 1303 539 l 1381 539 l 1381 186 l 1439 186 l 1439 101 l 1381 101 l 1381 0 l 1289 0 l 1289 101 l 1032 101 m 1289 186 l 1289 378 l 1146 186 "},"¾":{"ha":1667,"x_min":0,"x_max":0,"o":"m 561 0 l 435 0 l 1106 986 l 1232 986 m 314 590 b 419 514 318 549 365 514 b 514 600 472 514 514 553 b 411 693 514 653 469 693 l 376 693 l 376 779 l 411 779 b 496 849 458 779 496 815 b 417 924 496 889 460 924 b 333 868 371 924 338 897 l 242 874 b 417 1008 253 950 329 1008 b 588 864 514 1008 588 944 b 494 742 588 811 556 760 b 608 593 560 722 608 661 b 418 429 608 501 525 429 b 222 586 311 429 228 497 m 1032 181 l 1303 539 l 1381 539 l 1381 186 l 1439 186 l 1439 101 l 1381 101 l 1381 0 l 1289 0 l 1289 101 l 1032 101 m 1289 186 l 1289 378 l 1146 186 "},"⅕":{"ha":1667,"x_min":0,"x_max":0,"o":"m 563 0 l 436 0 l 1107 986 l 1233 986 m 244 860 l 279 860 b 404 988 360 860 404 906 l 476 988 l 476 449 l 383 449 l 383 794 l 244 794 m 1168 136 b 1264 63 1176 93 1217 63 b 1357 171 1317 63 1357 108 b 1264 279 1357 231 1317 279 b 1172 226 1233 279 1200 272 l 1083 226 l 1126 540 l 1414 540 l 1414 456 l 1206 456 l 1189 325 b 1278 361 1215 351 1242 361 b 1451 171 1379 361 1451 279 b 1261 -22 1451 57 1372 -22 b 1074 132 1160 -22 1082 42 "},"⅛":{"ha":1667,"x_min":0,"x_max":0,"o":"m 561 0 l 435 0 l 1106 986 l 1232 986 m 243 860 l 278 860 b 403 988 358 860 403 906 l 475 988 l 475 449 l 382 449 l 382 794 l 243 794 m 1049 143 b 1156 290 1049 211 1088 264 b 1075 404 1104 311 1075 349 b 1246 554 1075 490 1150 554 b 1417 404 1343 554 1417 490 b 1336 290 1417 349 1388 311 b 1443 143 1403 263 1443 211 b 1246 -22 1443 42 1358 -22 b 1049 143 1133 -22 1049 42 m 1143 149 b 1246 63 1143 97 1185 63 b 1349 149 1307 63 1349 97 b 1246 244 1349 206 1307 244 b 1143 149 1185 244 1143 206 m 1169 401 b 1246 324 1169 356 1201 324 b 1322 401 1290 324 1322 356 b 1246 469 1322 442 1290 469 b 1169 401 1201 469 1169 442 "},"⅜":{"ha":1667,"x_min":0,"x_max":0,"o":"m 561 0 l 435 0 l 1106 986 l 1232 986 m 314 590 b 419 514 318 549 365 514 b 514 600 472 514 514 553 b 411 693 514 653 469 693 l 376 693 l 376 779 l 411 779 b 496 849 458 779 496 815 b 417 924 496 889 460 924 b 333 868 371 924 338 897 l 242 874 b 417 1008 253 950 329 1008 b 588 864 514 1008 588 944 b 494 742 588 811 556 760 b 608 593 560 722 608 661 b 418 429 608 501 525 429 b 222 586 311 429 228 497 m 1049 143 b 1156 290 1049 211 1088 264 b 1075 404 1104 311 1075 349 b 1246 554 1075 490 1150 554 b 1417 404 1343 554 1417 490 b 1336 290 1417 349 1388 311 b 1443 143 1403 263 1443 211 b 1246 -22 1443 42 1358 -22 b 1049 143 1133 -22 1049 42 m 1143 149 b 1246 63 1143 97 1185 63 b 1349 149 1307 63 1349 97 b 1246 244 1349 206 1307 244 b 1143 149 1185 244 1143 206 m 1169 401 b 1246 324 1169 356 1201 324 b 1322 401 1290 324 1322 356 b 1246 469 1322 442 1290 469 b 1169 401 1201 469 1169 442 "},"⅝":{"ha":1667,"x_min":0,"x_max":0,"o":"m 561 0 l 435 0 l 1106 986 l 1232 986 m 324 583 b 419 510 332 540 372 510 b 513 618 472 510 513 556 b 419 726 513 678 472 726 b 328 674 389 726 356 719 l 239 674 l 282 988 l 569 988 l 569 903 l 361 903 l 344 772 b 433 808 371 799 397 808 b 607 618 535 808 607 726 b 417 425 607 504 528 425 b 229 579 315 425 238 489 m 1049 143 b 1156 290 1049 211 1088 264 b 1075 404 1104 311 1075 349 b 1246 554 1075 490 1150 554 b 1417 404 1343 554 1417 490 b 1336 290 1417 349 1388 311 b 1443 143 1403 263 1443 211 b 1246 -22 1443 42 1358 -22 b 1049 143 1133 -22 1049 42 m 1143 149 b 1246 63 1143 97 1185 63 b 1349 149 1307 63 1349 97 b 1246 244 1349 206 1307 244 b 1143 149 1185 244 1143 206 m 1169 401 b 1246 324 1169 356 1201 324 b 1322 401 1290 324 1322 356 b 1246 469 1322 442 1290 469 b 1169 401 1201 469 1169 442 "},"⅞":{"ha":1667,"x_min":0,"x_max":0,"o":"m 561 0 l 435 0 l 1106 986 l 1232 986 m 231 986 l 614 986 l 614 918 b 435 447 506 782 435 624 l 343 447 b 506 901 343 611 403 769 l 231 901 m 1049 143 b 1156 290 1049 211 1088 264 b 1075 404 1104 311 1075 349 b 1246 554 1075 490 1150 554 b 1417 404 1343 554 1417 490 b 1336 290 1417 349 1388 311 b 1443 143 1403 263 1443 211 b 1246 -22 1443 42 1358 -22 b 1049 143 1133 -22 1049 42 m 1143 149 b 1246 63 1143 97 1185 63 b 1349 149 1307 63 1349 97 b 1246 244 1349 206 1307 244 b 1143 149 1185 244 1143 206 m 1169 401 b 1246 324 1169 356 1201 324 b 1322 401 1290 324 1322 356 b 1246 469 1322 442 1290 469 b 1169 401 1201 469 1169 442 "},"₀":{"ha":833,"x_min":0,"x_max":0,"o":"m 417 -21 b 206 267 286 -21 206 90 b 417 557 206 444 286 557 b 628 267 547 557 628 444 b 417 -21 628 90 547 -21 m 297 267 b 308 172 297 231 301 199 l 481 447 b 417 469 463 461 442 469 b 297 267 342 469 297 397 m 353 90 b 417 67 371 75 392 67 b 536 267 492 67 536 139 b 525 365 536 304 532 338 l 353 90 "},"₁":{"ha":833,"x_min":0,"x_max":0,"o":"m 281 411 b 406 539 361 411 406 457 l 478 539 l 478 0 l 385 0 l 385 346 l 246 346 l 246 411 l 281 411 "},"₂":{"ha":833,"x_min":0,"x_max":0,"o":"m 232 381 b 419 557 244 488 318 557 b 586 400 518 557 586 493 b 458 215 586 335 540 268 l 419 190 b 331 85 369 157 333 119 l 590 85 l 590 0 l 222 0 b 383 271 222 86 246 181 l 428 300 b 494 400 476 331 494 361 b 419 472 494 442 461 472 b 322 376 367 472 335 439 l 232 381 "},"₃":{"ha":833,"x_min":0,"x_max":0,"o":"m 411 328 b 496 397 458 328 496 364 b 417 472 496 438 460 472 b 333 417 371 472 338 446 l 242 422 b 417 557 253 499 329 557 b 588 413 514 557 588 493 b 494 290 588 360 556 308 b 608 142 560 271 608 210 b 418 -22 608 50 525 -22 b 222 135 311 -22 228 46 l 314 139 b 419 63 318 97 365 63 b 514 149 472 63 514 101 b 411 242 514 201 469 242 l 376 242 l 376 328 l 411 328 "},"₄":{"ha":833,"x_min":0,"x_max":0,"o":"m 533 186 l 592 186 l 592 101 l 533 101 l 533 0 l 442 0 l 442 101 l 185 101 l 185 181 l 456 539 l 533 539 m 442 186 l 442 378 l 299 186 "},"₅":{"ha":833,"x_min":0,"x_max":0,"o":"m 569 456 l 361 456 l 344 325 b 433 361 371 351 397 361 b 607 171 535 361 607 279 b 417 -22 607 57 528 -22 b 229 132 315 -22 238 42 l 324 136 b 419 63 332 93 372 63 b 513 171 472 63 513 108 b 419 279 513 231 472 279 b 328 226 389 279 356 272 l 239 226 l 282 540 l 569 540 "},"₆":{"ha":833,"x_min":0,"x_max":0,"o":"m 515 414 b 435 469 503 449 474 469 b 318 311 365 469 329 396 b 436 367 344 346 383 367 b 606 174 531 367 606 289 b 418 -22 606 54 525 -22 b 229 233 292 -22 229 96 b 433 554 229 401 289 554 b 604 422 511 554 581 506 l 515 414 m 329 174 b 421 63 328 108 367 63 b 511 174 476 63 511 108 b 422 282 511 238 479 282 b 329 174 371 282 331 238 "},"₇":{"ha":833,"x_min":0,"x_max":0,"o":"m 614 538 l 614 469 b 435 -1 506 333 435 175 l 343 -1 b 506 453 343 163 403 321 l 231 453 l 231 538 "},"₈":{"ha":833,"x_min":0,"x_max":0,"o":"m 417 -22 b 219 143 304 -22 219 42 b 326 290 219 211 258 264 b 246 404 275 311 246 349 b 417 554 246 490 321 554 b 588 404 514 554 588 490 b 507 290 588 349 558 311 b 614 143 574 263 614 211 b 417 -22 614 42 529 -22 m 314 149 b 417 63 314 97 356 63 b 519 149 478 63 519 97 b 417 244 519 206 478 244 b 314 149 356 244 314 206 m 340 401 b 417 324 340 356 372 324 b 493 401 461 324 493 356 b 417 469 493 442 461 469 b 340 401 372 469 340 442 "},"₉":{"ha":833,"x_min":0,"x_max":0,"o":"m 324 118 b 404 63 336 83 365 63 b 522 222 467 63 510 122 b 403 165 494 186 456 165 b 233 358 308 165 233 243 b 421 554 233 478 314 554 b 610 299 547 554 610 436 b 406 -22 610 103 529 -22 b 235 110 328 -22 258 26 l 324 118 m 328 358 b 417 250 328 294 360 250 b 510 358 468 250 508 294 b 418 469 511 424 472 469 b 328 358 363 469 328 424 "},"⁰":{"ha":833,"x_min":0,"x_max":0,"o":"m 417 431 b 206 718 286 431 206 542 b 417 1008 206 896 286 1008 b 628 718 547 1008 628 896 b 417 431 628 542 547 431 m 297 718 b 308 624 297 682 301 650 l 481 899 b 417 921 463 913 442 921 b 297 718 342 921 297 849 m 353 542 b 417 518 371 526 392 518 b 536 718 492 518 536 590 b 525 817 536 756 532 789 l 353 542 "},"¹":{"ha":833,"x_min":0,"x_max":0,"o":"m 281 860 b 406 988 361 860 406 906 l 478 988 l 478 449 l 385 449 l 385 794 l 246 794 l 246 860 l 281 860 "},"²":{"ha":833,"x_min":0,"x_max":0,"o":"m 232 832 b 419 1008 244 939 318 1008 b 586 851 518 1008 586 944 b 458 667 586 786 540 719 l 419 642 b 331 536 369 608 333 571 l 590 536 l 590 451 l 222 451 b 383 722 222 538 246 632 l 428 751 b 494 851 476 782 494 813 b 419 924 494 893 461 924 b 322 828 367 924 335 890 l 232 832 "},"³":{"ha":833,"x_min":0,"x_max":0,"o":"m 411 779 b 496 849 458 779 496 815 b 417 924 496 889 460 924 b 333 868 371 924 338 897 l 242 874 b 417 1008 253 950 329 1008 b 588 864 514 1008 588 944 b 494 742 588 811 556 760 b 608 593 560 722 608 661 b 418 429 608 501 525 429 b 222 586 311 429 228 497 l 314 590 b 419 514 318 549 365 514 b 514 600 472 514 514 553 b 411 693 514 653 469 693 l 376 693 l 376 779 l 411 779 "},"⁴":{"ha":833,"x_min":0,"x_max":0,"o":"m 533 635 l 592 635 l 592 550 l 533 550 l 533 449 l 442 449 l 442 550 l 185 550 l 185 629 l 456 988 l 533 988 m 442 635 l 442 826 l 299 635 "},"⁵":{"ha":833,"x_min":0,"x_max":0,"o":"m 569 903 l 361 903 l 344 772 b 433 808 371 799 397 808 b 607 618 535 808 607 726 b 417 425 607 504 528 425 b 229 579 315 425 238 489 l 324 583 b 419 510 332 540 372 510 b 513 618 472 510 513 556 b 419 726 513 678 472 726 b 328 674 389 726 356 719 l 239 674 l 282 988 l 569 988 "},"⁶":{"ha":833,"x_min":0,"x_max":0,"o":"m 515 868 b 435 924 503 903 474 924 b 318 765 365 924 329 850 b 436 821 344 800 383 821 b 606 628 531 821 606 743 b 418 432 606 508 525 432 b 229 688 292 432 229 550 b 433 1008 229 856 289 1008 b 604 876 511 1008 581 960 l 515 868 m 329 628 b 421 517 328 563 367 517 b 511 628 476 517 511 563 b 422 736 511 692 479 736 b 329 628 371 736 331 692 "},"⁷":{"ha":833,"x_min":0,"x_max":0,"o":"m 614 986 l 614 918 b 435 447 506 782 435 624 l 343 447 b 506 901 343 611 403 769 l 231 901 l 231 986 "},"⁸":{"ha":833,"x_min":0,"x_max":0,"o":"m 417 432 b 219 597 304 432 219 496 b 326 744 219 665 258 718 b 246 858 275 765 246 803 b 417 1008 246 944 321 1008 b 588 858 514 1008 588 944 b 507 744 588 803 558 765 b 614 597 574 717 614 665 b 417 432 614 496 529 432 m 314 603 b 417 517 314 551 356 517 b 519 603 478 517 519 551 b 417 699 519 660 478 699 b 314 603 356 699 314 660 m 340 856 b 417 778 340 810 372 778 b 493 856 461 778 493 810 b 417 924 493 896 461 924 b 340 856 372 924 340 896 "},"⁹":{"ha":833,"x_min":0,"x_max":0,"o":"m 324 572 b 404 517 336 538 365 517 b 522 676 467 517 510 576 b 403 619 494 640 456 619 b 233 813 308 619 233 697 b 421 1008 233 932 314 1008 b 610 753 547 1008 610 890 b 406 432 610 557 529 432 b 235 564 328 432 258 481 l 324 572 m 328 813 b 417 704 328 749 360 704 b 510 813 468 704 508 749 b 418 924 511 878 472 924 b 328 813 363 924 328 878 "}," ":{"ha":833,"x_min":0,"x_max":0,"o":""},"。":{"ha":833,"x_min":0,"x_max":0,"o":"m 418 -158 b 232 25 315 -158 232 -76 b 418 211 232 128 315 211 b 601 25 519 211 601 128 b 418 -158 601 -76 519 -158 m 339 25 b 418 -53 339 -18 375 -53 b 494 25 461 -53 494 -18 b 418 106 494 68 461 106 b 339 25 375 106 339 68 "},".":{"ha":833,"x_min":0,"x_max":0,"o":"m 506 172 l 506 0 l 328 0 l 328 172 "},",":{"ha":833,"x_min":0,"x_max":0,"o":"m 403 -224 l 326 -224 l 400 0 l 328 0 l 328 172 l 506 172 l 506 0 "},":":{"ha":833,"x_min":0,"x_max":0,"o":"m 506 172 l 506 0 l 328 0 l 328 172 m 328 649 l 506 649 l 506 476 l 328 476 "},";":{"ha":833,"x_min":0,"x_max":0,"o":"m 508 649 l 508 476 l 331 476 l 331 649 m 404 0 l 332 0 l 332 172 l 510 172 l 510 0 l 407 -224 l 331 -224 "},"…":{"ha":833,"x_min":0,"x_max":0,"o":"m 243 172 l 243 0 l 65 0 l 65 172 m 326 172 l 504 172 l 504 0 l 326 0 m 590 172 l 768 172 l 768 0 l 590 0 "},"!":{"ha":833,"x_min":0,"x_max":0,"o":"m 486 986 l 486 674 b 461 296 486 549 469 421 l 372 296 b 347 674 364 421 347 549 l 347 986 m 328 172 l 506 172 l 506 0 l 328 0 "},"¡":{"ha":833,"x_min":0,"x_max":0,"o":"m 347 88 b 372 465 347 213 364 340 l 461 465 b 486 88 469 340 486 213 l 486 -225 l 347 -225 l 347 88 m 328 761 l 506 761 l 506 589 l 328 589 "},"?":{"ha":833,"x_min":0,"x_max":0,"o":"m 335 294 b 453 556 335 397 364 483 b 593 729 529 615 593 644 b 411 876 594 815 522 876 b 218 686 308 876 232 803 l 72 694 b 406 1008 90 881 225 1008 b 739 729 603 1008 739 894 b 568 479 739 636 688 558 b 468 294 494 432 468 369 l 335 294 m 313 172 l 490 172 l 490 0 l 313 0 "},"¿":{"ha":833,"x_min":0,"x_max":0,"o":"m 494 489 b 376 228 494 386 465 300 b 236 54 300 168 236 139 b 418 -93 235 -32 307 -93 b 611 97 521 -93 597 -19 l 757 89 b 424 -225 739 -97 604 -225 b 90 54 226 -225 90 -111 b 261 304 90 147 142 225 b 361 489 335 351 361 414 l 494 489 m 339 783 l 517 783 l 517 611 l 339 611 "},"·":{"ha":833,"x_min":0,"x_max":0,"o":"m 506 496 l 506 324 l 328 324 l 328 496 "},"•":{"ha":833,"x_min":0,"x_max":0,"o":"m 417 231 b 260 388 328 231 260 300 b 417 543 260 476 328 543 b 574 388 504 543 574 476 b 417 231 574 300 504 231 "},"*":{"ha":833,"x_min":0,"x_max":0,"o":"m 656 711 l 499 713 l 579 576 l 494 529 l 417 665 l 339 529 l 254 576 l 335 713 l 178 711 l 178 808 l 335 807 l 254 943 l 339 990 l 417 854 l 494 990 l 579 943 l 499 807 l 656 808 "},"〃":{"ha":833,"x_min":0,"x_max":0,"o":"m 311 390 l 211 390 l 297 668 l 439 668 m 482 668 l 622 668 l 496 390 l 394 390 "},"#":{"ha":833,"x_min":0,"x_max":0,"o":"m 176 264 l 65 264 l 82 379 l 196 379 l 236 608 l 119 608 l 136 724 l 256 724 l 301 985 l 419 986 l 374 724 l 547 724 l 593 985 l 711 986 l 665 724 l 767 724 l 750 608 l 644 608 l 606 379 l 713 379 l 696 264 l 585 264 l 539 0 l 422 0 l 468 264 l 294 264 l 249 0 l 131 0 m 488 379 l 528 608 l 354 608 l 314 379 "},"/":{"ha":833,"x_min":0,"x_max":0,"o":"m 553 1061 l 690 1061 l 279 -125 l 142 -125 "},"\\":{"ha":833,"x_min":0,"x_max":0,"o":"m 554 -125 l 143 1061 l 281 1061 l 692 -125 "},"＆":{"ha":833,"x_min":0,"x_max":0,"o":"m 383 1007 b 132 778 253 1018 132 924 b 222 546 132 708 160 628 b 36 264 113 464 35 411 b 388 -17 36 83 178 -17 b 615 57 478 -17 563 11 l 661 0 l 822 0 l 701 149 b 790 435 756 215 790 326 l 651 447 b 614 257 656 378 644 297 l 411 515 b 588 725 506 576 565 651 b 383 1007 632 867 521 993 m 176 263 b 306 443 175 347 249 406 l 526 160 b 382 108 500 128 444 108 b 176 263 258 108 178 168 m 269 769 b 375 874 268 829 314 878 b 463 769 429 871 463 828 b 332 617 463 713 411 653 b 269 769 288 676 269 728 "},"＊":{"ha":833,"x_min":0,"x_max":0,"o":"m 656 711 l 499 713 l 579 576 l 494 529 l 417 665 l 339 529 l 254 576 l 335 713 l 178 711 l 178 808 l 335 807 l 254 943 l 339 990 l 417 854 l 494 990 l 579 943 l 499 807 l 656 808 "},"＠":{"ha":833,"x_min":0,"x_max":0,"o":"m 614 682 l 589 361 b 619 208 582 260 590 208 b 697 451 667 208 690 279 b 464 878 706 707 611 878 b 138 417 283 878 147 686 b 553 57 124 53 321 -74 l 599 -42 b 26 417 311 -215 10 -24 b 467 986 38 751 222 986 b 807 458 679 986 817 772 b 490 222 793 53 521 47 b 354 113 464 157 410 113 b 197 403 243 113 176 233 b 407 694 215 574 303 694 b 503 636 453 694 488 672 l 507 682 m 314 407 b 382 207 303 289 331 207 b 482 407 432 207 471 289 b 418 610 494 528 471 610 b 314 407 368 610 326 528 "},"＼":{"ha":833,"x_min":0,"x_max":0,"o":"m 554 -125 l 143 1061 l 281 1061 l 692 -125 "},"：":{"ha":833,"x_min":0,"x_max":0,"o":"m 506 172 l 506 0 l 328 0 l 328 172 m 328 649 l 506 649 l 506 476 l 328 476 "},"，":{"ha":833,"x_min":0,"x_max":0,"o":"m 403 -224 l 326 -224 l 400 0 l 328 0 l 328 172 l 506 172 l 506 0 "},"！":{"ha":833,"x_min":0,"x_max":0,"o":"m 486 986 l 486 674 b 461 296 486 549 469 421 l 372 296 b 347 674 364 421 347 549 l 347 986 m 328 172 l 506 172 l 506 0 l 328 0 "},"＃":{"ha":833,"x_min":0,"x_max":0,"o":"m 168 264 l 57 264 l 74 379 l 188 379 l 228 608 l 111 608 l 128 724 l 247 724 l 293 985 l 411 986 l 365 724 l 539 724 l 585 985 l 703 986 l 657 724 l 758 724 l 742 608 l 636 608 l 597 379 l 704 379 l 688 264 l 576 264 l 531 0 l 414 0 l 460 264 l 286 264 l 240 0 l 122 0 m 479 379 l 519 608 l 346 608 l 306 379 "},"％":{"ha":833,"x_min":0,"x_max":0,"o":"m 713 1008 l 128 -17 l -15 -17 l 569 1008 m -44 746 b 131 988 -44 882 19 988 b 306 746 242 988 306 882 b 131 504 306 610 242 504 b -44 746 19 504 -44 610 m 68 746 b 131 614 68 660 90 614 b 194 746 171 614 194 660 b 131 878 194 832 171 878 b 68 746 90 878 68 832 m 411 242 b 586 483 411 378 475 483 b 761 242 697 483 761 378 b 586 0 761 106 697 0 b 411 242 475 0 411 106 m 524 242 b 586 110 524 156 546 110 b 650 242 626 110 650 156 b 586 374 650 328 626 374 b 524 242 546 374 524 328 "},"．":{"ha":833,"x_min":0,"x_max":0,"o":"m 506 164 l 506 -8 l 328 -8 l 328 164 "},"？":{"ha":833,"x_min":0,"x_max":0,"o":"m 346 294 b 464 556 346 397 375 483 b 604 729 540 615 604 644 b 422 876 606 815 533 876 b 229 686 319 876 243 803 l 83 694 b 417 1008 101 881 236 1008 b 750 729 614 1008 750 894 b 579 479 750 636 699 558 b 479 294 506 432 479 369 l 346 294 m 324 172 l 501 172 l 501 0 l 324 0 "},"＂":{"ha":833,"x_min":0,"x_max":0,"o":"m 833 986 l 833 874 l 800 629 l 706 629 l 700 986 m 458 986 l 592 986 l 586 629 l 492 629 l 458 874 "},"＇":{"ha":833,"x_min":0,"x_max":0,"o":"m 485 986 l 485 876 l 465 629 l 371 629 l 351 876 l 351 986 "},"；":{"ha":833,"x_min":0,"x_max":0,"o":"m 508 649 l 508 476 l 331 476 l 331 649 m 404 0 l 332 0 l 332 172 l 510 172 l 510 0 l 407 -224 l 331 -224 "},"／":{"ha":833,"x_min":0,"x_max":0,"o":"m 553 1061 l 690 1061 l 279 -125 l 142 -125 "},"＿":{"ha":833,"x_min":0,"x_max":0,"o":"m 747 -58 l 747 -183 l 86 -183 l 86 -58 "},"-":{"ha":833,"x_min":0,"x_max":0,"o":"m 650 482 l 650 357 l 183 357 l 183 482 "},"­":{"ha":833,"x_min":0,"x_max":0,"o":"m 650 482 l 650 357 l 183 357 l 183 482 "},"–":{"ha":833,"x_min":0,"x_max":0,"o":"m 725 482 l 725 357 l 108 357 l 108 482 "},"—":{"ha":833,"x_min":0,"x_max":0,"o":"m 778 482 l 778 357 l 56 357 l 56 482 "},"_":{"ha":833,"x_min":0,"x_max":0,"o":"m 747 -58 l 747 -183 l 86 -183 l 86 -58 "},"〜":{"ha":833,"x_min":0,"x_max":0,"o":"m 419 531 b 250 590 356 571 299 590 b 7 433 156 590 57 531 l 97 344 b 250 460 142 418 196 460 b 414 396 292 460 346 439 b 583 336 478 356 535 336 b 826 493 678 336 776 396 l 736 582 b 583 467 692 508 638 467 b 419 531 542 467 488 488 "},"－":{"ha":833,"x_min":0,"x_max":0,"o":"m 803 482 l 803 357 l 31 357 l 31 482 "},"(":{"ha":833,"x_min":0,"x_max":0,"o":"m 628 1069 b 628 -125 322 694 322 250 l 503 -125 b 503 1069 164 250 164 694 l 628 1069 "},")":{"ha":833,"x_min":0,"x_max":0,"o":"m 331 1069 b 331 -125 669 694 669 250 l 206 -125 b 206 1069 511 250 511 694 l 331 1069 "},"{":{"ha":833,"x_min":0,"x_max":0,"o":"m 140 532 b 346 707 290 529 346 576 l 346 818 b 613 1069 346 967 454 1069 l 688 1069 l 688 944 b 475 818 533 950 475 914 l 475 699 b 299 468 475 575 401 485 l 299 464 b 475 231 404 446 475 356 l 475 111 b 688 -17 475 15 533 -22 l 688 -140 l 613 -140 b 346 110 454 -140 346 -39 l 346 222 b 140 397 346 351 290 400 l 140 532 "},"}":{"ha":833,"x_min":0,"x_max":0,"o":"m 693 397 b 488 222 543 400 488 351 l 488 110 b 221 -140 488 -39 379 -140 l 146 -140 l 146 -17 b 358 111 300 -22 358 15 l 358 231 b 535 464 358 356 429 446 l 535 468 b 358 699 432 485 358 575 l 358 818 b 146 944 358 914 300 950 l 146 1069 l 221 1069 b 488 818 379 1069 488 967 l 488 707 b 693 532 488 576 543 529 l 693 397 "},"[":{"ha":833,"x_min":0,"x_max":0,"o":"m 649 1069 l 649 944 l 358 944 l 358 0 l 649 0 l 649 -125 l 226 -125 l 226 1069 "},"]":{"ha":833,"x_min":0,"x_max":0,"o":"m 607 -125 l 185 -125 l 185 0 l 475 0 l 475 944 l 185 944 l 185 1069 l 607 1069 "},"〈":{"ha":833,"x_min":0,"x_max":0,"o":"m 610 1140 l 361 492 l 610 -158 l 481 -158 l 233 492 l 481 1140 "},"〉":{"ha":833,"x_min":0,"x_max":0,"o":"m 600 492 l 353 -158 l 224 -158 l 472 492 l 224 1140 l 353 1140 "},"【":{"ha":833,"x_min":0,"x_max":0,"o":"m 639 1146 b 639 -87 393 749 393 311 l 253 -87 l 253 1146 l 639 1146 "},"】":{"ha":833,"x_min":0,"x_max":0,"o":"m 581 -87 l 194 -87 b 194 1146 440 311 440 749 l 581 1146 "},"｛":{"ha":833,"x_min":0,"x_max":0,"o":"m 140 532 b 346 707 290 529 346 576 l 346 818 b 613 1069 346 967 454 1069 l 688 1069 l 688 944 b 475 818 533 950 475 914 l 475 699 b 299 468 475 575 401 485 l 299 464 b 475 231 404 446 475 356 l 475 111 b 688 -17 475 15 533 -22 l 688 -140 l 613 -140 b 346 110 454 -140 346 -39 l 346 222 b 140 397 346 351 290 400 l 140 532 "},"｝":{"ha":833,"x_min":0,"x_max":0,"o":"m 693 397 b 488 222 543 400 488 351 l 488 110 b 221 -140 488 -39 379 -140 l 146 -140 l 146 -17 b 358 111 300 -22 358 15 l 358 231 b 535 464 358 356 429 446 l 535 468 b 358 699 432 485 358 575 l 358 818 b 146 944 358 914 300 950 l 146 1069 l 221 1069 b 488 818 379 1069 488 967 l 488 707 b 693 532 488 576 543 529 l 693 397 "},"「":{"ha":833,"x_min":0,"x_max":0,"o":"m 236 1147 l 658 1147 l 658 1028 l 358 1028 l 358 324 l 236 324 "},"」":{"ha":833,"x_min":0,"x_max":0,"o":"m 597 -143 l 175 -143 l 175 -24 l 475 -24 l 475 681 l 597 681 "},"《":{"ha":833,"x_min":0,"x_max":0,"o":"m 481 1140 l 232 492 l 481 -158 l 351 -158 l 104 492 l 351 1140 m 600 1140 l 729 1140 l 481 492 l 729 -158 l 600 -158 l 353 492 "},"》":{"ha":833,"x_min":0,"x_max":0,"o":"m 729 492 l 482 -158 l 353 -158 l 601 492 l 353 1140 l 482 1140 m 353 492 l 104 1140 l 233 1140 l 481 492 l 233 -158 l 104 -158 "},"〔":{"ha":833,"x_min":0,"x_max":0,"o":"m 667 1094 l 361 822 l 361 160 l 668 -117 l 590 -203 l 240 111 l 240 871 l 588 1181 "},"〕":{"ha":833,"x_min":0,"x_max":0,"o":"m 593 871 l 593 111 l 243 -203 l 165 -117 l 472 160 l 472 822 l 167 1094 l 246 1181 "},"『":{"ha":833,"x_min":0,"x_max":0,"o":"m 236 1147 l 657 1147 l 657 925 l 458 925 l 458 324 l 236 324 m 401 381 l 401 982 l 600 982 l 600 1090 l 293 1090 l 293 381 "},"』":{"ha":833,"x_min":0,"x_max":0,"o":"m 597 -140 l 176 -140 l 176 82 l 375 82 l 375 683 l 597 683 m 540 -83 l 540 626 l 432 626 l 432 25 l 233 25 l 233 -83 "},"〖":{"ha":833,"x_min":0,"x_max":0,"o":"m 638 1146 b 638 -87 390 749 390 311 l 253 -87 l 253 1146 l 638 1146 m 528 -26 b 528 1085 342 344 342 717 l 317 1085 l 317 -26 "},"〗":{"ha":833,"x_min":0,"x_max":0,"o":"m 581 -87 l 196 -87 b 196 1146 443 311 443 749 l 581 1146 m 517 -26 l 517 1085 l 306 1085 b 306 -26 492 717 492 344 "},"［":{"ha":833,"x_min":0,"x_max":0,"o":"m 657 1069 l 657 944 l 367 944 l 367 0 l 657 0 l 657 -125 l 235 -125 l 235 1069 "},"］":{"ha":833,"x_min":0,"x_max":0,"o":"m 618 -125 l 196 -125 l 196 0 l 486 0 l 486 944 l 196 944 l 196 1069 l 618 1069 "},"（":{"ha":833,"x_min":0,"x_max":0,"o":"m 628 1069 b 628 -125 322 694 322 250 l 503 -125 b 503 1069 164 250 164 694 l 628 1069 "},"）":{"ha":833,"x_min":0,"x_max":0,"o":"m 343 1069 b 343 -125 682 694 682 250 l 218 -125 b 218 1069 524 250 524 694 l 343 1069 "},"‚":{"ha":833,"x_min":0,"x_max":0,"o":"m 411 -224 l 335 -224 l 408 0 l 336 0 l 336 172 l 514 172 l 514 0 "},"„":{"ha":833,"x_min":0,"x_max":0,"o":"m 283 -224 l 207 -224 l 281 0 l 208 0 l 208 172 l 386 172 l 386 0 m 522 0 l 450 0 l 450 172 l 628 172 l 628 0 l 525 -224 l 449 -224 "},"“":{"ha":833,"x_min":0,"x_max":0,"o":"m 550 986 l 626 986 l 553 763 l 625 763 l 625 590 l 447 590 l 447 763 m 206 763 l 308 986 l 385 986 l 311 763 l 383 763 l 383 590 l 206 590 "},"”":{"ha":833,"x_min":0,"x_max":0,"o":"m 283 590 l 207 590 l 281 814 l 208 814 l 208 986 l 386 986 l 386 814 m 522 814 l 450 814 l 450 986 l 628 986 l 628 814 l 525 590 l 449 590 "},"‘":{"ha":833,"x_min":0,"x_max":0,"o":"m 421 986 l 497 986 l 424 763 l 496 763 l 496 590 l 318 590 l 318 763 "},"’":{"ha":833,"x_min":0,"x_max":0,"o":"m 411 590 l 335 590 l 408 814 l 336 814 l 336 986 l 514 986 l 514 814 "},"«":{"ha":833,"x_min":0,"x_max":0,"o":"m 451 661 l 215 383 l 451 106 l 290 106 l 94 338 l 94 429 l 290 661 m 382 429 l 578 661 l 739 661 l 503 383 l 739 106 l 578 106 l 382 338 "},"»":{"ha":833,"x_min":0,"x_max":0,"o":"m 739 429 l 739 338 l 543 106 l 382 106 l 618 383 l 382 661 l 543 661 m 331 383 l 94 661 l 256 661 l 451 429 l 451 338 l 256 106 l 94 106 "},"‹":{"ha":833,"x_min":0,"x_max":0,"o":"m 617 661 l 381 383 l 617 106 l 456 106 l 260 338 l 260 429 l 456 661 "},"›":{"ha":833,"x_min":0,"x_max":0,"o":"m 574 429 l 574 338 l 378 106 l 217 106 l 453 383 l 217 661 l 378 661 "},"\"":{"ha":833,"x_min":0,"x_max":0,"o":"m 604 986 l 604 874 l 571 629 l 476 629 l 471 986 m 229 986 l 363 986 l 357 629 l 263 629 l 229 874 "},"'":{"ha":833,"x_min":0,"x_max":0,"o":"m 483 986 l 483 876 l 464 629 l 369 629 l 350 876 l 350 986 "},"ƒ":{"ha":833,"x_min":0,"x_max":0,"o":"m 72 117 l 213 117 b 296 194 261 117 290 144 l 342 610 l 171 610 l 171 729 l 356 729 l 363 796 b 578 986 376 919 450 986 l 729 986 l 729 868 l 579 868 b 494 793 529 868 500 842 l 488 729 l 729 729 l 729 610 l 474 610 l 426 189 b 211 -1 413 65 338 -3 l 72 0 "},"฿":{"ha":833,"x_min":0,"x_max":0,"o":"m 451 1118 l 451 982 b 735 713 635 964 735 869 b 549 510 735 606 660 526 b 776 279 690 494 776 410 b 451 0 776 110 654 6 l 451 -126 l 343 -126 l 343 0 l 103 0 l 103 986 l 343 986 l 343 1118 m 343 132 l 343 436 l 242 436 l 242 132 m 343 567 l 343 854 l 242 854 l 242 567 m 451 132 b 632 283 564 138 632 194 b 451 436 632 375 567 431 l 451 132 m 451 572 b 590 710 542 588 590 636 b 451 849 590 785 542 833 l 451 572 "},"@":{"ha":833,"x_min":0,"x_max":0,"o":"m 614 682 l 589 361 b 619 208 582 260 590 208 b 697 451 667 208 690 279 b 464 878 706 707 611 878 b 138 417 283 878 147 686 b 553 57 124 53 321 -74 l 599 -42 b 26 417 311 -215 10 -24 b 467 986 38 751 222 986 b 807 458 679 986 817 772 b 490 222 793 53 521 47 b 354 113 464 157 410 113 b 197 403 243 113 176 233 b 407 694 215 574 303 694 b 503 636 453 694 488 672 l 507 682 m 314 407 b 382 207 303 289 331 207 b 482 407 432 207 471 289 b 418 610 494 528 471 610 b 314 407 368 610 326 528 "},"&":{"ha":833,"x_min":0,"x_max":0,"o":"m 383 1007 b 132 778 253 1018 132 924 b 222 546 132 708 160 628 b 36 264 113 464 35 411 b 388 -17 36 83 178 -17 b 615 57 478 -17 563 11 l 661 0 l 822 0 l 701 149 b 790 435 756 215 790 326 l 651 447 b 614 257 656 378 644 297 l 411 515 b 588 725 506 576 565 651 b 383 1007 632 867 521 993 m 176 263 b 306 443 175 347 249 406 l 526 160 b 382 108 500 128 444 108 b 176 263 258 108 178 168 m 269 769 b 375 874 268 829 314 878 b 463 769 429 871 463 828 b 332 617 463 713 411 653 b 269 769 288 676 269 728 "},"¶":{"ha":833,"x_min":0,"x_max":0,"o":"m 714 0 l 594 0 l 594 881 l 496 881 l 496 0 l 375 0 l 375 426 b 51 706 176 431 51 538 b 389 986 51 878 182 986 l 714 986 "},"§":{"ha":833,"x_min":0,"x_max":0,"o":"m 583 700 b 410 821 569 776 508 821 b 274 733 331 821 274 786 b 446 624 275 681 313 657 b 726 385 653 572 726 510 b 618 233 726 317 690 265 b 722 63 700 190 722 132 b 431 -146 722 -75 582 -146 b 107 106 260 -146 121 -43 l 249 114 b 431 -19 261 29 333 -19 b 581 71 522 -19 581 15 b 408 188 581 122 533 158 b 129 396 211 233 133 290 b 250 576 128 469 163 535 b 132 725 172 613 132 661 b 424 947 132 868 263 947 b 724 708 549 947 703 860 l 583 700 m 269 411 b 432 304 269 360 310 317 b 585 394 524 304 585 338 b 406 499 585 474 475 499 b 269 411 328 499 269 463 "},"©":{"ha":833,"x_min":0,"x_max":0,"o":"m 415 -17 b 4 496 172 -17 4 193 b 415 1008 4 799 172 1008 b 828 496 658 1008 828 799 b 415 -17 828 193 658 -17 m 107 496 b 415 86 107 243 225 86 b 725 496 606 86 725 243 b 415 906 725 749 606 906 b 107 496 225 906 107 749 m 185 494 b 424 810 185 686 279 810 b 643 599 533 810 629 729 l 540 592 b 424 707 529 667 485 707 b 288 494 332 707 288 629 b 424 283 288 361 332 283 b 544 410 486 283 532 326 l 647 403 b 424 181 631 265 538 181 b 185 494 279 181 185 303 "},"®":{"ha":833,"x_min":0,"x_max":0,"o":"m 407 843 b 563 726 503 843 563 799 b 483 622 563 675 533 636 l 576 469 l 489 469 l 407 611 l 357 611 l 357 469 l 279 469 l 279 843 l 407 843 m 67 658 b 417 1008 67 851 222 1008 b 767 658 611 1008 767 851 b 417 306 767 464 611 306 b 67 658 222 306 67 464 m 151 658 b 417 392 151 511 271 392 b 682 658 561 392 682 511 b 417 922 682 804 561 922 b 151 658 271 922 151 804 m 414 675 b 485 728 458 675 485 694 b 414 776 485 760 458 776 l 356 776 l 356 675 "},"℗":{"ha":833,"x_min":0,"x_max":0,"o":"m 426 843 b 583 726 522 843 583 799 b 429 611 583 653 528 611 l 376 611 l 376 469 l 300 469 l 300 843 l 426 843 m 67 658 b 417 1008 67 851 222 1008 b 767 658 611 1008 767 851 b 417 306 767 464 611 306 b 67 658 222 306 67 464 m 151 658 b 417 392 151 511 271 392 b 682 658 561 392 682 511 b 417 922 682 804 561 922 b 151 658 271 922 151 804 m 435 675 b 506 728 479 675 506 694 b 435 776 506 760 479 776 l 376 776 l 376 675 "},"™":{"ha":833,"x_min":0,"x_max":0,"o":"m 332 986 l 332 903 l 221 903 l 221 499 l 132 499 l 132 903 l 21 903 l 21 986 m 372 986 l 472 986 l 589 624 l 706 986 l 804 986 l 804 499 l 715 499 l 715 738 l 636 499 l 542 499 l 461 743 l 461 499 l 372 499 "},"°":{"ha":833,"x_min":0,"x_max":0,"o":"m 417 526 b 199 744 297 526 199 625 b 417 963 199 864 297 963 b 635 744 536 963 635 864 b 417 526 635 625 536 526 m 311 744 b 417 638 311 686 358 638 b 522 744 475 638 522 686 b 417 851 522 803 475 851 b 311 744 358 851 311 803 "},"′":{"ha":833,"x_min":0,"x_max":0,"o":"m 404 846 l 301 846 l 389 1026 l 531 1026 "},"″":{"ha":833,"x_min":0,"x_max":0,"o":"m 300 846 l 197 846 l 285 1026 l 426 1026 m 496 1026 l 638 1026 l 511 846 l 408 846 "},"|":{"ha":833,"x_min":0,"x_max":0,"o":"m 483 1069 l 483 -125 l 350 -125 l 350 1069 "},"¦":{"ha":833,"x_min":0,"x_max":0,"o":"m 481 986 l 481 493 l 353 493 l 353 986 m 353 285 l 481 285 l 481 -208 l 353 -208 "},"†":{"ha":833,"x_min":0,"x_max":0,"o":"m 482 986 l 482 735 l 696 735 l 696 615 l 482 615 l 482 0 l 354 0 l 354 615 l 139 615 l 139 735 l 354 735 l 354 986 "},"‡":{"ha":833,"x_min":0,"x_max":0,"o":"m 479 986 l 479 735 l 694 735 l 694 615 l 479 615 l 479 143 l 696 143 l 696 24 l 479 24 l 479 -208 l 351 -208 l 351 24 l 138 24 l 138 143 l 351 143 l 351 615 l 136 615 l 136 735 l 351 735 l 351 986 "},"№":{"ha":833,"x_min":0,"x_max":0,"o":"m 169 986 l 324 333 l 324 986 l 450 986 l 450 0 l 292 0 l 133 658 l 133 0 l 7 0 l 7 986 m 492 443 b 660 685 492 590 563 685 b 829 443 757 685 829 590 b 660 201 829 296 757 201 b 492 443 563 201 492 296 m 514 119 l 807 119 l 807 0 l 514 0 m 603 443 b 660 311 603 361 628 311 b 718 443 693 311 718 361 b 660 575 718 525 693 575 b 603 443 628 575 603 525 "},"␣":{"ha":833,"x_min":0,"x_max":0,"o":"m 168 0 l 168 -149 l 665 -149 l 665 0 l 782 0 l 782 -265 l 51 -265 l 51 0 "},"␌":{"ha":833,"x_min":0,"x_max":0,"o":"m 744 557 l 744 486 l 533 486 l 533 358 l 732 358 l 732 288 l 533 288 l 533 99 l 461 99 l 461 557 m 110 875 l 393 875 l 393 804 l 182 804 l 182 676 l 381 676 l 381 606 l 182 606 l 182 417 l 110 417 "},"⌧":{"ha":833,"x_min":0,"x_max":0,"o":"m 814 986 l 814 0 l 19 0 l 19 986 m 711 103 l 711 883 l 122 883 l 122 103 m 293 697 l 418 574 l 540 696 l 621 615 l 499 493 l 622 368 l 540 286 l 417 411 l 293 288 l 213 368 l 336 492 l 211 615 "},"⌫":{"ha":833,"x_min":0,"x_max":0,"o":"m 822 986 l 822 0 l 218 0 l 6 490 l 218 986 m 288 103 l 719 103 l 719 883 l 288 883 l 118 492 m 331 694 l 453 574 l 572 693 l 653 613 l 533 493 l 654 371 l 572 289 l 451 411 l 331 290 l 250 371 l 371 492 l 249 613 "},"⌦":{"ha":833,"x_min":0,"x_max":0,"o":"m 828 490 l 615 0 l 11 0 l 11 986 l 615 986 m 546 103 l 715 492 l 546 883 l 114 883 l 114 103 m 301 493 l 181 613 l 261 693 l 382 574 l 503 694 l 585 613 l 464 492 l 583 371 l 503 290 l 383 411 l 261 289 l 179 371 "},"⏎":{"ha":833,"x_min":0,"x_max":0,"o":"m 708 364 l 708 867 l 610 867 l 610 463 l 325 463 l 325 589 l 158 413 l 325 236 l 325 364 m 415 847 l 415 581 l 493 581 l 493 986 l 826 986 l 826 247 l 415 247 l 415 -22 l 4 414 "},"␋":{"ha":833,"x_min":0,"x_max":0,"o":"m 761 486 l 631 486 l 631 99 l 557 99 l 557 486 l 426 486 l 426 557 l 761 557 m 149 875 l 250 531 l 351 875 l 428 875 l 288 417 l 213 417 l 72 875 "},"¢":{"ha":833,"x_min":0,"x_max":0,"o":"m 607 479 b 493 618 596 549 551 599 l 449 108 b 613 268 531 115 599 174 l 756 260 b 438 -17 733 92 597 -15 l 428 -126 l 321 -126 l 332 -3 b 93 368 185 39 93 175 b 397 751 93 589 213 735 l 408 874 l 515 874 l 504 746 b 749 488 631 721 733 625 l 607 479 m 235 368 b 343 129 235 250 274 167 l 386 622 b 235 368 290 600 235 508 "},"¤":{"ha":833,"x_min":0,"x_max":0,"o":"m 415 131 b 258 179 357 131 303 149 l 151 72 l 75 149 l 182 256 b 133 413 151 300 133 354 b 182 571 133 471 151 525 l 75 678 l 151 754 l 258 647 b 415 694 304 676 357 694 b 572 646 474 694 528 676 l 681 754 l 757 678 l 649 569 b 697 413 679 525 697 471 b 650 256 697 354 679 301 l 757 149 l 681 72 l 574 179 b 415 131 528 149 474 131 m 250 413 b 415 247 250 322 325 247 b 581 413 504 247 581 322 b 415 578 581 503 504 578 b 250 413 325 578 250 503 "},"$":{"ha":833,"x_min":0,"x_max":0,"o":"m 210 328 b 367 129 228 231 282 158 l 367 454 b 88 731 217 497 88 578 b 367 1007 88 890 203 993 l 367 1118 l 475 1118 l 475 1003 b 761 692 633 974 742 853 l 617 683 b 475 864 604 772 550 839 l 475 556 b 778 267 642 508 778 415 b 475 -15 778 93 635 -6 l 475 -126 l 367 -126 l 367 -10 b 67 318 200 19 81 142 l 210 328 m 231 729 b 367 588 232 651 290 614 l 367 874 b 231 729 288 863 229 808 m 475 115 b 635 256 569 122 636 169 b 475 422 635 331 583 381 l 475 115 "},"€":{"ha":833,"x_min":0,"x_max":0,"o":"m 76 646 b 450 1008 115 872 247 1008 b 797 688 626 1008 753 886 l 650 678 b 449 876 617 806 546 876 b 222 646 331 876 251 796 l 525 646 l 510 538 l 210 538 b 208 492 208 522 208 507 b 210 432 208 471 208 451 l 497 432 l 482 324 l 225 324 b 449 110 257 185 335 110 b 658 328 556 110 629 186 l 804 319 b 450 -22 767 108 638 -22 b 79 324 251 -22 122 107 l 13 324 l 13 432 l 65 432 b 64 492 64 451 64 471 b 65 538 64 507 64 522 l 13 538 l 13 646 "},"₴":{"ha":833,"x_min":0,"x_max":0,"o":"m 29 436 l 804 436 l 804 326 l 231 326 b 208 261 215 306 208 283 b 399 115 207 175 286 115 b 614 251 497 115 579 169 l 767 240 b 404 -17 728 85 589 -17 b 65 261 203 -17 65 97 b 79 326 65 283 69 307 l 29 326 m 29 647 l 588 647 b 617 725 608 668 617 693 b 429 876 619 814 542 876 b 232 726 342 876 272 821 l 83 739 b 413 1008 124 901 250 1008 b 761 726 628 1008 761 899 b 739 647 761 700 753 671 l 804 647 l 804 538 l 29 538 "},"₽":{"ha":833,"x_min":0,"x_max":0,"o":"m 456 986 b 804 682 672 986 804 869 b 456 372 804 490 672 372 l 285 372 l 285 268 l 407 268 l 407 160 l 285 160 l 285 0 l 147 0 l 147 160 l 43 160 l 43 268 l 147 268 l 147 986 l 456 986 m 449 504 b 658 682 588 504 658 565 b 449 854 658 794 588 854 l 285 854 l 285 504 "},"₹":{"ha":833,"x_min":0,"x_max":0,"o":"m 49 378 l 49 510 l 319 510 b 521 628 433 510 500 550 l 49 628 l 49 736 l 522 736 b 319 854 503 814 435 854 l 49 854 l 49 986 l 783 986 l 783 878 l 608 878 b 669 736 640 839 661 792 l 783 736 l 783 628 l 668 628 b 325 378 643 471 518 378 l 235 378 l 654 0 l 465 0 "},"₪":{"ha":833,"x_min":0,"x_max":0,"o":"m 379 986 b 588 778 507 986 588 906 l 588 215 l 461 215 l 461 781 b 378 864 461 832 429 864 l 153 864 l 153 0 l 26 0 l 26 986 l 379 986 m 244 771 l 371 771 l 371 122 l 597 122 b 681 206 649 122 681 154 l 681 986 l 806 986 l 806 208 b 597 0 806 81 725 0 l 244 0 "},"£":{"ha":833,"x_min":0,"x_max":0,"o":"m 454 1008 b 779 765 650 1008 757 890 l 621 756 b 460 876 600 831 535 876 b 297 713 372 876 294 808 b 335 544 299 669 314 615 l 574 544 l 574 432 l 354 432 b 188 136 364 308 311 190 l 763 136 l 763 4 l 61 0 l 61 136 b 217 386 161 193 215 275 b 215 432 217 400 215 417 l 60 432 l 60 544 l 194 544 l 185 572 b 153 735 165 632 153 688 b 454 1008 153 892 285 1008 "},"¥":{"ha":833,"x_min":0,"x_max":0,"o":"m 217 986 l 418 560 l 618 986 l 775 986 l 540 508 l 711 508 l 711 393 l 488 393 l 488 307 l 711 307 l 711 192 l 488 192 l 488 0 l 349 0 l 349 192 l 125 192 l 125 307 l 349 307 l 349 393 l 125 393 l 125 508 l 296 508 l 60 986 "},"+":{"ha":833,"x_min":0,"x_max":0,"o":"m 354 486 l 354 754 l 479 754 l 479 486 l 747 486 l 747 361 l 479 361 l 479 93 l 354 93 l 354 361 l 86 361 l 86 486 "},"−":{"ha":833,"x_min":0,"x_max":0,"o":"m 747 514 l 747 389 l 86 389 l 86 514 "},"×":{"ha":833,"x_min":0,"x_max":0,"o":"m 447 474 l 636 664 l 725 575 l 535 386 l 725 196 l 636 108 l 447 297 l 257 108 l 169 196 l 358 386 l 169 575 l 257 664 "},"÷":{"ha":833,"x_min":0,"x_max":0,"o":"m 747 514 l 747 389 l 86 389 l 86 514 m 325 189 b 417 279 325 240 365 279 b 508 189 468 279 508 240 b 417 97 508 138 468 97 b 325 189 365 97 325 138 m 325 728 b 417 818 325 779 365 818 b 508 728 468 818 508 779 b 417 636 508 676 468 636 b 325 728 365 636 325 676 "},"=":{"ha":833,"x_min":0,"x_max":0,"o":"m 724 639 l 724 514 l 110 514 l 110 639 m 110 326 l 724 326 l 724 201 l 110 201 "},"≠":{"ha":833,"x_min":0,"x_max":0,"o":"m 553 740 l 522 639 l 724 639 l 724 514 l 483 514 l 426 326 l 724 326 l 724 201 l 389 201 l 336 28 l 211 28 l 264 201 l 110 201 l 110 326 l 301 326 l 358 514 l 110 514 l 110 639 l 397 639 l 428 740 "},">":{"ha":833,"x_min":0,"x_max":0,"o":"m 735 514 l 735 344 l 100 65 l 100 203 l 617 429 l 100 656 l 100 792 "},"<":{"ha":833,"x_min":0,"x_max":0,"o":"m 733 656 l 217 429 l 733 203 l 733 65 l 99 344 l 99 514 l 733 792 "},"≥":{"ha":833,"x_min":0,"x_max":0,"o":"m 747 125 l 747 0 l 86 0 l 86 125 m 86 382 l 614 517 l 86 650 l 86 781 l 747 601 l 747 431 l 86 253 "},"≤":{"ha":833,"x_min":0,"x_max":0,"o":"m 747 0 l 86 0 l 86 125 l 747 125 m 86 601 l 747 781 l 747 650 l 219 517 l 747 382 l 747 253 l 86 431 "},"±":{"ha":833,"x_min":0,"x_max":0,"o":"m 746 167 l 746 42 l 74 42 l 74 167 m 74 576 l 347 576 l 347 750 l 472 750 l 472 576 l 746 576 l 746 451 l 472 451 l 472 278 l 347 278 l 347 451 l 74 451 "},"≈":{"ha":833,"x_min":0,"x_max":0,"o":"m 108 431 b 294 679 108 578 181 679 b 436 606 365 679 404 644 b 532 535 465 569 488 535 b 601 667 581 535 601 588 l 725 667 b 539 419 725 521 654 419 b 392 499 464 419 425 458 b 301 564 364 533 343 564 b 232 431 253 564 232 511 l 108 431 m 108 128 b 294 375 108 274 181 375 b 422 321 354 375 392 351 b 532 231 460 278 481 231 b 601 364 581 231 601 283 l 725 364 b 539 115 725 218 654 115 b 388 201 458 115 421 160 b 301 260 361 235 339 260 b 232 128 253 260 232 208 l 108 128 "},"~":{"ha":833,"x_min":0,"x_max":0,"o":"m 528 450 b 601 600 574 450 601 508 l 733 600 b 529 326 733 481 682 326 b 304 475 371 326 386 475 b 231 325 258 475 231 417 l 99 325 b 303 599 99 444 150 599 b 528 450 450 599 443 450 "},"¬":{"ha":833,"x_min":0,"x_max":0,"o":"m 668 483 l 668 133 l 549 133 l 549 364 l 125 364 l 125 483 "},"^":{"ha":833,"x_min":0,"x_max":0,"o":"m 417 810 l 324 532 l 194 532 l 333 935 l 500 935 l 639 532 l 510 532 "},"∞":{"ha":833,"x_min":0,"x_max":0,"o":"m 361 376 b 214 475 325 433 265 475 b 129 376 164 475 129 435 b 214 276 129 318 164 278 b 361 376 265 276 325 318 m 10 376 b 210 597 10 499 94 597 b 417 461 288 597 371 546 b 626 596 464 546 546 596 b 822 376 739 597 822 499 b 626 156 822 254 739 156 b 417 292 550 156 461 203 b 210 156 371 203 285 156 b 10 376 94 156 10 254 m 471 376 b 621 276 508 317 569 275 b 703 376 669 278 703 319 b 621 475 703 432 669 474 b 471 376 569 476 510 435 "},"∫":{"ha":833,"x_min":0,"x_max":0,"o":"m 153 -85 l 224 -87 b 307 -12 272 -89 301 -61 l 396 796 b 611 986 410 919 485 989 l 690 985 l 679 863 l 611 865 b 526 790 561 868 532 839 l 438 -18 b 221 -208 424 -142 347 -211 l 142 -207 "},"∆":{"ha":833,"x_min":0,"x_max":0,"o":"m 332 986 l 501 986 l 814 193 l 814 0 l 19 0 l 19 193 m 711 124 l 417 867 l 122 124 "},"∏":{"ha":833,"x_min":0,"x_max":0,"o":"m 813 861 l 669 861 l 669 -208 l 540 -208 l 540 861 l 299 861 l 299 -208 l 169 -208 l 169 861 l 21 861 l 21 986 l 813 986 "},"∑":{"ha":833,"x_min":0,"x_max":0,"o":"m 761 986 l 761 854 l 251 854 l 493 493 l 251 132 l 761 132 l 761 0 l 93 0 l 93 132 l 335 493 l 93 854 l 93 986 "},"√":{"ha":833,"x_min":0,"x_max":0,"o":"m 814 865 l 529 865 l 324 -208 l 160 -208 l 21 467 l 149 467 l 240 17 l 425 986 l 814 986 "},"∂":{"ha":833,"x_min":0,"x_max":0,"o":"m 419 658 b 619 525 511 650 581 603 b 240 919 614 749 471 900 l 275 1046 b 606 65 883 979 814 251 b 368 -17 531 0 453 -25 b 54 346 167 0 36 149 b 419 658 71 556 215 676 m 196 336 b 369 107 183 206 256 119 b 601 368 494 96 589 206 b 410 531 585 467 507 524 b 196 336 294 542 206 461 "},"µ":{"ha":833,"x_min":0,"x_max":0,"o":"m 583 0 l 583 114 b 403 -17 551 32 482 -17 b 263 68 340 -17 286 15 l 263 -208 l 128 -208 l 128 736 l 263 736 l 263 297 b 403 99 263 165 310 99 b 576 297 511 99 576 175 l 576 736 l 711 736 l 711 0 "},"%":{"ha":833,"x_min":0,"x_max":0,"o":"m 771 1008 l 186 -17 l 43 -17 l 628 1008 m 14 746 b 189 988 14 882 78 988 b 364 746 300 988 364 882 b 189 504 364 610 300 504 b 14 746 78 504 14 610 m 126 746 b 189 614 126 660 149 614 b 253 746 229 614 253 660 b 189 878 253 832 229 878 b 126 746 149 878 126 832 m 469 242 b 644 483 469 378 533 483 b 819 242 756 483 819 378 b 644 0 819 106 756 0 b 469 242 533 0 469 106 m 582 242 b 644 110 582 156 604 110 b 708 242 685 110 708 156 b 644 374 708 328 685 374 b 582 242 604 374 582 328 "},"‰":{"ha":833,"x_min":0,"x_max":0,"o":"m 657 1008 l 132 -17 l 4 -17 l 529 1008 m 14 768 b 172 988 14 892 71 988 b 331 768 274 988 331 892 b 172 550 331 646 274 550 b 14 768 71 550 14 646 m 115 768 b 172 650 115 692 135 650 b 231 768 208 650 231 692 b 172 888 231 847 208 888 b 115 768 135 888 115 847 m 326 218 b 475 438 326 340 383 438 b 578 375 519 438 556 415 b 681 438 601 415 636 438 b 831 218 774 438 831 340 b 681 0 831 94 774 0 b 578 63 636 0 601 22 b 475 0 556 22 519 0 b 326 218 383 0 326 94 m 428 218 b 483 99 428 140 447 99 b 542 218 521 99 542 140 b 483 338 542 296 521 338 b 428 218 447 338 428 296 m 615 218 b 672 99 615 140 635 99 b 731 218 708 99 731 140 b 672 338 731 296 708 338 b 615 218 635 338 615 296 "},"↑":{"ha":833,"x_min":0,"x_max":0,"o":"m 792 589 l 792 421 l 479 732 l 479 25 l 354 25 l 354 735 l 42 422 l 42 590 l 417 964 "},"↗":{"ha":833,"x_min":0,"x_max":0,"o":"m 743 456 l 624 336 l 624 778 l 124 278 l 35 365 l 538 868 l 94 868 l 214 986 l 743 986 "},"→":{"ha":833,"x_min":0,"x_max":0,"o":"m 464 76 l 294 75 l 594 375 l 22 375 l 22 500 l 594 500 l 296 799 l 464 799 l 824 438 "},"↘":{"ha":833,"x_min":0,"x_max":0,"o":"m 226 0 l 107 119 l 549 119 l 49 619 l 136 708 l 639 206 l 639 649 l 757 529 l 756 0 "},"↓":{"ha":833,"x_min":0,"x_max":0,"o":"m 42 399 l 42 567 l 354 254 l 354 964 l 479 964 l 479 257 l 792 568 l 792 400 l 417 25 "},"↙":{"ha":833,"x_min":0,"x_max":0,"o":"m 76 529 l 194 649 l 194 206 l 697 708 l 785 619 l 285 119 l 726 119 l 607 0 l 78 0 "},"←":{"ha":833,"x_min":0,"x_max":0,"o":"m 369 799 l 538 799 l 239 500 l 811 500 l 811 375 l 239 375 l 539 75 l 369 76 l 10 438 "},"↖":{"ha":833,"x_min":0,"x_max":0,"o":"m 619 986 l 739 868 l 296 868 l 799 365 l 710 278 l 210 778 l 210 336 l 90 456 l 90 986 "},"↝":{"ha":833,"x_min":0,"x_max":0,"o":"m 24 419 b 321 613 49 576 211 675 b 407 469 389 572 400 519 b 453 365 413 426 415 386 b 582 446 494 342 539 374 l 469 513 l 775 653 l 806 314 l 688 383 b 401 256 613 258 497 200 b 317 383 344 290 325 335 b 269 504 307 435 310 481 b 151 419 228 528 175 493 l 24 419 "},"⇤":{"ha":833,"x_min":0,"x_max":0,"o":"m 456 668 l 456 497 l 807 497 l 807 372 l 457 372 l 457 201 l 176 435 m 26 706 l 142 706 l 142 164 l 26 164 "},"⇥":{"ha":833,"x_min":0,"x_max":0,"o":"m 376 201 l 376 372 l 26 372 l 26 497 l 378 497 l 378 668 l 657 435 m 692 706 l 807 706 l 807 164 l 692 164 "},"↩":{"ha":833,"x_min":0,"x_max":0,"o":"m 249 333 l 417 164 l 253 164 l 21 396 l 250 626 l 415 626 l 246 458 l 500 458 b 686 632 604 458 686 535 b 500 806 686 729 604 806 l 90 806 l 90 931 l 500 931 b 813 632 675 931 813 800 b 500 333 813 464 675 333 "},"↪":{"ha":833,"x_min":0,"x_max":0,"o":"m 333 333 b 21 632 158 333 21 464 b 333 931 21 800 158 931 l 743 931 l 743 806 l 333 806 b 147 632 229 806 147 729 b 333 458 147 535 229 458 l 588 458 l 418 626 l 583 626 l 813 396 l 581 164 l 417 164 l 585 333 l 333 333 "},"↰":{"ha":833,"x_min":0,"x_max":0,"o":"m 310 857 l 310 681 l 794 681 l 794 0 l 669 0 l 669 556 l 311 556 l 311 379 l 25 618 "},"↱":{"ha":833,"x_min":0,"x_max":0,"o":"m 522 379 l 522 556 l 164 556 l 164 0 l 39 0 l 39 681 l 524 681 l 524 857 l 808 618 "},"↳":{"ha":833,"x_min":0,"x_max":0,"o":"m 524 129 l 524 306 l 39 306 l 39 986 l 164 986 l 164 431 l 522 431 l 522 607 l 808 368 "},"↴":{"ha":833,"x_min":0,"x_max":0,"o":"m 356 281 l 526 281 l 526 861 l 19 861 l 19 986 l 651 986 l 651 279 l 822 279 l 589 0 "},"↵":{"ha":833,"x_min":0,"x_max":0,"o":"m 311 607 l 311 431 l 669 431 l 669 986 l 794 986 l 794 306 l 310 306 l 310 129 l 25 368 "},"⇧":{"ha":833,"x_min":0,"x_max":0,"o":"m 597 625 l 418 824 l 238 625 l 308 625 l 308 125 l 528 125 l 528 625 m 418 993 l 831 550 l 653 550 l 653 0 l 183 0 l 183 550 l 3 550 "},"●":{"ha":833,"x_min":0,"x_max":0,"o":"m 418 110 b 22 494 194 110 22 271 b 418 882 22 721 194 882 b 813 494 640 882 813 721 b 418 110 813 271 640 110 "},"○":{"ha":833,"x_min":0,"x_max":0,"o":"m 418 110 b 22 494 194 110 22 272 b 418 882 22 719 194 882 b 813 494 640 882 813 719 b 418 110 813 272 640 110 m 146 494 b 418 228 146 339 264 228 b 689 494 571 228 689 339 b 418 764 689 653 571 764 b 146 494 264 764 146 653 "},"◌":{"ha":833,"x_min":0,"x_max":0,"o":"m 414 92 b 506 101 446 92 478 96 l 490 182 b 414 176 467 178 440 176 l 414 92 m 3 497 b 13 406 3 464 6 435 l 94 422 b 86 497 89 447 86 471 l 3 497 m 92 553 b 111 624 96 576 101 601 l 33 654 b 8 565 21 626 14 597 m 33 340 b 79 257 46 310 60 283 l 146 307 b 110 372 132 326 121 347 l 33 340 m 135 672 b 181 728 147 692 164 711 l 124 789 b 64 717 100 767 82 744 m 124 207 b 199 149 146 185 171 165 l 242 222 b 182 265 221 233 199 250 l 124 207 m 222 763 b 289 796 244 776 265 788 l 260 874 b 176 832 229 863 203 850 m 260 119 b 349 97 289 110 318 101 l 361 181 b 290 197 338 183 311 190 l 260 119 m 340 813 b 417 819 365 817 390 819 l 415 904 b 325 894 383 903 354 900 m 472 815 b 544 797 496 811 522 806 l 574 874 b 485 899 544 886 517 894 l 472 815 m 572 121 b 654 163 601 132 628 144 l 608 232 b 542 197 588 218 567 208 m 593 774 b 651 729 615 761 635 746 l 711 789 b 636 846 688 811 663 829 l 593 774 m 708 204 b 768 278 731 226 751 251 l 697 322 b 650 267 685 303 668 283 m 686 688 b 724 622 701 667 713 646 l 799 654 b 756 736 788 685 772 713 l 686 688 m 799 339 b 824 429 811 368 818 397 l 742 442 b 722 371 738 418 731 392 m 738 572 b 746 497 743 547 746 522 l 829 497 b 819 589 829 529 826 558 l 738 572 "},"◊":{"ha":833,"x_min":0,"x_max":0,"o":"m 500 894 l 735 447 l 500 0 l 332 0 l 97 447 l 332 894 m 417 107 l 596 447 l 417 788 l 236 447 "},"▲":{"ha":833,"x_min":0,"x_max":0,"o":"m 11 0 l 821 0 l 415 701 "},"▶":{"ha":833,"x_min":0,"x_max":0,"o":"m -75 901 l -75 92 l 626 497 "},"▼":{"ha":833,"x_min":0,"x_max":0,"o":"m 821 986 l 11 986 l 415 285 "},"◀":{"ha":833,"x_min":0,"x_max":0,"o":"m 908 92 l 908 901 l 207 497 "},"△":{"ha":833,"x_min":0,"x_max":0,"o":"m 415 610 l 621 251 l 211 251 m 821 136 l 415 838 l 11 136 "},"▷":{"ha":833,"x_min":0,"x_max":0,"o":"m 535 497 l 176 292 l 176 701 m 763 497 l 61 901 l 61 92 "},"▽":{"ha":833,"x_min":0,"x_max":0,"o":"m 621 746 l 415 388 l 211 746 m 415 160 l 821 861 l 11 861 "},"◁":{"ha":833,"x_min":0,"x_max":0,"o":"m 657 292 l 299 497 l 657 701 m 772 92 l 772 901 l 71 497 "},"̈":{"ha":0,"x_min":0,"x_max":0,"o":"m 154 986 l 154 840 l 7 840 l 7 986 m 222 986 l 369 986 l 369 840 l 222 840 "},"̇":{"ha":0,"x_min":0,"x_max":0,"o":"m 147 986 l 147 840 l 0 840 l 0 986 "},"̀":{"ha":0,"x_min":0,"x_max":0,"o":"m 146 1026 l 251 832 l 140 832 l -4 1026 "},"́":{"ha":0,"x_min":0,"x_max":0,"o":"m 103 846 l 0 846 l 88 1026 l 229 1026 "},"̋":{"ha":0,"x_min":0,"x_max":0,"o":"m 140 846 l 38 846 l 125 1026 l 267 1026 m 307 1026 l 449 1026 l 322 846 l 219 846 "},"̂":{"ha":0,"x_min":0,"x_max":0,"o":"m 204 951 l 129 846 l 1 846 l 121 1013 l 288 1013 l 408 846 l 279 846 "},"̌":{"ha":0,"x_min":0,"x_max":0,"o":"m 408 1013 l 288 846 l 121 846 l 1 1013 l 129 1013 l 204 907 l 279 1013 "},"̆":{"ha":0,"x_min":0,"x_max":0,"o":"m 103 1026 b 204 938 103 976 147 938 b 307 1026 261 938 306 976 l 407 1026 b 204 846 406 925 318 846 b 1 1026 90 846 3 925 l 103 1026 "},"̊":{"ha":0,"x_min":0,"x_max":0,"o":"m 135 811 b -11 956 53 811 -11 875 b 135 1101 -11 1036 53 1101 b 279 956 215 1101 279 1036 b 135 811 279 875 215 811 m 78 956 b 135 900 78 925 101 900 b 190 956 167 900 190 925 b 135 1013 190 988 167 1013 b 78 956 101 1013 78 988 "},"̃":{"ha":0,"x_min":0,"x_max":0,"o":"m 151 933 b 97 844 115 933 97 907 l 1 844 b 143 1031 3 960 57 1031 b 243 992 192 1031 219 1015 b 324 939 272 967 288 939 b 376 1029 358 939 376 968 l 472 1029 b 331 843 471 917 417 843 b 222 889 275 843 246 864 b 151 933 199 913 182 933 "},"̄":{"ha":0,"x_min":0,"x_max":0,"o":"m 368 965 l 368 865 l 4 865 l 4 965 "},"̒":{"ha":0,"x_min":0,"x_max":0,"o":"m -225 1243 l -149 1243 l -222 1019 l -150 1019 l -150 847 l -328 847 l -328 1019 "},"̦":{"ha":0,"x_min":0,"x_max":0,"o":"m 103 -264 l 0 -264 l 88 -83 l 229 -83 "},"̧":{"ha":0,"x_min":0,"x_max":0,"o":"m 156 14 l 238 14 l 179 -49 b 314 -178 257 -49 314 -103 b 172 -312 314 -254 250 -312 b 0 -215 103 -312 56 -281 l 67 -154 b 165 -225 86 -179 118 -225 b 226 -168 201 -225 226 -203 b 125 -119 226 -125 179 -106 l 83 -65 "},"̨":{"ha":0,"x_min":0,"x_max":0,"o":"m 149 -57 b 106 -147 128 -85 106 -119 b 151 -193 106 -174 124 -193 b 238 -164 176 -193 207 -178 l 238 -261 b 126 -300 203 -290 164 -301 b 0 -181 57 -300 0 -249 b 54 -54 0 -136 17 -93 l 103 0 l 189 0 l 149 -57 "},"̵":{"ha":0,"x_min":0,"x_max":0,"o":"m 854 450 l 854 342 l 276 342 l 276 450 "},"¨":{"ha":833,"x_min":0,"x_max":0,"o":"m 382 986 l 382 840 l 235 840 l 235 986 m 449 986 l 596 986 l 596 840 l 449 840 "},"˙":{"ha":833,"x_min":0,"x_max":0,"o":"m 489 986 l 489 840 l 342 840 l 342 986 "},"`":{"ha":833,"x_min":0,"x_max":0,"o":"m 446 1026 l 551 832 l 440 832 l 296 1026 "},"´":{"ha":833,"x_min":0,"x_max":0,"o":"m 404 846 l 301 846 l 389 1026 l 531 1026 "},"˝":{"ha":833,"x_min":0,"x_max":0,"o":"m 314 846 l 211 846 l 299 1026 l 440 1026 m 481 1026 l 622 1026 l 496 846 l 393 846 "},"ˆ":{"ha":833,"x_min":0,"x_max":0,"o":"m 415 951 l 340 846 l 213 846 l 332 1013 l 499 1013 l 619 846 l 490 846 "},"ˇ":{"ha":833,"x_min":0,"x_max":0,"o":"m 619 1013 l 499 846 l 332 846 l 213 1013 l 340 1013 l 415 907 l 490 1013 "},"˘":{"ha":833,"x_min":0,"x_max":0,"o":"m 103 1026 b 204 938 103 976 147 938 b 307 1026 261 938 306 976 l 407 1026 b 204 846 406 925 318 846 b 1 1026 90 846 3 925 l 103 1026 "},"˚":{"ha":833,"x_min":0,"x_max":0,"o":"m 135 811 b -11 956 53 811 -11 875 b 135 1101 -11 1036 53 1101 b 279 956 215 1101 279 1036 b 135 811 279 875 215 811 m 78 956 b 135 900 78 925 101 900 b 190 956 167 900 190 925 b 135 1013 190 988 167 1013 b 78 956 101 1013 78 988 "},"˜":{"ha":833,"x_min":0,"x_max":0,"o":"m 151 933 b 97 844 115 933 97 907 l 1 844 b 143 1031 3 960 57 1031 b 243 992 192 1031 219 1015 b 324 939 272 967 288 939 b 376 1029 358 939 376 968 l 472 1029 b 331 843 471 917 417 843 b 222 889 275 843 246 864 b 151 933 199 913 182 933 "},"¯":{"ha":833,"x_min":0,"x_max":0,"o":"m 368 965 l 368 865 l 4 865 l 4 965 "},"¸":{"ha":833,"x_min":0,"x_max":0,"o":"m 156 14 l 238 14 l 179 -49 b 314 -178 257 -49 314 -103 b 172 -312 314 -254 250 -312 b 0 -215 103 -312 56 -281 l 67 -154 b 165 -225 86 -179 118 -225 b 226 -168 201 -225 226 -203 b 125 -119 226 -125 179 -106 l 83 -65 "},"˛":{"ha":833,"x_min":0,"x_max":0,"o":"m 149 -57 b 106 -147 128 -85 106 -119 b 151 -193 106 -174 124 -193 b 238 -164 176 -193 207 -178 l 238 -261 b 126 -300 203 -290 164 -301 b 0 -181 57 -300 0 -249 b 54 -54 0 -136 17 -93 l 103 0 l 189 0 l 149 -57 "},"ʼ":{"ha":833,"x_min":0,"x_max":0,"o":"m 411 590 l 335 590 l 408 814 l 336 814 l 336 986 l 514 986 l 514 814 "},"ʹ":{"ha":833,"x_min":0,"x_max":0,"o":"m 404 846 l 301 846 l 389 1026 l 531 1026 "},"ˈ":{"ha":833,"x_min":0,"x_max":0,"o":"m 483 986 l 483 876 l 464 668 l 369 668 l 350 876 l 350 986 "}}}
